<svg xmlns="http://www.w3.org/2000/svg" viewBox="0 0 35.2 35.2"><defs><style>.cls-1{fill:#c9c9c9;}</style></defs><title>icon_in</title><g id="Layer_2" data-name="Layer 2"><g id="레이어_1" data-name="레이어 1"><path class="cls-1" d="M17.55,8.55a9,9,0,1,0,9,9A9,9,0,0,0,17.55,8.55Zm0,14.9a5.91,5.91,0,0,1-5.9-5.9,5.9,5.9,0,1,1,5.9,5.9Zm11.5-15.3a2.1,2.1,0,0,1-4.2,0A2.05,2.05,0,0,1,27,6.05,2.11,2.11,0,0,1,29.05,8.15Zm6,2.2A10.69,10.69,0,0,0,32.25,3c-2.1-2.1-4.6-2.7-7.4-2.8s-11.6-.2-14.5,0A10.69,10.69,0,0,0,3,3c-2.1,2-2.7,4.6-2.8,7.4S0,22,.15,24.85A10.69,10.69,0,0,0,3,32.25c2,2.1,4.6,2.7,7.4,2.8s11.6.2,14.5,0a10.69,10.69,0,0,0,7.4-2.8c2.1-2.1,2.7-4.6,2.8-7.4s.2-11.6,0-14.5ZM31.35,28a5.94,5.94,0,0,1-3.3,3.3c-2.3.9-7.8.7-10.4.7s-8.1.2-10.4-.7A5.94,5.94,0,0,1,4,28c-.9-2.3-.7-7.8-.7-10.4s-.2-8.1.7-10.4a5.94,5.94,0,0,1,3.3-3.3c2.3-.9,7.8-.7,10.3-.7s8.1-.2,10.4.7a5.94,5.94,0,0,1,3.3,3.3c.9,2.3.7,7.8.7,10.4S32.25,25.65,31.35,28Z"/></g></g></svg>