<svg xmlns="http://www.w3.org/2000/svg" viewBox="0 0 15.2 15.1"><defs><style>.cls-1{fill:none;stroke:#7a7a7a;stroke-miterlimit:10;stroke-width:1.25px;}</style></defs><g id="Layer_2" data-name="Layer 2"><g id="레이어_1" data-name="레이어 1"><path class="cls-1" d="M7.6,3.6,9.9,1.3a2.35,2.35,0,0,1,3.3,0l.7.7a2.35,2.35,0,0,1,0,3.3L10.3,8.9A2.35,2.35,0,0,1,7,8.9l-.7-.7"/><path class="cls-1" d="M7.6,11.5,5.3,13.8a2.35,2.35,0,0,1-3.3,0l-.7-.7a2.35,2.35,0,0,1,0-3.3L4.9,6.2a2.35,2.35,0,0,1,3.3,0l.7.7"/></g></g></svg>