<?xml version="1.0" encoding="utf-8"?>
<!-- Generator: Adobe Illustrator 24.0.1, SVG Export Plug-In . SVG Version: 6.00 Build 0)  -->
<svg version="1.1" id="레이어_1" xmlns="http://www.w3.org/2000/svg" xmlns:xlink="http://www.w3.org/1999/xlink" x="0px"
	 y="0px" viewBox="0 0 254 104" style="enable-background:new 0 0 254 104;" xml:space="preserve">
<style type="text/css">
	.st0{fill-rule:evenodd;clip-rule:evenodd;fill:#E5E5E5;}
	.st1{fill-rule:evenodd;clip-rule:evenodd;fill:#C9C9C9;}
	.st2{fill-rule:evenodd;clip-rule:evenodd;fill:none;stroke:#E5E5E5;stroke-miterlimit:10;}
	.st3{fill:#C9C9C9;}
	.st4{fill:#C9C9C9;stroke:#C9C9C9;stroke-miterlimit:10;}
	.st5{fill-rule:evenodd;clip-rule:evenodd;fill:#FFFFFF;}
	.st6{fill:#FFFFFF;}
	.st7{fill:#FFFFFF;stroke:#FFFFFF;stroke-miterlimit:10;}
</style>
<rect x="-18" y="160" class="st0" width="55" height="55"/>
<rect x="64" y="157" class="st0" width="55" height="55"/>
<rect x="146" y="168" class="st0" width="55" height="55"/>
<rect x="238" y="187" class="st0" width="55" height="55"/>
<path class="st1" d="M39.8,1.7c-1.5,1-3.5,1.5-5.4,2.1c-1.5-1.5-3.5-2.6-5.9-2.6c-4.5,0-7.9,3.6-7.9,8.2c0,0.5,0,1.5,0,2.1
	C14,10.9,8.1,7.8,4.1,2.7c-1,1-1.5,2.6-1.5,4.1c0,3.1,1.5,5.6,4,7.2c-1.5-0.5-3-0.5-4-1l0,0c0,4.1,3,7.2,6.4,8.2c-0.5,0-1,0-2,0
	c-0.5,0-1,0-1.5,0c1,3.1,4,5.6,7.4,5.6c-2.5,2.1-5.9,3.6-9.9,3.6c-0.5,0-1.5,0-2,0C4.6,32.5,9.1,34,13.6,34
	c14.9,0,23.3-12.8,23.3-23.6c0-0.5,0-0.5,0-1c1.5-1,3-2.6,4-4.1c-1.5,0.5-3,1-4.5,1C37.8,5.3,39.3,3.7,39.8,1.7"/>
<rect x="-161.5" y="51.5" class="st2" width="55" height="55"/>
<rect x="86.5" y="-224.5" class="st2" width="55" height="55"/>
<rect x="202.5" y="-208.5" class="st2" width="55" height="55"/>
<rect x="307.5" y="-204.5" class="st2" width="55" height="55"/>
<g>
	<path class="st3" d="M94.1,10.6c0,0-5.7-0.1-7.6,3.3V0.7c0,0-7.8,0.1-8.3,0v34.4h8.3v-2c0,0,2.5,2.9,6.9,2.9
		c0,0,11.5-0.3,11.5-11.4C104.9,24.7,106.5,11.7,94.1,10.6z M91.5,28.4c-2.7,0-4.8-2.2-4.8-4.8s2.2-4.8,4.8-4.8
		c2.7,0,4.8,2.2,4.8,4.8S94.2,28.4,91.5,28.4z"/>
	<path class="st3" d="M78.1,0.7L78.1,0.7C78.1,0.7,78.1,0.7,78.1,0.7z"/>
</g>
<path class="st3" d="M162,8.4c-5,0-9,4-9,9s4,9,9,9s9-4,9-9S167,8.4,162,8.4z M162,23.3c-3.2,0-5.9-2.6-5.9-5.9s2.6-5.9,5.9-5.9
	s5.9,2.6,5.9,5.9S165.3,23.3,162,23.3L162,23.3z M173.5,8c0,1.2-0.9,2.1-2.1,2.1c-1.2,0-2.1-0.9-2.1-2.1s0.9-2.1,2.1-2.1
	C172.6,5.9,173.5,6.9,173.5,8z M179.5,10.2c-0.1-2.8-0.8-5.3-2.8-7.4c-2.1-2.1-4.6-2.7-7.4-2.8c-2.9-0.2-11.6-0.2-14.5,0
	c-2.8,0.1-5.3,0.8-7.4,2.8s-2.7,4.6-2.8,7.4c-0.2,2.9-0.2,11.6,0,14.5c0.1,2.8,0.8,5.3,2.8,7.4s4.6,2.7,7.4,2.8
	c2.9,0.2,11.6,0.2,14.5,0c2.8-0.1,5.3-0.8,7.4-2.8c2.1-2.1,2.7-4.6,2.8-7.4C179.7,21.8,179.7,13.1,179.5,10.2L179.5,10.2z
	 M175.8,27.8c-0.6,1.5-1.8,2.7-3.3,3.3c-2.3,0.9-7.8,0.7-10.4,0.7s-8.1,0.2-10.4-0.7c-1.5-0.6-2.7-1.8-3.3-3.3
	c-0.9-2.3-0.7-7.8-0.7-10.4s-0.2-8.1,0.7-10.4c0.6-1.5,1.8-2.7,3.3-3.3C154,2.8,159.5,3,162,3s8.1-0.2,10.4,0.7
	c1.5,0.6,2.7,1.8,3.3,3.3c0.9,2.3,0.7,7.8,0.7,10.4S176.7,25.5,175.8,27.8z"/>
<g>
	<path class="st4" d="M246.1,2v4.7h-2V4h-26.8v23.4c0,2,1.6,3.5,3.5,3.5h23.7c0.6,1.1,1.7,1.8,2.9,2v0h-26.6c-3,0-5.5-2.5-5.5-5.5V2
		H246.1z"/>
	<g>
		<path class="st4" d="M244.2,29.1V6.7h7.5v22.5c0,2.1-1.7,3.8-3.8,3.8C245.8,32.9,244.2,31.2,244.2,29.1z M246.1,8.6v20.5
			c0,1,0.8,1.8,1.8,1.8c1,0,1.8-0.8,1.8-1.8V8.6H246.1z"/>
	</g>
	<g>
		
			<rect x="229.8" y="-1.2" transform="matrix(-1.836970e-16 1 -1 -1.836970e-16 239.9443 -221.5972)" class="st3" width="2" height="20.7"/>
		
			<rect x="235.7" y="8.9" transform="matrix(-1.836970e-16 1 -1 -1.836970e-16 250.0253 -223.4089)" class="st3" width="2" height="8.8"/>
		
			<rect x="235.7" y="13" transform="matrix(-1.836970e-16 1 -1 -1.836970e-16 254.1599 -219.2743)" class="st3" width="2" height="8.8"/>
		
			<rect x="235.7" y="17.2" transform="matrix(-1.836970e-16 1 -1 -1.836970e-16 258.2945 -215.1397)" class="st3" width="2" height="8.8"/>
		
			<rect x="229.8" y="15.4" transform="matrix(-1.836970e-16 1 -1 -1.836970e-16 256.4827 -205.0588)" class="st3" width="2" height="20.7"/>
	</g>
</g>
<rect x="220.4" y="12.3" class="st3" width="9.3" height="10.2"/>
<path class="st5" d="M39.8,69.7c-1.5,1-3.5,1.5-5.4,2.1c-1.5-1.5-3.5-2.6-5.9-2.6c-4.5,0-7.9,3.6-7.9,8.2c0,0.5,0,1.5,0,2.1
	C14,78.9,8.1,75.8,4.1,70.7c-1,1-1.5,2.6-1.5,4.1c0,3.1,1.5,5.6,4,7.2c-1.5-0.5-3-0.5-4-1l0,0c0,4.1,3,7.2,6.4,8.2c-0.5,0-1,0-2,0
	c-0.5,0-1,0-1.5,0c1,3.1,4,5.6,7.4,5.6c-2.5,2.1-5.9,3.6-9.9,3.6c-0.5,0-1.5,0-2,0c3.5,2.1,7.9,3.6,12.4,3.6
	c14.9,0,23.3-12.8,23.3-23.6c0-0.5,0-0.5,0-1c1.5-1,3-2.6,4-4.1c-1.5,0.5-3,1-4.5,1C37.8,73.3,39.3,71.7,39.8,69.7"/>
<g>
	<path class="st6" d="M94.1,78.6c0,0-5.7-0.1-7.6,3.3V68.7c0,0-7.8,0.1-8.3,0v34.4h8.3v-2c0,0,2.5,2.9,6.9,2.9
		c0,0,11.5-0.3,11.5-11.4C104.9,92.7,106.5,79.7,94.1,78.6z M91.5,96.4c-2.7,0-4.8-2.2-4.8-4.8s2.2-4.8,4.8-4.8
		c2.7,0,4.8,2.2,4.8,4.8S94.2,96.4,91.5,96.4z"/>
	<path class="st6" d="M78.1,68.7L78.1,68.7C78.1,68.7,78.1,68.7,78.1,68.7z"/>
</g>
<path class="st6" d="M162,76.4c-5,0-9,4-9,9c0,5,4,9,9,9s9-4,9-9C171.1,80.4,167,76.4,162,76.4z M162,91.3c-3.2,0-5.9-2.6-5.9-5.9
	c0-3.2,2.6-5.9,5.9-5.9s5.9,2.6,5.9,5.9C167.9,88.6,165.3,91.3,162,91.3L162,91.3z M173.5,76c0,1.2-0.9,2.1-2.1,2.1
	c-1.2,0-2.1-0.9-2.1-2.1c0-1.2,0.9-2.1,2.1-2.1C172.6,73.9,173.5,74.9,173.5,76z M179.5,78.2c-0.1-2.8-0.8-5.3-2.8-7.4
	c-2.1-2.1-4.6-2.7-7.4-2.8c-2.9-0.2-11.6-0.2-14.5,0c-2.8,0.1-5.3,0.8-7.4,2.8c-2.1,2.1-2.7,4.6-2.8,7.4c-0.2,2.9-0.2,11.6,0,14.5
	c0.1,2.8,0.8,5.3,2.8,7.4c2.1,2.1,4.6,2.7,7.4,2.8c2.9,0.2,11.6,0.2,14.5,0c2.8-0.1,5.3-0.8,7.4-2.8c2.1-2.1,2.7-4.6,2.8-7.4
	C179.7,89.8,179.7,81.1,179.5,78.2L179.5,78.2z M175.8,95.8c-0.6,1.5-1.8,2.7-3.3,3.3c-2.3,0.9-7.8,0.7-10.4,0.7s-8.1,0.2-10.4-0.7
	c-1.5-0.6-2.7-1.8-3.3-3.3c-0.9-2.3-0.7-7.8-0.7-10.4c0-2.6-0.2-8.1,0.7-10.4c0.6-1.5,1.8-2.7,3.3-3.3c2.3-0.9,7.8-0.7,10.4-0.7
	s8.1-0.2,10.4,0.7c1.5,0.6,2.7,1.8,3.3,3.3c0.9,2.3,0.7,7.8,0.7,10.4C176.5,88,176.7,93.5,175.8,95.8z"/>
<g>
	<path class="st7" d="M246.1,70v4.7h-2V72h-26.8v23.4c0,2,1.6,3.5,3.5,3.5h23.7c0.6,1.1,1.7,1.8,2.9,2v0h-26.6c-3,0-5.5-2.5-5.5-5.5
		V70H246.1z"/>
	<g>
		<path class="st7" d="M244.2,97.1V74.7h7.5v22.5c0,2.1-1.7,3.8-3.8,3.8C245.8,100.9,244.2,99.2,244.2,97.1z M246.1,76.6v20.5
			c0,1,0.8,1.8,1.8,1.8c1,0,1.8-0.8,1.8-1.8V76.6H246.1z"/>
	</g>
	<g>
		
			<rect x="229.8" y="66.8" transform="matrix(-1.836970e-16 1 -1 -1.836970e-16 307.9443 -153.5972)" class="st6" width="2" height="20.7"/>
		
			<rect x="235.7" y="76.9" transform="matrix(-1.836970e-16 1 -1 -1.836970e-16 318.0253 -155.4089)" class="st6" width="2" height="8.8"/>
		
			<rect x="235.7" y="81" transform="matrix(-1.836970e-16 1 -1 -1.836970e-16 322.1599 -151.2743)" class="st6" width="2" height="8.8"/>
		
			<rect x="235.7" y="85.2" transform="matrix(-1.836970e-16 1 -1 -1.836970e-16 326.2945 -147.1397)" class="st6" width="2" height="8.8"/>
		
			<rect x="229.8" y="83.4" transform="matrix(-1.836970e-16 1 -1 -1.836970e-16 324.4827 -137.0588)" class="st6" width="2" height="20.7"/>
	</g>
</g>
<rect x="220.4" y="80.3" class="st6" width="9.3" height="10.2"/>
</svg>
