<svg xmlns="http://www.w3.org/2000/svg" viewBox="0 0 39.9 32.8"><defs><style>.cls-1{fill:#c9c9c9;fill-rule:evenodd;}</style></defs><title>icon_tw</title><g id="Layer_2" data-name="Layer 2"><g id="레이어_1" data-name="레이어 1"><path class="cls-1" d="M38.8.5a21.69,21.69,0,0,1-5.4,2.1A8.3,8.3,0,0,0,27.5,0a7.92,7.92,0,0,0-7.9,8.2v2.1A23.41,23.41,0,0,1,3.1,1.5,5.92,5.92,0,0,0,1.6,5.6a8.31,8.31,0,0,0,4,7.2c-1.5-.5-3-.5-4-1h0A8.72,8.72,0,0,0,8,20H4.5a8.06,8.06,0,0,0,7.4,5.6A15.31,15.31,0,0,1,2,29.2H0a25.67,25.67,0,0,0,12.6,3.6C27.5,32.8,35.9,20,35.9,9.2v-1a15.6,15.6,0,0,0,4-4.1,14.6,14.6,0,0,1-4.5,1A8.51,8.51,0,0,0,38.8.5"/></g></g></svg>