<svg xmlns="http://www.w3.org/2000/svg" viewBox="0 0 11.2 9.8"><defs><style>.cls-1{fill:#3c1e1e;}.cls-2{fill:#ffe812;}</style></defs><g id="Layer_2" data-name="Layer 2"><g id="레이어_1" data-name="레이어 1"><path class="cls-1" d="M5.6,0C2.5,0,0,2,0,4.4A4.31,4.31,0,0,0,2.6,8.2C2.5,8.5,2,9.6,2,9.7a.1.1,0,0,0,.1.1h.1A12.21,12.21,0,0,0,4.6,8.7c.3,0,.7.1,1,.1,3.1,0,5.6-2,5.6-4.4S8.6,0,5.6,0Z"/><path class="cls-2" d="M2.6,6a.27.27,0,0,1-.3-.3V3.8H1.7a.32.32,0,0,1-.3-.3.27.27,0,0,1,.3-.3H3.3a.27.27,0,0,1,.3.3.27.27,0,0,1-.3.3H2.9V5.7A.32.32,0,0,1,2.6,6Z"/><path class="cls-2" d="M5.4,6c-.1,0-.2-.1-.3-.1l-.2-.4h-1l-.2.4c0,.1-.1.1-.3.1H3.2c-.1,0-.2-.2-.1-.5l.8-2c.1-.2.2-.3.4-.3a.45.45,0,0,1,.4.3l.8,2a.4.4,0,0,1-.1.5ZM4.8,4.9,4.5,4l-.3.9Z"/><path class="cls-2" d="M6.2,6a.27.27,0,0,1-.3-.3V3.5a.27.27,0,0,1,.3-.3.27.27,0,0,1,.3.3V5.4h.7a.27.27,0,0,1,.3.3.27.27,0,0,1-.3.3Z"/><path class="cls-2" d="M7.9,6a.27.27,0,0,1-.3-.3V3.5a.3.3,0,0,1,.6,0v.7l.9-.9a.35.35,0,0,1,.2-.1c.1,0,.2,0,.2.1s.1.1.1.2,0,.1-.1.2l-.7.8.8,1a.31.31,0,0,1,.1.2.35.35,0,0,1-.1.2c-.1,0-.1.1-.2.1a.37.37,0,0,1-.3-.1l-.7-1L8.3,5v.7C8.2,5.9,8.1,6,7.9,6Z"/></g></g></svg>