<svg xmlns="http://www.w3.org/2000/svg" viewBox="0 0 37.4 32"><defs><style>.cls-1,.cls-2{fill:#fff;}.cls-1{stroke:#fff;stroke-miterlimit:10;}</style></defs><title>icon_news_w</title><g id="Layer_2" data-name="Layer 2"><g id="레이어_1" data-name="레이어 1"><path class="cls-1" d="M31.3.5V5.2h-2V2.5H2.5V25.9A3.48,3.48,0,0,0,6,29.4H29.7a4,4,0,0,0,2.9,2H6A5.55,5.55,0,0,1,.5,25.9V.5Z"/><path class="cls-1" d="M29.4,27.6V5.2h7.5V27.7a3.8,3.8,0,0,1-3.8,3.8A3.87,3.87,0,0,1,29.4,27.6ZM31.3,7.1V27.6a1.8,1.8,0,1,0,3.6,0V7.1Z"/><rect class="cls-2" x="5.64" y="6.7" width="20.7" height="2"/><rect class="cls-2" x="17.53" y="10.79" width="8.8" height="2"/><rect class="cls-2" x="17.56" y="14.93" width="8.8" height="2"/><rect class="cls-2" x="17.49" y="19.06" width="8.8" height="2"/><rect class="cls-2" x="5.58" y="23.24" width="20.7" height="2"/><rect class="cls-2" x="5.6" y="10.8" width="9.3" height="10.2"/></g></g></svg>