<?xml version="1.0" encoding="utf-8"?>
<!-- Generator: Adobe Illustrator 23.0.6, SVG Export Plug-In . SVG Version: 6.00 Build 0)  -->
<svg version="1.1" id="레이어_1" xmlns="http://www.w3.org/2000/svg" xmlns:xlink="http://www.w3.org/1999/xlink" x="0px"
	 y="0px" viewBox="0 0 108 20" style="enable-background:new 0 0 108 20;" xml:space="preserve">
<style type="text/css">
	.st0{fill:none;stroke:#B0B0B0;stroke-width:2;stroke-linejoin:round;stroke-miterlimit:10;}
	.st1{fill:none;stroke:#B0B0B0;stroke-width:2;stroke-miterlimit:10;}
	.st2{fill:none;stroke:#B0B0B0;stroke-width:2;stroke-linecap:round;stroke-miterlimit:10;}
	.st3{fill:#B0B0B0;}
	.st4{fill:#B0B0B0;stroke:#B0B0B0;stroke-width:0.4;stroke-miterlimit:10;}
	.st5{fill:#B0B0B0;stroke:#B0B0B0;stroke-width:0.5;stroke-miterlimit:10;}
	.st6{fill:none;stroke:#B0B0B0;stroke-width:2;stroke-linecap:round;stroke-linejoin:round;stroke-miterlimit:10;}
	.st7{fill:none;stroke:#878787;stroke-width:2;stroke-linejoin:round;stroke-miterlimit:10;}
	.st8{fill:none;stroke:#878787;stroke-width:2;stroke-miterlimit:10;}
	.st9{fill:none;stroke:#878787;stroke-width:2;stroke-linecap:round;stroke-miterlimit:10;}
	.st10{fill:#878787;}
	.st11{fill:#878787;stroke:#878787;stroke-width:0.4;stroke-miterlimit:10;}
	.st12{fill:#878787;stroke:#878787;stroke-width:0.5;stroke-miterlimit:10;}
	.st13{fill:none;stroke:#878787;stroke-width:2;stroke-linecap:round;stroke-linejoin:round;stroke-miterlimit:10;}
	.st14{fill-rule:evenodd;clip-rule:evenodd;fill:#00ACED;}
	.st15{fill-rule:evenodd;clip-rule:evenodd;fill:#1B4CA5;}
	.st16{fill:#3C1E1E;}
	.st17{fill:#FFE812;}
	.st18{fill:none;stroke:#DDDDDD;stroke-miterlimit:10;}
	.st19{fill:none;stroke:#7A7A7A;stroke-width:2;stroke-miterlimit:10;}
	.st20{fill:none;stroke:#1B4CA5;stroke-miterlimit:10;}
	.st21{fill:none;stroke:#00ACED;stroke-miterlimit:10;}
	.st22{fill:none;stroke:#6B5151;stroke-miterlimit:10;}
	.st23{fill:none;stroke:#7A7A7A;stroke-miterlimit:10;}
	.st24{fill:none;stroke:#7A7A7A;stroke-width:1.2485;stroke-miterlimit:10;}
	.st25{fill:none;stroke:#ADADAD;stroke-width:2;stroke-linejoin:round;stroke-miterlimit:10;}
	.st26{fill:#ADADAD;}
	.st27{fill:#FF5C5C;stroke:#FF5C5C;stroke-width:2;stroke-linejoin:round;stroke-miterlimit:10;}
	.st28{fill:#F87395;}
	.st29{fill:#FFFFFF;}
	.st30{fill:#FFBE4E;}
	.st31{fill:#4DA3E6;}
	.st32{fill:#53B2C0;}
	.st33{fill:#8679B3;}
	.st34{fill:#D6DAEA;}
	.st35{fill:#41BDEA;}
	.st36{fill:#4791FE;}
	.st37{fill:none;}
	.st38{fill:#FEE000;}
	.st39{fill:#1B4CA5;}
	.st40{fill:#00ACED;}
	.st41{fill-rule:evenodd;clip-rule:evenodd;fill:#FFFFFF;}
</style>
<g>
	<path class="st24" d="M99.9,7.2l2.3-2.3c0.9-0.9,2.4-0.9,3.3,0l0.7,0.7c0.9,0.9,0.9,2.4,0,3.3l-3.6,3.6c-0.9,0.9-2.4,0.9-3.3,0
		l-0.7-0.7"/>
	<path class="st24" d="M99.9,15.1l-2.3,2.3c-0.9,0.9-2.4,0.9-3.3,0l-0.7-0.7c-0.9-0.9-0.9-2.4,0-3.3l3.6-3.6c0.9-0.9,2.4-0.9,3.3,0
		l0.7,0.7"/>
</g>
<circle class="st38" cx="11.5" cy="10.1" r="9.8"/>
<path class="st16" d="M11.3,5.5c-3.1,0-5.6,2-5.6,4.4c0,1.6,1,3,2.6,3.8c-0.1,0.3-0.6,1.4-0.6,1.5c0,0,0,0.1,0.1,0.1
	c0.1,0,0.1,0,0.1,0c0.2,0,2-0.8,2.4-1.1c0.3,0,0.7,0.1,1,0.1c3.1,0,5.6-2,5.6-4.4C16.9,7.5,14.3,5.5,11.3,5.5z"/>
<path class="st17" d="M8.3,11.5c-0.2,0-0.3-0.1-0.3-0.3V9.3H7.4C7.3,9.3,7.1,9.2,7.1,9c0-0.2,0.1-0.3,0.3-0.3h1.6
	c0.2,0,0.3,0.1,0.3,0.3c0,0.2-0.1,0.3-0.3,0.3H8.6v1.9C8.6,11.4,8.4,11.5,8.3,11.5z"/>
<path class="st17" d="M11.1,11.5c-0.1,0-0.2-0.1-0.3-0.1L10.6,11l-1,0l-0.2,0.4c0,0.1-0.1,0.1-0.3,0.1c-0.1,0-0.1,0-0.2,0
	c-0.1,0-0.2-0.2-0.1-0.5l0.8-2c0.1-0.2,0.2-0.3,0.4-0.3c0.2,0,0.4,0.2,0.4,0.3l0.8,2c0.1,0.3,0,0.4-0.1,0.5
	C11.2,11.5,11.1,11.5,11.1,11.5C11.1,11.5,11.1,11.5,11.1,11.5z M10.5,10.4l-0.3-0.9l-0.3,0.9H10.5L10.5,10.4z"/>
<path class="st17" d="M11.9,11.5c-0.2,0-0.3-0.1-0.3-0.3V9c0-0.2,0.1-0.3,0.3-0.3c0.2,0,0.3,0.1,0.3,0.3v1.9h0.7
	c0.2,0,0.3,0.1,0.3,0.3s-0.1,0.3-0.3,0.3H11.9z"/>
<path class="st17" d="M13.6,11.5c-0.2,0-0.3-0.1-0.3-0.3V9c0-0.2,0.1-0.3,0.3-0.3c0.2,0,0.3,0.1,0.3,0.3v0.7l0.9-0.9
	c0,0,0.1-0.1,0.2-0.1c0.1,0,0.2,0,0.2,0.1c0.1,0.1,0.1,0.1,0.1,0.2c0,0.1,0,0.1-0.1,0.2L14.5,10l0.8,1c0.1,0.1,0.1,0.2,0.1,0.2
	c0,0.1-0.1,0.2-0.1,0.2c-0.1,0-0.1,0.1-0.2,0.1c-0.1,0-0.2,0-0.3-0.1l-0.7-1l-0.1,0.1v0.7C13.9,11.4,13.8,11.5,13.6,11.5z"/>
<circle class="st39" cx="41.1" cy="10.1" r="9.8"/>
<circle class="st40" cx="72.6" cy="10.1" r="9.8"/>
<path class="st41" d="M78,6.7c-0.4,0.3-0.9,0.4-1.4,0.5c-0.4-0.4-0.9-0.7-1.5-0.7c-1.1,0-2,0.9-2,2.1c0,0.1,0,0.4,0,0.5
	C71.5,9.1,70,8.3,69,7c-0.3,0.3-0.4,0.7-0.4,1c0,0.8,0.4,1.4,1,1.8c-0.4-0.1-0.8-0.1-1-0.3l0,0c0,1,0.8,1.8,1.6,2.1
	c-0.1,0-0.3,0-0.5,0c-0.1,0-0.3,0-0.4,0c0.3,0.8,1,1.4,1.9,1.4c-0.6,0.5-1.5,0.9-2.5,0.9c-0.1,0-0.4,0-0.5,0c0.9,0.5,2,0.9,3.2,0.9
	c3.8,0,5.9-3.3,5.9-6c0-0.1,0-0.1,0-0.3c0.4-0.3,0.8-0.7,1-1c-0.4,0.1-0.8,0.3-1.1,0.3C77.5,7.6,77.9,7.2,78,6.7"/>
<path class="st41" d="M42,7.8c0-0.4,0-0.7,0.7-0.7c1,0,1,0,1,0c0-1.8,0-1.8,0-1.8c-1.6,0-1.6,0-1.6,0c-1.9,0-2.5,0.9-2.5,2.3
	c0,1.2,0,1.2,0,1.2c-1.2,0-1.2,0-1.2,0c0,1.8,0,1.8,0,1.8c1.2,0,1.2,0,1.2,0c0,5.3,0,5.3,0,5.3c2.3,0,2.3,0,2.3,0c0-5.3,0-5.3,0-5.3
	c1.6,0,1.6,0,1.6,0c0.1-1.8,0.1-1.8,0.1-1.8c-1.7,0-1.7,0-1.7,0V7.8L42,7.8L42,7.8z"/>
</svg>
