<?xml version="1.0" encoding="utf-8"?>
<!-- Generator: Adobe Illustrator 23.0.6, SVG Export Plug-In . SVG Version: 6.00 Build 0)  -->
<svg version="1.1" id="레이어_1" xmlns="http://www.w3.org/2000/svg" xmlns:xlink="http://www.w3.org/1999/xlink" x="0px"
	 y="0px" viewBox="0 0 190.8 27.2" style="enable-background:new 0 0 190.8 27.2;" xml:space="preserve">
<style type="text/css">
	.st0{fill:#141413;}
	.st1{fill:none;stroke:#141413;stroke-miterlimit:10;}
	.st2{fill:#FFFFFF;}
	.st3{fill:#529AF7;}
	.st4{fill:#768089;}
	.st5{fill:none;stroke:#A4A4A5;stroke-miterlimit:10;}
	.st6{fill:#00B1FF;}
</style>
<g>
	<rect x="-1799" y="916" transform="matrix(1 1.732758e-03 -1.732758e-03 1 2.1007 2.3896)" class="st0" width="842" height="595"/>
</g>
<g>
	<rect x="-910.8" y="916" transform="matrix(1 1.732758e-03 -1.732758e-03 1 2.102 0.8505)" class="st1" width="842" height="595"/>
</g>
<g>
	
		<rect x="-1824.6" y="229.8" transform="matrix(1 1.732758e-03 -1.732758e-03 1 0.9116 2.433)" class="st0" width="842" height="595"/>
</g>
<path class="st2" d="M-1561.4,509.5c-13.4,0-24.2,11.2-24.2,24.9c0,13.7,10.9,24.9,24.2,24.9s24.2-11.2,24.2-24.9
	C-1537.2,520.7-1548.1,509.5-1561.4,509.5z M-1561.4,550.3c-8.4,0-15.2-7.1-15.2-15.9c0-8.8,6.8-15.9,15.2-15.9
	c8.4,0,15.2,7.1,15.2,15.9C-1546.2,543.1-1553,550.3-1561.4,550.3z"/>
<path class="st2" d="M-1252.5,509.5c-12.4,0-22.5,10.4-22.5,23.1v22.2c0,2.5,2,4.5,4.5,4.5s4.5-2,4.5-4.5v-22.2
	c0-7.8,6.1-14.1,13.5-14.1s13.5,6.3,13.5,14.1v22.2c0,2.5,2,4.5,4.5,4.5s4.5-2,4.5-4.5v-22.2C-1230,519.9-1240.1,509.5-1252.5,509.5
	z"/>
<path class="st2" d="M-1480.1,509.5c-5.8,0-11,2.7-14.5,6.9c-3.5-4.2-8.7-6.9-14.5-6.9c-10.5,0-19,8.8-19,19.5v25.8
	c0,2.5,2,4.5,4.5,4.5s4.5-2,4.5-4.5V529c0-5.8,4.5-10.5,10-10.5s10,4.7,10,10.5v24.8v1c0,2.5,2,4.5,4.5,4.5s4.5-2,4.5-4.5v-1V529
	c0-5.8,4.5-10.5,10-10.5c5.5,0,10,4.7,10,10.5v25.8c0,2.5,2,4.5,4.5,4.5s4.5-2,4.5-4.5V529C-1461.1,518.2-1469.6,509.5-1480.1,509.5
	z"/>
<path class="st2" d="M-1172.4,500.1c0-2.5-2-4.5-4.5-4.5s-4.5,2-4.5,4.5v14.9c-4.1-3.4-9.2-5.4-14.8-5.4
	c-13.1,0-23.8,11.2-23.8,24.9c0,13.7,10.7,24.9,23.8,24.9c13.1,0,23.8-11.2,23.8-24.9c0-0.5,0-0.9,0-1.4c0-0.1,0-0.2,0-0.4V500.1z
	 M-1196.3,550.3c-8.2,0-14.8-7.1-14.8-15.9s6.7-15.9,14.8-15.9c8.2,0,14.8,7.1,14.8,15.9S-1188.1,550.3-1196.3,550.3z"/>
<path class="st2" d="M-1377.8,519.9c2.3,0,4.1-1.8,4.1-4.1s-1.8-4.1-4.1-4.1h-10.5v-11.6c0-2.5-2-4.5-4.5-4.5s-4.5,2-4.5,4.5V531
	c0,9.2,0,28.4,18.9,28.4c2.5,0,4.5-2,4.5-4.5s-2-4.5-4.5-4.5c-7.6,0-9.9-4.5-9.9-19.4v-11.1H-1377.8z"/>
<path class="st2" d="M-1428.8,509.5c-13.5,0-23,10.1-23,24.5h0c0,0,0,0.1,0,0.1c0,4.3,1.1,9.2,3,12.8c3.1,6.2,9.1,10.5,16.3,12
	c1.7,0.3,3.4,0.5,5.1,0.5c6.1,0,11.9-1.7,16.4-5.5c1.9-1.6,2.1-4.5,0.5-6.3c-1.6-1.9-4.5-2.1-6.3-0.5c-3.6,3.1-8.8,4-13.8,3
	c-4.5-0.9-8.2-3.5-10-7.2c-0.7-1.3-1.2-3-1.6-4.8h32.1c2.3,0,4.1-1.8,4.1-4.1h0C-1406.2,519.6-1415.5,509.5-1428.8,509.5z
	 M-1428.8,518.5c5.5,0,11.7,3.1,13.3,11.4h-26.9C-1441.1,522.9-1436,518.5-1428.8,518.5z"/>
<path class="st2" d="M-1306.7,509.5c-13.5,0-23,10.1-23,24.5h0c0,0,0,0.1,0,0.1c0,4.3,1.1,9.2,3,12.8c3.1,6.2,9.1,10.5,16.3,12
	c1.7,0.3,3.4,0.5,5.1,0.5c6.1,0,11.9-1.7,16.4-5.5c1.9-1.6,2.1-4.5,0.5-6.3c-1.6-1.9-4.5-2.1-6.3-0.5c-3.6,3.1-8.8,4-13.8,3
	c-4.5-0.9-8.2-3.5-10-7.2c-0.7-1.3-1.2-3-1.6-4.8h32.1c2.3,0,4.1-1.8,4.1-4.1h0C-1284.1,519.6-1293.4,509.5-1306.7,509.5z
	 M-1306.7,518.5c5.5,0,11.7,3.1,13.3,11.4h-26.9C-1318.9,522.9-1313.9,518.5-1306.7,518.5z"/>
<path class="st2" d="M-1337.7,509.7c-0.4-0.1-10.9-1.2-18.6,5.5c-4.9,4.3-7.4,10.5-7.6,18.7v20.9c0,2.5,2,4.5,4.5,4.5s4.5-2,4.5-4.5
	l0-20.8c0.1-5.4,1.6-9.5,4.5-12c4.6-4.1,11.6-3.4,11.7-3.4c2.5,0.3,4.7-1.5,5-4C-1333.5,512.2-1335.2,510-1337.7,509.7z"/>
<path class="st2" d="M-1617.7,523.7c-0.8-0.2-1.5-0.3-2.2-0.5c-5.1-1.1-9.9-2.7-10.8-6.2c-0.7-2.6,0.8-4.5,2.4-5.8
	c3-2.5,7.5-3,10.8-3c5.4,0,10.6,2.4,14.2,6.6c1.6,1.9,4.5,2.1,6.3,0.5c1.9-1.6,2.1-4.5,0.5-6.3c-5.3-6.2-13-9.7-21-9.7
	c-6.8,0-12.5,1.8-16.5,5.1c-4.7,3.9-6.7,9.6-5.3,14.9c2.4,9.3,13,11.7,17.6,12.8c0.7,0.2,1.5,0.3,2.3,0.5
	c10.5,2.2,15.9,4.4,15.9,9.8c0,1.4-0.5,2.8-1.4,4c-5.1,6.2-16.9,4.5-23.6,1.3c-2.4-1.1-4.2-2.3-5.7-3.8c-1.8-1.7-4.6-1.7-6.4,0.1
	c-1.7,1.8-1.7,4.6,0.1,6.4c2.2,2.2,4.9,4,8.2,5.5c5,2.4,10.9,3.7,16.4,3.7c0.3,0,0.6,0,0.8,0c7.2-0.2,13-2.6,16.9-7.1
	c0,0,0.1-0.1,0.1-0.1c2.4-2.8,3.6-6.3,3.6-9.9C-1594.6,528.6-1609.1,525.5-1617.7,523.7z"/>
<g>
	
		<rect x="-933.8" y="229.8" transform="matrix(1 1.732758e-03 -1.732758e-03 1 0.9129 0.8895)" class="st0" width="842" height="595"/>
</g>
<path class="st3" d="M-670.6,509.5c-13.4,0-24.2,11.2-24.2,24.9c0,13.7,10.9,24.9,24.2,24.9s24.2-11.2,24.2-24.9
	C-646.4,520.7-657.3,509.5-670.6,509.5z M-670.6,550.3c-8.4,0-15.2-7.1-15.2-15.9c0-8.8,6.8-15.9,15.2-15.9
	c8.4,0,15.2,7.1,15.2,15.9C-655.4,543.1-662.2,550.3-670.6,550.3z"/>
<path class="st2" d="M-361.7,509.5c-12.4,0-22.5,10.4-22.5,23.1v22.2c0,2.5,2,4.5,4.5,4.5s4.5-2,4.5-4.5v-22.2
	c0-7.8,6.1-14.1,13.5-14.1s13.5,6.3,13.5,14.1v22.2c0,2.5,2,4.5,4.5,4.5s4.5-2,4.5-4.5v-22.2C-339.2,519.9-349.3,509.5-361.7,509.5z
	"/>
<path class="st3" d="M-589.3,509.5c-5.8,0-11,2.7-14.5,6.9c-3.5-4.2-8.7-6.9-14.5-6.9c-10.5,0-19,8.8-19,19.5v25.8
	c0,2.5,2,4.5,4.5,4.5s4.5-2,4.5-4.5V529c0-5.8,4.5-10.5,10-10.5s10,4.7,10,10.5v24.8v1c0,2.5,2,4.5,4.5,4.5s4.5-2,4.5-4.5v-1V529
	c0-5.8,4.5-10.5,10-10.5c5.5,0,10,4.7,10,10.5v25.8c0,2.5,2,4.5,4.5,4.5s4.5-2,4.5-4.5V529C-570.3,518.2-578.8,509.5-589.3,509.5z"
	/>
<path class="st2" d="M-282.6,500.1c0-2.5-2-4.5-4.5-4.5s-4.5,2-4.5,4.5v14.9c-4.1-3.4-9.2-5.4-14.8-5.4c-13.1,0-23.8,11.2-23.8,24.9
	c0,13.7,10.7,24.9,23.8,24.9c13.1,0,23.8-11.2,23.8-24.9c0-0.5,0-0.9,0-1.4c0-0.1,0-0.2,0-0.4V500.1z M-306.5,550.3
	c-8.2,0-14.8-7.1-14.8-15.9s6.7-15.9,14.8-15.9c8.2,0,14.8,7.1,14.8,15.9S-298.3,550.3-306.5,550.3z"/>
<path class="st2" d="M-487,519.9c2.3,0,4.1-1.8,4.1-4.1s-1.8-4.1-4.1-4.1h-10.5v-11.6c0-2.5-2-4.5-4.5-4.5s-4.5,2-4.5,4.5V531
	c0,9.2,0,28.4,18.9,28.4c2.5,0,4.5-2,4.5-4.5s-2-4.5-4.5-4.5c-7.6,0-9.9-4.5-9.9-19.4v-11.1H-487z"/>
<path class="st3" d="M-538.1,509.5c-13.5,0-23,10.1-23,24.5h0c0,0,0,0.1,0,0.1c0,4.3,1.1,9.2,3,12.8c3.1,6.2,9.1,10.5,16.3,12
	c1.7,0.3,3.4,0.5,5.1,0.5c6.1,0,11.9-1.7,16.4-5.5c1.9-1.6,2.1-4.5,0.5-6.3c-1.6-1.9-4.5-2.1-6.3-0.5c-3.6,3.1-8.8,4-13.8,3
	c-4.5-0.9-8.2-3.5-10-7.2c-0.7-1.3-1.2-3-1.6-4.8h32.1c2.3,0,4.1-1.8,4.1-4.1h0C-515.4,519.6-524.7,509.5-538.1,509.5z
	 M-538.1,518.5c5.5,0,11.7,3.1,13.3,11.4h-26.9C-550.3,522.9-545.2,518.5-538.1,518.5z"/>
<path class="st2" d="M-415.9,509.5c-13.5,0-23,10.1-23,24.5h0c0,0,0,0.1,0,0.1c0,4.3,1.1,9.2,3,12.8c3.1,6.2,9.1,10.5,16.3,12
	c1.7,0.3,3.4,0.5,5.1,0.5c6.1,0,11.9-1.7,16.4-5.5c1.9-1.6,2.1-4.5,0.5-6.3c-1.6-1.9-4.5-2.1-6.3-0.5c-3.6,3.1-8.8,4-13.8,3
	c-4.5-0.9-8.2-3.5-10-7.2c-0.7-1.3-1.2-3-1.6-4.8h32.1c2.3,0,4.1-1.8,4.1-4.1h0C-393.3,519.6-402.6,509.5-415.9,509.5z
	 M-415.9,518.5c5.5,0,11.7,3.1,13.3,11.4h-26.9C-428.1,522.9-423.1,518.5-415.9,518.5z"/>
<path class="st2" d="M-446.9,509.7c-0.4-0.1-10.9-1.2-18.6,5.5c-4.9,4.3-7.4,10.5-7.6,18.7v20.9c0,2.5,2,4.5,4.5,4.5s4.5-2,4.5-4.5
	l0-20.8c0.1-5.4,1.6-9.5,4.5-12c4.6-4.1,11.6-3.4,11.7-3.4c2.5,0.3,4.7-1.5,5-4C-442.7,512.2-444.5,510-446.9,509.7z"/>
<path class="st3" d="M-726.9,523.7c-0.8-0.2-1.5-0.3-2.2-0.5c-5.1-1.1-9.9-2.7-10.8-6.2c-0.7-2.6,0.8-4.5,2.4-5.8
	c3-2.5,7.5-3,10.8-3c5.4,0,10.6,2.4,14.2,6.6c1.6,1.9,4.5,2.1,6.3,0.5c1.9-1.6,2.1-4.5,0.5-6.3c-5.3-6.2-13-9.7-21-9.7
	c-6.8,0-12.5,1.8-16.5,5.1c-4.7,3.9-6.7,9.6-5.3,14.9c2.4,9.3,13,11.7,17.6,12.8c0.7,0.2,1.5,0.3,2.3,0.5
	c10.5,2.2,15.9,4.4,15.9,9.8c0,1.4-0.5,2.8-1.4,4c-5.1,6.2-16.9,4.5-23.6,1.3c-2.4-1.1-4.2-2.3-5.7-3.8c-1.8-1.7-4.6-1.7-6.4,0.1
	c-1.7,1.8-1.7,4.6,0.1,6.4c2.2,2.2,4.9,4,8.2,5.5c5,2.4,10.9,3.7,16.4,3.7c0.3,0,0.6,0,0.8,0c7.2-0.2,13-2.6,16.9-7.1
	c0,0,0.1-0.1,0.1-0.1c2.4-2.8,3.6-6.3,3.6-9.9C-703.9,528.6-718.3,525.5-726.9,523.7z"/>
<path class="st3" d="M224.1,509.5c-13.4,0-24.2,11.2-24.2,24.9c0,13.7,10.9,24.9,24.2,24.9s24.2-11.2,24.2-24.9
	C248.3,520.7,237.4,509.5,224.1,509.5z M224.1,550.3c-8.4,0-15.2-7.1-15.2-15.9c0-8.8,6.8-15.9,15.2-15.9c8.4,0,15.2,7.1,15.2,15.9
	C239.3,543.1,232.5,550.3,224.1,550.3z"/>
<path class="st4" d="M532.9,509.5c-12.4,0-22.5,10.4-22.5,23.1v22.2c0,2.5,2,4.5,4.5,4.5s4.5-2,4.5-4.5v-22.2
	c0-7.8,6.1-14.1,13.5-14.1s13.5,6.3,13.5,14.1v22.2c0,2.5,2,4.5,4.5,4.5s4.5-2,4.5-4.5v-22.2C555.5,519.9,545.4,509.5,532.9,509.5z"
	/>
<path class="st3" d="M305.4,509.5c-5.8,0-11,2.7-14.5,6.9c-3.5-4.2-8.7-6.9-14.5-6.9c-10.5,0-19,8.8-19,19.5v25.8
	c0,2.5,2,4.5,4.5,4.5s4.5-2,4.5-4.5V529c0-5.8,4.5-10.5,10-10.5s10,4.7,10,10.5v24.8v1c0,2.5,2,4.5,4.5,4.5s4.5-2,4.5-4.5v-1V529
	c0-5.8,4.5-10.5,10-10.5c5.5,0,10,4.7,10,10.5v25.8c0,2.5,2,4.5,4.5,4.5s4.5-2,4.5-4.5V529C324.4,518.2,315.9,509.5,305.4,509.5z"/>
<path class="st4" d="M612.1,500.1c0-2.5-2-4.5-4.5-4.5s-4.5,2-4.5,4.5v14.9c-4.1-3.4-9.2-5.4-14.8-5.4c-13.1,0-23.8,11.2-23.8,24.9
	c0,13.7,10.7,24.9,23.8,24.9c13.1,0,23.8-11.2,23.8-24.9c0-0.5,0-0.9,0-1.4c0-0.1,0-0.2,0-0.4V500.1z M588.2,550.3
	c-8.2,0-14.8-7.1-14.8-15.9s6.7-15.9,14.8-15.9c8.2,0,14.8,7.1,14.8,15.9S596.4,550.3,588.2,550.3z"/>
<path class="st4" d="M407.7,519.9c2.3,0,4.1-1.8,4.1-4.1s-1.8-4.1-4.1-4.1h-10.5v-11.6c0-2.5-2-4.5-4.5-4.5s-4.5,2-4.5,4.5V531
	c0,9.2,0,28.4,18.9,28.4c2.5,0,4.5-2,4.5-4.5s-2-4.5-4.5-4.5c-7.6,0-9.9-4.5-9.9-19.4v-11.1H407.7z"/>
<path class="st3" d="M356.6,509.5c-13.5,0-23,10.1-23,24.5h0c0,0,0,0.1,0,0.1c0,4.3,1.1,9.2,3,12.8c3.1,6.2,9.1,10.5,16.3,12
	c1.7,0.3,3.4,0.5,5.1,0.5c6.1,0,11.9-1.7,16.4-5.5c1.9-1.6,2.1-4.5,0.5-6.3c-1.6-1.9-4.5-2.1-6.3-0.5c-3.6,3.1-8.8,4-13.8,3
	c-4.5-0.9-8.2-3.5-10-7.2c-0.7-1.3-1.2-3-1.6-4.8h32.1c2.3,0,4.1-1.8,4.1-4.1h0C379.3,519.6,370,509.5,356.6,509.5z M356.6,518.5
	c5.5,0,11.7,3.1,13.3,11.4H343C344.4,522.9,349.5,518.5,356.6,518.5z"/>
<path class="st4" d="M478.8,509.5c-13.5,0-23,10.1-23,24.5h0c0,0,0,0.1,0,0.1c0,4.3,1.1,9.2,3,12.8c3.1,6.2,9.1,10.5,16.3,12
	c1.7,0.3,3.4,0.5,5.1,0.5c6.1,0,11.9-1.7,16.4-5.5c1.9-1.6,2.1-4.5,0.5-6.3c-1.6-1.9-4.5-2.1-6.3-0.5c-3.6,3.1-8.8,4-13.8,3
	c-4.5-0.9-8.2-3.5-10-7.2c-0.7-1.3-1.2-3-1.6-4.8h32.1c2.3,0,4.1-1.8,4.1-4.1h0C501.4,519.6,492.1,509.5,478.8,509.5z M478.8,518.5
	c5.5,0,11.7,3.1,13.3,11.4h-26.9C466.6,522.9,471.6,518.5,478.8,518.5z"/>
<path class="st4" d="M447.8,509.7c-0.4-0.1-10.9-1.2-18.6,5.5c-4.9,4.3-7.4,10.5-7.6,18.7v20.9c0,2.5,2,4.5,4.5,4.5s4.5-2,4.5-4.5
	l0-20.8c0.1-5.4,1.6-9.5,4.5-12c4.6-4.1,11.6-3.4,11.7-3.4c2.5,0.3,4.7-1.5,5-4C452,512.2,450.2,510,447.8,509.7z"/>
<path class="st3" d="M167.8,523.7c-0.8-0.2-1.5-0.3-2.2-0.5c-5.1-1.1-9.9-2.7-10.8-6.2c-0.7-2.6,0.8-4.5,2.4-5.8c3-2.5,7.5-3,10.8-3
	c5.4,0,10.6,2.4,14.2,6.6c1.6,1.9,4.5,2.1,6.3,0.5c1.9-1.6,2.1-4.5,0.5-6.3c-5.3-6.2-13-9.7-21-9.7c-6.8,0-12.5,1.8-16.5,5.1
	c-4.7,3.9-6.7,9.6-5.3,14.9c2.4,9.3,13,11.7,17.6,12.8c0.7,0.2,1.5,0.3,2.3,0.5c10.5,2.2,15.9,4.4,15.9,9.8c0,1.4-0.5,2.8-1.4,4
	c-5.1,6.2-16.9,4.5-23.6,1.3c-2.4-1.1-4.2-2.3-5.7-3.8c-1.8-1.7-4.6-1.7-6.4,0.1c-1.7,1.8-1.7,4.6,0.1,6.4c2.2,2.2,4.9,4,8.2,5.5
	c5,2.4,10.9,3.7,16.4,3.7c0.3,0,0.6,0,0.8,0c7.2-0.2,13-2.6,16.9-7.1c0,0,0.1-0.1,0.1-0.1c2.4-2.8,3.6-6.3,3.6-9.9
	C190.8,528.6,176.4,525.5,167.8,523.7z"/>
<path class="st2" d="M33.5,6.4c-5.4,0-9.8,4.5-9.8,10c0,5.5,4.4,10,9.8,10s9.8-4.5,9.8-10C43.3,10.9,38.9,6.4,33.5,6.4z M33.5,22.8
	c-3.4,0-6.1-2.9-6.1-6.4c0-3.5,2.8-6.4,6.1-6.4c3.4,0,6.1,2.9,6.1,6.4C39.6,20,36.9,22.8,33.5,22.8z"/>
<path class="st2" d="M158,6.4c-5,0-9.1,4.2-9.1,9.3v8.9c0,1,0.8,1.8,1.8,1.8c1,0,1.8-0.8,1.8-1.8v-8.9c0-3.1,2.4-5.7,5.4-5.7
	s5.4,2.5,5.4,5.7v8.9c0,1,0.8,1.8,1.8,1.8c1,0,1.8-0.8,1.8-1.8v-8.9C167,10.6,163,6.4,158,6.4z"/>
<path class="st2" d="M66.3,6.4c-2.3,0-4.4,1.1-5.9,2.8c-1.4-1.7-3.5-2.8-5.9-2.8c-4.2,0-7.7,3.5-7.7,7.9v10.4c0,1,0.8,1.8,1.8,1.8
	c1,0,1.8-0.8,1.8-1.8V14.3c0-2.3,1.8-4.2,4-4.2s4,1.9,4,4.2v10v0.4c0,1,0.8,1.8,1.8,1.8c1,0,1.8-0.8,1.8-1.8v-0.4v-10
	c0-2.3,1.8-4.2,4-4.2c2.2,0,4,1.9,4,4.2v10.4c0,1,0.8,1.8,1.8,1.8c1,0,1.8-0.8,1.8-1.8V14.3C73.9,9.9,70.5,6.4,66.3,6.4z"/>
<path class="st2" d="M189.8,2.6c0-1-0.8-1.8-1.8-1.8s-1.8,0.8-1.8,1.8v6c-1.6-1.4-3.7-2.2-6-2.2c-5.3,0-9.6,4.5-9.6,10
	c0,5.5,4.3,10,9.6,10c5.3,0,9.6-4.5,9.6-10c0-0.2,0-0.4,0-0.6c0-0.1,0-0.1,0-0.1V2.6z M180.2,22.8c-3.3,0-6-2.9-6-6.4s2.7-6.4,6-6.4
	c3.3,0,6,2.9,6,6.4S183.5,22.8,180.2,22.8z"/>
<path class="st2" d="M107.5,10.6c0.9,0,1.7-0.7,1.7-1.7c0-0.9-0.7-1.7-1.7-1.7h-4.2V2.7c0-1-0.8-1.8-1.8-1.8c-1,0-1.8,0.8-1.8,1.8
	v12.4c0,3.7,0,11.4,7.6,11.4c1,0,1.8-0.8,1.8-1.8s-0.8-1.8-1.8-1.8c-3,0-4-1.8-4-7.8v-4.5H107.5z"/>
<path class="st2" d="M86.9,6.4c-5.5,0-9.3,4.1-9.3,9.9h0c0,0,0,0,0,0.1c0,1.7,0.5,3.7,1.2,5.2c1.3,2.5,3.7,4.2,6.6,4.8
	c0.7,0.1,1.4,0.2,2.1,0.2c2.4,0,4.8-0.7,6.6-2.2c0.8-0.7,0.8-1.8,0.2-2.6c-0.7-0.8-1.8-0.8-2.6-0.2c-1.5,1.3-3.5,1.6-5.6,1.2
	c-1.8-0.4-3.3-1.4-4-2.9c-0.3-0.5-0.5-1.2-0.6-1.9h12.9c0.9,0,1.7-0.7,1.7-1.7h0C96,10.5,92.3,6.4,86.9,6.4z M86.9,10
	c2.2,0,4.7,1.2,5.3,4.6H81.4C82,11.8,84,10,86.9,10z"/>
<path class="st2" d="M136.1,6.4c-5.5,0-9.3,4.1-9.3,9.9h0c0,0,0,0,0,0.1c0,1.7,0.5,3.7,1.2,5.2c1.3,2.5,3.7,4.2,6.6,4.8
	c0.7,0.1,1.4,0.2,2.1,0.2c2.4,0,4.8-0.7,6.6-2.2c0.8-0.7,0.8-1.8,0.2-2.6c-0.7-0.8-1.8-0.8-2.6-0.2c-1.5,1.3-3.5,1.6-5.6,1.2
	c-1.8-0.4-3.3-1.4-4-2.9c-0.3-0.5-0.5-1.2-0.6-1.9h12.9c0.9,0,1.7-0.7,1.7-1.7h0C145.3,10.5,141.5,6.4,136.1,6.4z M136.1,10
	c2.2,0,4.7,1.2,5.3,4.6h-10.8C131.2,11.8,133.2,10,136.1,10z"/>
<path class="st2" d="M123.6,6.5c-0.2,0-4.4-0.5-7.5,2.2c-2,1.7-3,4.2-3.1,7.5v8.4c0,1,0.8,1.8,1.8,1.8s1.8-0.8,1.8-1.8l0-8.4
	c0-2.2,0.6-3.8,1.8-4.8c1.9-1.6,4.7-1.4,4.7-1.4c1,0.1,1.9-0.6,2-1.6C125.3,7.5,124.6,6.6,123.6,6.5z"/>
<path class="st2" d="M10.8,12.1c-0.3-0.1-0.6-0.1-0.9-0.2c-2-0.5-4-1.1-4.4-2.5C5.3,8.4,5.9,7.6,6.5,7.1c1.2-1,3-1.2,4.3-1.2
	c2.2,0,4.3,1,5.7,2.7c0.7,0.8,1.8,0.8,2.6,0.2c0.8-0.7,0.8-1.8,0.2-2.6c-2.1-2.5-5.2-3.9-8.5-3.9c-2.7,0-5,0.7-6.6,2
	c-1.9,1.6-2.7,3.9-2.1,6c1,3.8,5.2,4.7,7.1,5.1c0.3,0.1,0.6,0.1,0.9,0.2c4.2,0.9,6.4,1.8,6.4,3.9c0,0.6-0.2,1.1-0.6,1.6
	c-2.1,2.5-6.8,1.8-9.5,0.5c-1-0.5-1.7-0.9-2.3-1.5c-0.7-0.7-1.9-0.7-2.6,0c-0.7,0.7-0.7,1.9,0,2.6c0.9,0.9,2,1.6,3.3,2.2
	c2,0.9,4.4,1.5,6.6,1.5c0.1,0,0.2,0,0.3,0c2.9-0.1,5.2-1.1,6.8-2.9c0,0,0,0,0-0.1c0.9-1.1,1.5-2.5,1.5-4
	C20.1,14.1,14.3,12.9,10.8,12.1z"/>
<rect x="-838" y="1104.7" class="st5" width="338.2" height="217.7"/>
<g>
	<g>
		<path class="st4" d="M-705.6,1168.9c-2.8,0-5,2.3-5,5.1c0,2.8,2.2,5.1,5,5.1s5-2.3,5-5.1C-700.6,1171.2-702.9,1168.9-705.6,1168.9
			z M-705.6,1177.3c-1.7,0-3.1-1.5-3.1-3.3c0-1.8,1.4-3.3,3.1-3.3c1.7,0,3.1,1.5,3.1,3.3C-702.5,1175.9-703.9,1177.3-705.6,1177.3z"
			/>
	</g>
	<g>
		<path class="st4" d="M-640.7,1168.9c-2.6,0-4.6,2.1-4.6,4.8v4.6c0,0.5,0.4,0.9,0.9,0.9s0.9-0.4,0.9-0.9v-4.6
			c0-1.6,1.2-2.9,2.8-2.9c1.5,0,2.8,1.3,2.8,2.9v4.6c0,0.5,0.4,0.9,0.9,0.9s0.9-0.4,0.9-0.9v-4.6
			C-636,1171.1-638.1,1168.9-640.7,1168.9z"/>
	</g>
	<g>
		<path class="st4" d="M-688.6,1168.9c-1.2,0-2.3,0.6-3,1.4c-0.7-0.9-1.8-1.4-3-1.4c-2.2,0-3.9,1.8-3.9,4v5.3c0,0.5,0.4,0.9,0.9,0.9
			s0.9-0.4,0.9-0.9v-5.3c0-1.2,0.9-2.2,2.1-2.2c1.1,0,2.1,1,2.1,2.2v5.1v0.2c0,0.5,0.4,0.9,0.9,0.9s0.9-0.4,0.9-0.9v-0.2v-5.1
			c0-1.2,0.9-2.2,2.1-2.2c1.1,0,2.1,1,2.1,2.2v5.3c0,0.5,0.4,0.9,0.9,0.9s0.9-0.4,0.9-0.9v-5.3
			C-684.7,1170.7-686.5,1168.9-688.6,1168.9z"/>
	</g>
	<g>
		<path class="st4" d="M-624.2,1167c0-0.5-0.4-0.9-0.9-0.9s-0.9,0.4-0.9,0.9v3.1c-0.8-0.7-1.9-1.1-3.1-1.1c-2.7,0-4.9,2.3-4.9,5.1
			c0,2.8,2.2,5.1,4.9,5.1c2.7,0,4.9-2.3,4.9-5.1c0-0.1,0-0.2,0-0.3c0,0,0-0.1,0-0.1V1167z M-629.1,1177.3c-1.7,0-3.1-1.5-3.1-3.3
			s1.4-3.3,3.1-3.3c1.7,0,3.1,1.5,3.1,3.3S-627.4,1177.3-629.1,1177.3z"/>
	</g>
	<g>
		<path class="st4" d="M-667.1,1171.1c0.5,0,0.8-0.4,0.8-0.8c0-0.5-0.4-0.8-0.8-0.8h-2.2v-2.4c0-0.5-0.4-0.9-0.9-0.9
			s-0.9,0.4-0.9,0.9v6.4c0,1.9,0,5.9,3.9,5.9c0.5,0,0.9-0.4,0.9-0.9c0-0.5-0.4-0.9-0.9-0.9c-1.6,0-2-0.9-2-4v-2.3H-667.1z"/>
	</g>
	<g>
		<path class="st4" d="M-677.9,1168.9c-2.8,0-4.7,2.1-4.7,5.1h0c0,0,0,0,0,0c0,0.9,0.2,1.9,0.6,2.6c0.6,1.3,1.9,2.2,3.4,2.5
			c0.3,0.1,0.7,0.1,1.1,0.1c1.2,0,2.5-0.3,3.4-1.1c0.4-0.3,0.4-0.9,0.1-1.3c-0.3-0.4-0.9-0.4-1.3-0.1c-0.7,0.6-1.8,0.8-2.9,0.6
			c-0.9-0.2-1.7-0.7-2.1-1.5c-0.1-0.3-0.2-0.6-0.3-1h6.6c0.5,0,0.8-0.4,0.8-0.8h0C-673.2,1171-675.1,1168.9-677.9,1168.9z
			 M-677.9,1170.8c1.1,0,2.4,0.6,2.7,2.4h-5.5C-680.4,1171.7-679.4,1170.8-677.9,1170.8z"/>
	</g>
	<g>
		<path class="st4" d="M-652.1,1168.9c-2.8,0-4.7,2.1-4.7,5.1h0c0,0,0,0,0,0c0,0.9,0.2,1.9,0.6,2.6c0.6,1.3,1.9,2.2,3.4,2.5
			c0.3,0.1,0.7,0.1,1.1,0.1c1.2,0,2.5-0.3,3.4-1.1c0.4-0.3,0.4-0.9,0.1-1.3c-0.3-0.4-0.9-0.4-1.3-0.1c-0.7,0.6-1.8,0.8-2.9,0.6
			c-0.9-0.2-1.7-0.7-2.1-1.5c-0.1-0.3-0.2-0.6-0.3-1h6.6c0.5,0,0.8-0.4,0.8-0.8h0C-647.4,1171-649.3,1168.9-652.1,1168.9z
			 M-652.1,1170.8c1.1,0,2.4,0.6,2.7,2.4h-5.5C-654.6,1171.7-653.5,1170.8-652.1,1170.8z"/>
	</g>
	<g>
		<path class="st4" d="M-658.7,1169c-0.1,0-2.3-0.2-3.8,1.1c-1,0.9-1.5,2.2-1.6,3.9v4.3c0,0.5,0.4,0.9,0.9,0.9s0.9-0.4,0.9-0.9
			l0-4.3c0-1.1,0.3-2,0.9-2.5c1-0.8,2.4-0.7,2.4-0.7c0.5,0.1,1-0.3,1-0.8C-657.8,1169.5-658.2,1169-658.7,1169z"/>
	</g>
	<g>
		<path class="st4" d="M-717.4,1171.8c-0.2,0-0.3-0.1-0.5-0.1c-1-0.2-2-0.6-2.2-1.3c-0.1-0.5,0.2-0.9,0.5-1.2
			c0.6-0.5,1.5-0.6,2.2-0.6c1.1,0,2.2,0.5,2.9,1.4c0.3,0.4,0.9,0.4,1.3,0.1c0.4-0.3,0.4-0.9,0.1-1.3c-1.1-1.3-2.7-2-4.3-2
			c-1.4,0-2.6,0.4-3.4,1c-1,0.8-1.4,2-1.1,3.1c0.5,1.9,2.7,2.4,3.6,2.6c0.2,0,0.3,0.1,0.5,0.1c2.2,0.5,3.3,0.9,3.3,2
			c0,0.3-0.1,0.6-0.3,0.8c-1.1,1.3-3.5,0.9-4.9,0.3c-0.5-0.2-0.9-0.5-1.2-0.8c-0.4-0.4-1-0.3-1.3,0c-0.4,0.4-0.3,1,0,1.3
			c0.5,0.4,1,0.8,1.7,1.1c1,0.5,2.3,0.8,3.4,0.8c0.1,0,0.1,0,0.2,0c1.5,0,2.7-0.5,3.5-1.5c0,0,0,0,0,0c0.5-0.6,0.8-1.3,0.8-2
			C-712.7,1172.8-715.7,1172.2-717.4,1171.8z"/>
	</g>
	<g>
		<path class="st6" d="M-718.5,1249c-1.1,0-2-0.4-2.7-1.1c-0.7-0.7-1.1-1.6-1.1-2.7v-49.6c0-1.1,0.4-2,1.1-2.7
			c0.7-0.7,1.6-1.1,2.7-1.1h17.5c3.3,0,6.2,0.6,8.7,1.9c2.5,1.3,4.5,3.1,5.9,5.4c1.4,2.3,2.2,4.9,2.2,7.9c0,2.4-0.6,4.6-1.9,6.5
			c-1.3,1.9-3.1,3.5-5.3,4.6c3.2,0.8,5.8,2.3,7.8,4.6c2,2.3,2.9,5.3,2.9,9c0,3.4-0.8,6.3-2.4,8.9c-1.6,2.6-3.8,4.6-6.6,6.1
			c-2.8,1.5-6.1,2.2-9.7,2.2H-718.5z M-714.7,1215.3h13.7c2.8,0,5.1-0.7,6.8-2c1.8-1.4,2.7-3.4,2.7-6.2c0-2.8-0.9-4.8-2.7-6.2
			c-1.8-1.3-4.1-2-6.8-2h-13.7V1215.3z M-714.7,1242h15.2c2.2,0,4.2-0.4,5.9-1.2c1.7-0.8,3-1.9,4-3.4c1-1.5,1.5-3.4,1.5-5.6
			c0-2.1-0.5-3.8-1.5-5.2c-1-1.4-2.3-2.4-4-3.1c-1.7-0.7-3.7-1.1-5.9-1.1h-15.2V1242z"/>
		<path class="st6" d="M-668.6,1202.4c-1.3,0-2.5-0.5-3.4-1.4c-1-1-1.4-2.1-1.4-3.4c0-1.3,0.5-2.5,1.4-3.4c1-1,2.1-1.4,3.4-1.4
			c1.3,0,2.5,0.5,3.4,1.4c1,1,1.4,2.1,1.4,3.4c0,1.3-0.5,2.5-1.4,3.4C-666.1,1202-667.3,1202.4-668.6,1202.4z M-668.6,1249
			c-1.1,0-2-0.4-2.7-1.1c-0.7-0.7-1.1-1.6-1.1-2.7v-32.6c0-1.1,0.4-2,1.1-2.7c0.7-0.7,1.6-1,2.7-1c1.1,0,2,0.3,2.7,1
			c0.7,0.7,1,1.6,1,2.7v32.6c0,1.1-0.3,2-1,2.7C-666.6,1248.7-667.5,1249-668.6,1249z"/>
		<path class="st6" d="M-653,1215.8c-2.3,0-3.4-1.1-3.4-3.4c0-2.3,1.1-3.4,3.4-3.4h25c2.3,0,3.4,1.1,3.4,3.4c0,2.3-1.1,3.4-3.4,3.4
			H-653z M-652.3,1249c-2.3,0-3.4-1.1-3.4-3.4s1.1-3.4,3.4-3.4h25c2.3,0,3.4,1.1,3.4,3.4s-1.1,3.4-3.4,3.4H-652.3z M-650.1,1247.6
			l-5-4.4l24.9-32.9l4.9,4.4L-650.1,1247.6z"/>
	</g>
</g>
<rect x="-482.2" y="1104.7" class="st5" width="338.2" height="217.7"/>
<g>
	<path class="st6" d="M-248.8,1218.5c0.8-0.5,1.5-1.2,2-1.9c0.6-1,1-2.1,1-3.2c0-1.5-0.4-2.8-1.1-3.9c-0.7-1.1-1.7-2-2.9-2.7
		c-1.2-0.6-2.7-1-4.3-1h-8.3c-0.6,0-1.1,0.2-1.5,0.6c-0.4,0.4-0.6,0.9-0.6,1.5v23.6c0,0.6,0.2,1.1,0.6,1.5c0.4,0.4,0.9,0.6,1.5,0.6
		h9.1c1.8,0,3.4-0.4,4.8-1.1c1.4-0.7,2.5-1.7,3.3-3c0.8-1.3,1.2-2.8,1.2-4.4c0-1.8-0.5-3.3-1.5-4.5
		C-246.4,1219.7-247.5,1219-248.8,1218.5z M-260.3,1217v-7.2h6.2c1.3,0,2.3,0.3,3.1,0.9c0.8,0.6,1.2,1.5,1.2,2.7
		c0,1.2-0.4,2.1-1.2,2.7c-0.8,0.6-1.8,0.9-3.1,0.9H-260.3z M-250.7,1229.1c-0.8,0.4-1.7,0.5-2.7,0.5h-6.9v-8.7h6.9
		c1,0,1.9,0.2,2.7,0.5c0.8,0.3,1.4,0.8,1.8,1.4c0.4,0.6,0.6,1.4,0.6,2.3c0,1-0.2,1.9-0.6,2.5
		C-249.3,1228.3-249.9,1228.8-250.7,1229.1z"/>
	<path class="st6" d="M-237.6,1206.3c-0.7,0-1.3,0.3-1.8,0.8c-0.5,0.5-0.8,1.1-0.8,1.8c0,0.7,0.3,1.3,0.8,1.8
		c0.5,0.5,1.1,0.8,1.8,0.8s1.3-0.3,1.8-0.8c0.5-0.5,0.8-1.1,0.8-1.8c0-0.7-0.3-1.3-0.8-1.8C-236.3,1206.5-236.9,1206.3-237.6,1206.3
		z"/>
	<path class="st6" d="M-237.6,1214c-0.6,0-1.1,0.2-1.5,0.6c-0.4,0.4-0.6,0.9-0.6,1.5v15.5c0,0.6,0.2,1.1,0.6,1.5
		c0.4,0.4,0.9,0.6,1.5,0.6c0.6,0,1.1-0.2,1.5-0.6c0.4-0.4,0.6-0.9,0.6-1.5V1216c0-0.6-0.2-1.1-0.6-1.5
		C-236.5,1214.2-237,1214-237.6,1214z"/>
	<path class="st6" d="M-217,1229.7h-8.3l9.6-12.8l0,0c0.2-0.3,0.2-0.6,0.2-1.1c0-1.2-0.7-1.9-1.9-1.9h-11.9c-1.2,0-1.9,0.7-1.9,1.9
		s0.7,1.9,1.9,1.9h8.3l-9.7,12.8l0,0c-0.1,0.3-0.2,0.6-0.2,1.1c0,1.2,0.7,1.9,1.9,1.9h11.9c1.2,0,1.9-0.7,1.9-1.9
		S-215.7,1229.7-217,1229.7z"/>
</g>
<g>
	<path class="st4" d="M-384.2,1214.6c-3.8,0-6.9,3.2-6.9,7.1c0,3.9,3.1,7.1,6.9,7.1c3.8,0,6.9-3.2,6.9-7.1
		C-377.3,1217.8-380.4,1214.6-384.2,1214.6z M-384.2,1226.2c-2.4,0-4.3-2-4.3-4.5c0-2.5,1.9-4.5,4.3-4.5c2.4,0,4.3,2,4.3,4.5
		C-379.9,1224.2-381.8,1226.2-384.2,1226.2z"/>
	<path class="st4" d="M-296.7,1214.6c-3.5,0-6.4,2.9-6.4,6.5v6.3c0,0.7,0.6,1.3,1.3,1.3c0.7,0,1.3-0.6,1.3-1.3v-6.3
		c0-2.2,1.7-4,3.8-4s3.8,1.8,3.8,4v6.3c0,0.7,0.6,1.3,1.3,1.3c0.7,0,1.3-0.6,1.3-1.3v-6.3C-290.3,1217.6-293.1,1214.6-296.7,1214.6z
		"/>
	<path class="st4" d="M-361.1,1214.6c-1.7,0-3.1,0.8-4.1,2c-1-1.2-2.5-2-4.1-2c-3,0-5.4,2.5-5.4,5.5v7.3c0,0.7,0.6,1.3,1.3,1.3
		c0.7,0,1.3-0.6,1.3-1.3v-7.3c0-1.6,1.3-3,2.8-3c1.6,0,2.8,1.3,2.8,3v7v0.3c0,0.7,0.6,1.3,1.3,1.3c0.7,0,1.3-0.6,1.3-1.3v-0.3v-7
		c0-1.6,1.3-3,2.8-3c1.6,0,2.8,1.3,2.8,3v7.3c0,0.7,0.6,1.3,1.3,1.3s1.3-0.6,1.3-1.3v-7.3C-355.8,1217.1-358.2,1214.6-361.1,1214.6z
		"/>
	<path class="st4" d="M-274.2,1211.9c0-0.7-0.6-1.3-1.3-1.3c-0.7,0-1.3,0.6-1.3,1.3v4.2c-1.2-1-2.6-1.5-4.2-1.5
		c-3.7,0-6.8,3.2-6.8,7.1c0,3.9,3,7.1,6.8,7.1c3.7,0,6.8-3.2,6.8-7.1c0-0.1,0-0.3,0-0.4c0,0,0-0.1,0-0.1V1211.9z M-281,1226.2
		c-2.3,0-4.2-2-4.2-4.5c0-2.5,1.9-4.5,4.2-4.5c2.3,0,4.2,2,4.2,4.5C-276.8,1224.2-278.7,1226.2-281,1226.2z"/>
	<path class="st4" d="M-332.2,1217.6c0.6,0,1.2-0.5,1.2-1.2s-0.5-1.2-1.2-1.2h-3v-3.3c0-0.7-0.6-1.3-1.3-1.3s-1.3,0.6-1.3,1.3v8.7
		c0,2.6,0,8,5.3,8c0.7,0,1.3-0.6,1.3-1.3c0-0.7-0.6-1.3-1.3-1.3c-2.1,0-2.8-1.3-2.8-5.5v-3.1H-332.2z"/>
	<path class="st4" d="M-346.6,1214.6c-3.8,0-6.5,2.9-6.5,6.9h0c0,0,0,0,0,0c0,1.2,0.3,2.6,0.8,3.6c0.9,1.8,2.6,3,4.6,3.4
		c0.5,0.1,1,0.1,1.4,0.1c1.7,0,3.4-0.5,4.6-1.6c0.5-0.5,0.6-1.3,0.1-1.8c-0.5-0.5-1.3-0.6-1.8-0.1c-1,0.9-2.5,1.1-3.9,0.8
		c-1.3-0.3-2.3-1-2.8-2c-0.2-0.4-0.3-0.9-0.4-1.4h9.1c0.6,0,1.2-0.5,1.2-1.2h0C-340.2,1217.5-342.8,1214.6-346.6,1214.6z
		 M-346.6,1217.2c1.5,0,3.3,0.9,3.8,3.2h-7.6C-350.1,1218.4-348.7,1217.2-346.6,1217.2z"/>
	<path class="st4" d="M-312,1214.6c-3.8,0-6.5,2.9-6.5,6.9h0c0,0,0,0,0,0c0,1.2,0.3,2.6,0.8,3.6c0.9,1.8,2.6,3,4.6,3.4
		c0.5,0.1,1,0.1,1.4,0.1c1.7,0,3.4-0.5,4.6-1.6c0.5-0.5,0.6-1.3,0.1-1.8c-0.5-0.5-1.3-0.6-1.8-0.1c-1,0.9-2.5,1.1-3.9,0.8
		c-1.3-0.3-2.3-1-2.8-2c-0.2-0.4-0.3-0.9-0.4-1.4h9.1c0.6,0,1.2-0.5,1.2-1.2h0C-305.6,1217.5-308.2,1214.6-312,1214.6z M-312,1217.2
		c1.5,0,3.3,0.9,3.8,3.2h-7.6C-315.5,1218.4-314,1217.2-312,1217.2z"/>
	<path class="st4" d="M-320.8,1214.7c-0.1,0-3.1-0.3-5.3,1.6c-1.4,1.2-2.1,3-2.2,5.3v5.9c0,0.7,0.6,1.3,1.3,1.3
		c0.7,0,1.3-0.6,1.3-1.3l0-5.9c0-1.5,0.5-2.7,1.3-3.4c1.3-1.2,3.3-1,3.3-1c0.7,0.1,1.3-0.4,1.4-1.1
		C-319.6,1215.4-320.1,1214.8-320.8,1214.7z"/>
	<path class="st4" d="M-400.1,1218.6c-0.2,0-0.4-0.1-0.6-0.1c-1.4-0.3-2.8-0.8-3.1-1.8c-0.2-0.8,0.2-1.3,0.7-1.6
		c0.8-0.7,2.1-0.9,3-0.9c1.5,0,3,0.7,4,1.9c0.5,0.5,1.3,0.6,1.8,0.1c0.5-0.5,0.6-1.3,0.1-1.8c-1.5-1.8-3.7-2.8-6-2.8
		c-1.9,0-3.5,0.5-4.7,1.4c-1.3,1.1-1.9,2.7-1.5,4.2c0.7,2.6,3.7,3.3,5,3.6c0.2,0,0.4,0.1,0.7,0.1c3,0.6,4.5,1.2,4.5,2.8
		c0,0.4-0.1,0.8-0.4,1.1c-1.5,1.8-4.8,1.3-6.7,0.4c-0.7-0.3-1.2-0.7-1.6-1.1c-0.5-0.5-1.3-0.5-1.8,0c-0.5,0.5-0.5,1.3,0,1.8
		c0.6,0.6,1.4,1.1,2.3,1.6c1.4,0.7,3.1,1,4.6,1c0.1,0,0.2,0,0.2,0c2-0.1,3.7-0.7,4.8-2c0,0,0,0,0,0c0.7-0.8,1-1.8,1-2.8
		C-393.6,1220-397.7,1219.2-400.1,1218.6z"/>
</g>
<rect x="-1726" y="1104.7" class="st5" width="338.2" height="217.7"/>
<g>
	<g>
		<path class="st2" d="M-1593.6,1168.9c-2.8,0-5,2.3-5,5.1c0,2.8,2.2,5.1,5,5.1c2.8,0,5-2.3,5-5.1
			C-1588.6,1171.2-1590.9,1168.9-1593.6,1168.9z M-1593.6,1177.3c-1.7,0-3.1-1.5-3.1-3.3c0-1.8,1.4-3.3,3.1-3.3
			c1.7,0,3.1,1.5,3.1,3.3C-1590.5,1175.9-1591.9,1177.3-1593.6,1177.3z"/>
	</g>
	<g>
		<path class="st2" d="M-1528.7,1168.9c-2.6,0-4.6,2.1-4.6,4.8v4.6c0,0.5,0.4,0.9,0.9,0.9c0.5,0,0.9-0.4,0.9-0.9v-4.6
			c0-1.6,1.2-2.9,2.8-2.9c1.5,0,2.8,1.3,2.8,2.9v4.6c0,0.5,0.4,0.9,0.9,0.9c0.5,0,0.9-0.4,0.9-0.9v-4.6
			C-1524,1171.1-1526.1,1168.9-1528.7,1168.9z"/>
	</g>
	<g>
		<path class="st2" d="M-1576.6,1168.9c-1.2,0-2.3,0.6-3,1.4c-0.7-0.9-1.8-1.4-3-1.4c-2.2,0-3.9,1.8-3.9,4v5.3
			c0,0.5,0.4,0.9,0.9,0.9c0.5,0,0.9-0.4,0.9-0.9v-5.3c0-1.2,0.9-2.2,2.1-2.2c1.1,0,2.1,1,2.1,2.2v5.1v0.2c0,0.5,0.4,0.9,0.9,0.9
			c0.5,0,0.9-0.4,0.9-0.9v-0.2v-5.1c0-1.2,0.9-2.2,2.1-2.2c1.1,0,2.1,1,2.1,2.2v5.3c0,0.5,0.4,0.9,0.9,0.9c0.5,0,0.9-0.4,0.9-0.9
			v-5.3C-1572.7,1170.7-1574.5,1168.9-1576.6,1168.9z"/>
	</g>
	<g>
		<path class="st2" d="M-1512.2,1167c0-0.5-0.4-0.9-0.9-0.9c-0.5,0-0.9,0.4-0.9,0.9v3.1c-0.8-0.7-1.9-1.1-3.1-1.1
			c-2.7,0-4.9,2.3-4.9,5.1c0,2.8,2.2,5.1,4.9,5.1c2.7,0,4.9-2.3,4.9-5.1c0-0.1,0-0.2,0-0.3c0,0,0-0.1,0-0.1V1167z M-1517.1,1177.3
			c-1.7,0-3.1-1.5-3.1-3.3s1.4-3.3,3.1-3.3c1.7,0,3.1,1.5,3.1,3.3S-1515.4,1177.3-1517.1,1177.3z"/>
	</g>
	<g>
		<path class="st2" d="M-1555.1,1171.1c0.5,0,0.8-0.4,0.8-0.8c0-0.5-0.4-0.8-0.8-0.8h-2.2v-2.4c0-0.5-0.4-0.9-0.9-0.9
			c-0.5,0-0.9,0.4-0.9,0.9v6.4c0,1.9,0,5.9,3.9,5.9c0.5,0,0.9-0.4,0.9-0.9c0-0.5-0.4-0.9-0.9-0.9c-1.6,0-2-0.9-2-4v-2.3H-1555.1z"/>
	</g>
	<g>
		<path class="st2" d="M-1565.9,1168.9c-2.8,0-4.7,2.1-4.7,5.1h0c0,0,0,0,0,0c0,0.9,0.2,1.9,0.6,2.6c0.6,1.3,1.9,2.2,3.4,2.5
			c0.3,0.1,0.7,0.1,1.1,0.1c1.2,0,2.5-0.3,3.4-1.1c0.4-0.3,0.4-0.9,0.1-1.3c-0.3-0.4-0.9-0.4-1.3-0.1c-0.7,0.6-1.8,0.8-2.9,0.6
			c-0.9-0.2-1.7-0.7-2.1-1.5c-0.1-0.3-0.2-0.6-0.3-1h6.6c0.5,0,0.8-0.4,0.8-0.8h0C-1561.2,1171-1563.1,1168.9-1565.9,1168.9z
			 M-1565.9,1170.8c1.1,0,2.4,0.6,2.7,2.4h-5.5C-1568.4,1171.7-1567.4,1170.8-1565.9,1170.8z"/>
	</g>
	<g>
		<path class="st2" d="M-1540.1,1168.9c-2.8,0-4.7,2.1-4.7,5.1h0c0,0,0,0,0,0c0,0.9,0.2,1.9,0.6,2.6c0.6,1.3,1.9,2.2,3.4,2.5
			c0.3,0.1,0.7,0.1,1.1,0.1c1.2,0,2.5-0.3,3.4-1.1c0.4-0.3,0.4-0.9,0.1-1.3c-0.3-0.4-0.9-0.4-1.3-0.1c-0.7,0.6-1.8,0.8-2.9,0.6
			c-0.9-0.2-1.7-0.7-2.1-1.5c-0.1-0.3-0.2-0.6-0.3-1h6.6c0.5,0,0.8-0.4,0.8-0.8h0C-1535.4,1171-1537.3,1168.9-1540.1,1168.9z
			 M-1540.1,1170.8c1.1,0,2.4,0.6,2.7,2.4h-5.5C-1542.6,1171.7-1541.5,1170.8-1540.1,1170.8z"/>
	</g>
	<g>
		<path class="st2" d="M-1546.7,1169c-0.1,0-2.3-0.2-3.8,1.1c-1,0.9-1.5,2.2-1.6,3.9v4.3c0,0.5,0.4,0.9,0.9,0.9
			c0.5,0,0.9-0.4,0.9-0.9l0-4.3c0-1.1,0.3-2,0.9-2.5c1-0.8,2.4-0.7,2.4-0.7c0.5,0.1,1-0.3,1-0.8
			C-1545.8,1169.5-1546.2,1169-1546.7,1169z"/>
	</g>
	<g>
		<path class="st2" d="M-1605.4,1171.8c-0.2,0-0.3-0.1-0.5-0.1c-1-0.2-2-0.6-2.2-1.3c-0.1-0.5,0.2-0.9,0.5-1.2
			c0.6-0.5,1.5-0.6,2.2-0.6c1.1,0,2.2,0.5,2.9,1.4c0.3,0.4,0.9,0.4,1.3,0.1c0.4-0.3,0.4-0.9,0.1-1.3c-1.1-1.3-2.7-2-4.3-2
			c-1.4,0-2.6,0.4-3.4,1c-1,0.8-1.4,2-1.1,3.1c0.5,1.9,2.7,2.4,3.6,2.6c0.2,0,0.3,0.1,0.5,0.1c2.2,0.5,3.3,0.9,3.3,2
			c0,0.3-0.1,0.6-0.3,0.8c-1.1,1.3-3.5,0.9-4.9,0.3c-0.5-0.2-0.9-0.5-1.2-0.8c-0.4-0.4-1-0.3-1.3,0c-0.4,0.4-0.3,1,0,1.3
			c0.5,0.4,1,0.8,1.7,1.1c1,0.5,2.3,0.8,3.4,0.8c0.1,0,0.1,0,0.2,0c1.5,0,2.7-0.5,3.5-1.5c0,0,0,0,0,0c0.5-0.6,0.8-1.3,0.8-2
			C-1600.7,1172.8-1603.7,1172.2-1605.4,1171.8z"/>
	</g>
	<g>
		<path class="st6" d="M-1606.5,1249c-1.1,0-2-0.4-2.7-1.1c-0.7-0.7-1.1-1.6-1.1-2.7v-49.6c0-1.1,0.4-2,1.1-2.7
			c0.7-0.7,1.6-1.1,2.7-1.1h17.5c3.3,0,6.2,0.6,8.7,1.9c2.5,1.3,4.5,3.1,5.9,5.4c1.4,2.3,2.2,4.9,2.2,7.9c0,2.4-0.6,4.6-1.9,6.5
			c-1.3,1.9-3.1,3.5-5.3,4.6c3.2,0.8,5.8,2.3,7.8,4.6c2,2.3,2.9,5.3,2.9,9c0,3.4-0.8,6.3-2.4,8.9c-1.6,2.6-3.8,4.6-6.6,6.1
			c-2.8,1.5-6.1,2.2-9.7,2.2H-1606.5z M-1602.7,1215.3h13.7c2.8,0,5.1-0.7,6.8-2c1.8-1.4,2.7-3.4,2.7-6.2c0-2.8-0.9-4.8-2.7-6.2
			c-1.8-1.3-4.1-2-6.8-2h-13.7V1215.3z M-1602.7,1242h15.2c2.2,0,4.2-0.4,5.9-1.2c1.7-0.8,3-1.9,4-3.4c1-1.5,1.5-3.4,1.5-5.6
			c0-2.1-0.5-3.8-1.5-5.2c-1-1.4-2.3-2.4-4-3.1c-1.7-0.7-3.7-1.1-5.9-1.1h-15.2V1242z"/>
		<path class="st6" d="M-1556.6,1202.4c-1.3,0-2.5-0.5-3.4-1.4c-1-1-1.4-2.1-1.4-3.4c0-1.3,0.5-2.5,1.4-3.4c1-1,2.1-1.4,3.4-1.4
			c1.3,0,2.5,0.5,3.4,1.4c1,1,1.4,2.1,1.4,3.4c0,1.3-0.5,2.5-1.4,3.4C-1554.1,1202-1555.3,1202.4-1556.6,1202.4z M-1556.6,1249
			c-1.1,0-2-0.4-2.7-1.1c-0.7-0.7-1.1-1.6-1.1-2.7v-32.6c0-1.1,0.4-2,1.1-2.7c0.7-0.7,1.6-1,2.7-1c1.1,0,2,0.3,2.7,1
			c0.7,0.7,1,1.6,1,2.7v32.6c0,1.1-0.3,2-1,2.7C-1554.6,1248.7-1555.5,1249-1556.6,1249z"/>
		<path class="st6" d="M-1541,1215.8c-2.3,0-3.4-1.1-3.4-3.4c0-2.3,1.1-3.4,3.4-3.4h25c2.3,0,3.4,1.1,3.4,3.4c0,2.3-1.1,3.4-3.4,3.4
			H-1541z M-1540.3,1249c-2.3,0-3.4-1.1-3.4-3.4s1.1-3.4,3.4-3.4h25c2.3,0,3.4,1.1,3.4,3.4s-1.1,3.4-3.4,3.4H-1540.3z
			 M-1538.1,1247.6l-5-4.4l24.9-32.9l4.9,4.4L-1538.1,1247.6z"/>
	</g>
</g>
<rect x="-1370.2" y="1104.7" class="st5" width="338.2" height="217.7"/>
<g>
	<path class="st6" d="M-1136.8,1218.5c0.8-0.5,1.5-1.2,2-1.9c0.6-1,1-2.1,1-3.2c0-1.5-0.4-2.8-1.1-3.9c-0.7-1.1-1.7-2-2.9-2.7
		c-1.2-0.6-2.7-1-4.3-1h-8.3c-0.6,0-1.1,0.2-1.5,0.6c-0.4,0.4-0.6,0.9-0.6,1.5v23.6c0,0.6,0.2,1.1,0.6,1.5c0.4,0.4,0.9,0.6,1.5,0.6
		h9.1c1.8,0,3.4-0.4,4.8-1.1c1.4-0.7,2.5-1.7,3.3-3c0.8-1.3,1.2-2.8,1.2-4.4c0-1.8-0.5-3.3-1.5-4.5
		C-1134.4,1219.7-1135.5,1219-1136.8,1218.5z M-1148.3,1217v-7.2h6.2c1.3,0,2.3,0.3,3.1,0.9c0.8,0.6,1.2,1.5,1.2,2.7
		c0,1.2-0.4,2.1-1.2,2.7c-0.8,0.6-1.8,0.9-3.1,0.9H-1148.3z M-1138.7,1229.1c-0.8,0.4-1.7,0.5-2.7,0.5h-6.9v-8.7h6.9
		c1,0,1.9,0.2,2.7,0.5c0.8,0.3,1.4,0.8,1.8,1.4c0.4,0.6,0.6,1.4,0.6,2.3c0,1-0.2,1.9-0.6,2.5
		C-1137.3,1228.3-1137.9,1228.8-1138.7,1229.1z"/>
	<path class="st6" d="M-1125.6,1206.3c-0.7,0-1.3,0.3-1.8,0.8c-0.5,0.5-0.8,1.1-0.8,1.8c0,0.7,0.3,1.3,0.8,1.8
		c0.5,0.5,1.1,0.8,1.8,0.8c0.7,0,1.3-0.3,1.8-0.8c0.5-0.5,0.8-1.1,0.8-1.8c0-0.7-0.3-1.3-0.8-1.8
		C-1124.3,1206.5-1124.9,1206.3-1125.6,1206.3z"/>
	<path class="st6" d="M-1125.6,1214c-0.6,0-1.1,0.2-1.5,0.6c-0.4,0.4-0.6,0.9-0.6,1.5v15.5c0,0.6,0.2,1.1,0.6,1.5
		c0.4,0.4,0.9,0.6,1.5,0.6c0.6,0,1.1-0.2,1.5-0.6c0.4-0.4,0.6-0.9,0.6-1.5V1216c0-0.6-0.2-1.1-0.6-1.5
		C-1124.5,1214.2-1125,1214-1125.6,1214z"/>
	<path class="st6" d="M-1105,1229.7h-8.3l9.6-12.8l0,0c0.2-0.3,0.2-0.6,0.2-1.1c0-1.2-0.7-1.9-1.9-1.9h-11.9c-1.2,0-1.9,0.7-1.9,1.9
		s0.7,1.9,1.9,1.9h8.3l-9.7,12.8l0,0c-0.1,0.3-0.2,0.6-0.2,1.1c0,1.2,0.7,1.9,1.9,1.9h11.9c1.2,0,1.9-0.7,1.9-1.9
		S-1103.7,1229.7-1105,1229.7z"/>
</g>
<g>
	<path class="st2" d="M-1272.2,1214.6c-3.8,0-6.9,3.2-6.9,7.1c0,3.9,3.1,7.1,6.9,7.1s6.9-3.2,6.9-7.1
		C-1265.3,1217.8-1268.4,1214.6-1272.2,1214.6z M-1272.2,1226.2c-2.4,0-4.3-2-4.3-4.5c0-2.5,1.9-4.5,4.3-4.5c2.4,0,4.3,2,4.3,4.5
		C-1267.9,1224.2-1269.8,1226.2-1272.2,1226.2z"/>
	<path class="st2" d="M-1184.7,1214.6c-3.5,0-6.4,2.9-6.4,6.5v6.3c0,0.7,0.6,1.3,1.3,1.3c0.7,0,1.3-0.6,1.3-1.3v-6.3
		c0-2.2,1.7-4,3.8-4c2.1,0,3.8,1.8,3.8,4v6.3c0,0.7,0.6,1.3,1.3,1.3c0.7,0,1.3-0.6,1.3-1.3v-6.3
		C-1178.3,1217.6-1181.1,1214.6-1184.7,1214.6z"/>
	<path class="st2" d="M-1249.1,1214.6c-1.7,0-3.1,0.8-4.1,2c-1-1.2-2.5-2-4.1-2c-3,0-5.4,2.5-5.4,5.5v7.3c0,0.7,0.6,1.3,1.3,1.3
		c0.7,0,1.3-0.6,1.3-1.3v-7.3c0-1.6,1.3-3,2.8-3c1.6,0,2.8,1.3,2.8,3v7v0.3c0,0.7,0.6,1.3,1.3,1.3c0.7,0,1.3-0.6,1.3-1.3v-0.3v-7
		c0-1.6,1.3-3,2.8-3c1.6,0,2.8,1.3,2.8,3v7.3c0,0.7,0.6,1.3,1.3,1.3s1.3-0.6,1.3-1.3v-7.3
		C-1243.8,1217.1-1246.2,1214.6-1249.1,1214.6z"/>
	<path class="st2" d="M-1162.2,1211.9c0-0.7-0.6-1.3-1.3-1.3c-0.7,0-1.3,0.6-1.3,1.3v4.2c-1.2-1-2.6-1.5-4.2-1.5
		c-3.7,0-6.8,3.2-6.8,7.1c0,3.9,3,7.1,6.8,7.1c3.7,0,6.8-3.2,6.8-7.1c0-0.1,0-0.3,0-0.4c0,0,0-0.1,0-0.1V1211.9z M-1169,1226.2
		c-2.3,0-4.2-2-4.2-4.5c0-2.5,1.9-4.5,4.2-4.5c2.3,0,4.2,2,4.2,4.5C-1164.8,1224.2-1166.7,1226.2-1169,1226.2z"/>
	<path class="st2" d="M-1220.2,1217.6c0.6,0,1.2-0.5,1.2-1.2s-0.5-1.2-1.2-1.2h-3v-3.3c0-0.7-0.6-1.3-1.3-1.3
		c-0.7,0-1.3,0.6-1.3,1.3v8.7c0,2.6,0,8,5.3,8c0.7,0,1.3-0.6,1.3-1.3c0-0.7-0.6-1.3-1.3-1.3c-2.1,0-2.8-1.3-2.8-5.5v-3.1H-1220.2z"
		/>
	<path class="st2" d="M-1234.6,1214.6c-3.8,0-6.5,2.9-6.5,6.9h0c0,0,0,0,0,0c0,1.2,0.3,2.6,0.8,3.6c0.9,1.8,2.6,3,4.6,3.4
		c0.5,0.1,1,0.1,1.4,0.1c1.7,0,3.4-0.5,4.6-1.6c0.5-0.5,0.6-1.3,0.1-1.8c-0.5-0.5-1.3-0.6-1.8-0.1c-1,0.9-2.5,1.1-3.9,0.8
		c-1.3-0.3-2.3-1-2.8-2c-0.2-0.4-0.3-0.9-0.4-1.4h9.1c0.6,0,1.2-0.5,1.2-1.2h0C-1228.2,1217.5-1230.8,1214.6-1234.6,1214.6z
		 M-1234.6,1217.2c1.5,0,3.3,0.9,3.8,3.2h-7.6C-1238.1,1218.4-1236.7,1217.2-1234.6,1217.2z"/>
	<path class="st2" d="M-1200,1214.6c-3.8,0-6.5,2.9-6.5,6.9h0c0,0,0,0,0,0c0,1.2,0.3,2.6,0.8,3.6c0.9,1.8,2.6,3,4.6,3.4
		c0.5,0.1,1,0.1,1.4,0.1c1.7,0,3.4-0.5,4.6-1.6c0.5-0.5,0.6-1.3,0.1-1.8c-0.5-0.5-1.3-0.6-1.8-0.1c-1,0.9-2.5,1.1-3.9,0.8
		c-1.3-0.3-2.3-1-2.8-2c-0.2-0.4-0.3-0.9-0.4-1.4h9.1c0.6,0,1.2-0.5,1.2-1.2h0C-1193.6,1217.5-1196.2,1214.6-1200,1214.6z
		 M-1200,1217.2c1.5,0,3.3,0.9,3.8,3.2h-7.6C-1203.5,1218.4-1202,1217.2-1200,1217.2z"/>
	<path class="st2" d="M-1208.8,1214.7c-0.1,0-3.1-0.3-5.3,1.6c-1.4,1.2-2.1,3-2.2,5.3v5.9c0,0.7,0.6,1.3,1.3,1.3
		c0.7,0,1.3-0.6,1.3-1.3l0-5.9c0-1.5,0.5-2.7,1.3-3.4c1.3-1.2,3.3-1,3.3-1c0.7,0.1,1.3-0.4,1.4-1.1
		C-1207.6,1215.4-1208.1,1214.8-1208.8,1214.7z"/>
	<path class="st2" d="M-1288.1,1218.6c-0.2,0-0.4-0.1-0.6-0.1c-1.4-0.3-2.8-0.8-3.1-1.8c-0.2-0.8,0.2-1.3,0.7-1.6
		c0.8-0.7,2.1-0.9,3-0.9c1.5,0,3,0.7,4,1.9c0.5,0.5,1.3,0.6,1.8,0.1c0.5-0.5,0.6-1.3,0.1-1.8c-1.5-1.8-3.7-2.8-6-2.8
		c-1.9,0-3.5,0.5-4.7,1.4c-1.3,1.1-1.9,2.7-1.5,4.2c0.7,2.6,3.7,3.3,5,3.6c0.2,0,0.4,0.1,0.7,0.1c3,0.6,4.5,1.2,4.5,2.8
		c0,0.4-0.1,0.8-0.4,1.1c-1.5,1.8-4.8,1.3-6.7,0.4c-0.7-0.3-1.2-0.7-1.6-1.1c-0.5-0.5-1.3-0.5-1.8,0c-0.5,0.5-0.5,1.3,0,1.8
		c0.6,0.6,1.4,1.1,2.3,1.6c1.4,0.7,3.1,1,4.6,1c0.1,0,0.2,0,0.2,0c2-0.1,3.7-0.7,4.8-2c0,0,0,0,0,0c0.7-0.8,1-1.8,1-2.8
		C-1281.6,1220-1285.7,1219.2-1288.1,1218.6z"/>
</g>
</svg>
