<?xml version="1.0" encoding="utf-8"?>
<!-- Generator: Adobe Illustrator 23.0.6, SVG Export Plug-In . SVG Version: 6.00 Build 0)  -->
<svg version="1.1" xmlns="http://www.w3.org/2000/svg" xmlns:xlink="http://www.w3.org/1999/xlink" x="0px" y="0px"
	 viewBox="0 0 56 10" style="enable-background:new 0 0 56 10;" xml:space="preserve">
<style type="text/css">
	.st0{fill:#FFFFFF;}
	.st1{fill:#3399FF;stroke:#3399FF;stroke-width:0.3;stroke-miterlimit:10;}
	.st2{fill:#595959;stroke:#595959;stroke-width:0.3;stroke-miterlimit:10;}
	.st3{fill:#FFFFFF;stroke:#FFFFFF;stroke-width:7.278536e-02;stroke-miterlimit:10;}
	.st4{fill:#3399FF;stroke:#3399FF;stroke-width:7.278536e-02;stroke-miterlimit:10;}
	.st5{fill:#595959;stroke:#595959;stroke-width:7.278536e-02;stroke-miterlimit:10;}
</style>
<g id="레이어_3">
</g>
<g id="레이어_2">
</g>
<g id="레이어_1">
	<g>
		<g>
			<path class="st3" d="M6.3,6.7c0,1.2-1.2,2.2-2.7,2.2S1,7.9,1,6.7c0-0.3,0.3-0.6,0.7-0.6c0.4,0,0.7,0.3,0.7,0.6
				c0,0.6,0.6,1.1,1.3,1.1C4.4,7.8,5,7.3,5,6.7c0-0.6-0.6-1.1-1.3-1.1C2.2,5.6,1,4.6,1,3.4c0-1.2,1.2-2.2,2.7-2.2s2.7,1,2.7,2.2
				C6.3,3.7,6,4,5.6,4C5.3,4,5,3.7,5,3.4c0-0.6-0.6-1.1-1.3-1.1c-0.7,0-1.3,0.5-1.3,1.1c0,0.6,0.6,1.1,1.3,1.1
				C5.1,4.5,6.3,5.5,6.3,6.7z"/>
			<path class="st3" d="M7.3,6.2c0-1.5,1.3-2.8,2.8-2.8c1.5,0,2.8,1.2,2.8,2.8c0,1.5-1.2,2.8-2.8,2.8C8.6,8.9,7.3,7.7,7.3,6.2z
				 M8.4,6.2c0,0.9,0.8,1.7,1.7,1.7c0.9,0,1.7-0.8,1.7-1.7c0-0.9-0.8-1.7-1.7-1.7C9.2,4.5,8.4,5.2,8.4,6.2z"/>
			<path class="st3" d="M21.5,5.7C21.5,5.7,21.5,5.7,21.5,5.7l0,2.7C21.5,8.7,21.3,9,21,9s-0.5-0.2-0.5-0.6V5.7c0,0,0,0,0-0.1
				c0,0,0,0,0,0c0-0.6-0.5-1.1-1.1-1.1c-0.6,0-1.1,0.5-1.1,1.1v2.8c0,0.3-0.2,0.6-0.5,0.6c-0.3,0-0.6-0.2-0.6-0.6V5.6
				c0-0.6-0.5-1.1-1.1-1.1S14.8,5,14.8,5.6v2.8c0,0.3-0.2,0.6-0.5,0.6c-0.3,0-0.6-0.2-0.6-0.6V5.6c0-1.2,1-2.2,2.2-2.2
				c0.7,0,1.3,0.3,1.7,0.8c0.4-0.5,1-0.8,1.7-0.8C20.5,3.4,21.5,4.4,21.5,5.7C21.5,5.6,21.5,5.6,21.5,5.7z"/>
			<path class="st3" d="M27.9,6.2c0,0.3-0.2,0.5-0.6,0.5h-3.8c0.2,0.7,0.9,1.1,1.6,1.1c0.3,0,0.7,0,1.2-0.4c0.3-0.2,0.6,0,0.7,0.3
				c0.1,0.3,0,0.6-0.3,0.7c-0.7,0.5-1.3,0.5-1.7,0.5c-1.5,0-2.8-1.3-2.8-2.8c0-1.5,1.2-2.8,2.8-2.8C26.5,3.4,27.9,4.3,27.9,6.2z
				 M23.6,5.6h3.2c-0.2-0.8-0.9-1.1-1.6-1.1C24.4,4.5,23.8,4.9,23.6,5.6z"/>
			<path class="st3" d="M28.2,1.2h4.4c0.3,0,0.5,0.2,0.5,0.6c0,0.3-0.2,0.5-0.5,0.5h-1.7v6.1c0,0.3-0.2,0.6-0.5,0.6
				c-0.3,0-0.6-0.2-0.6-0.6V2.3h-1.7c-0.3,0-0.6-0.2-0.6-0.5C27.6,1.4,27.9,1.2,28.2,1.2z"/>
			<path class="st3" d="M36.4,3.9c0,0.3-0.2,0.6-0.6,0.6c-0.9,0-1.7,0.8-1.7,1.7v2.2c0,0.3-0.2,0.6-0.5,0.6c-0.3,0-0.6-0.3-0.6-0.6
				V6.2c0-1.5,1.3-2.8,2.8-2.8C36.1,3.4,36.4,3.6,36.4,3.9z"/>
			<path class="st3" d="M42.1,6.2c0,0.3-0.2,0.5-0.6,0.5h-3.8c0.2,0.7,0.9,1.1,1.6,1.1c0.3,0,0.7,0,1.2-0.4c0.3-0.2,0.6,0,0.7,0.3
				c0.1,0.3,0,0.6-0.3,0.7c-0.7,0.5-1.3,0.5-1.7,0.5c-1.5,0-2.8-1.3-2.8-2.8c0-1.5,1.2-2.8,2.8-2.8C40.7,3.4,42.1,4.3,42.1,6.2z
				 M37.8,5.6h3.2c-0.2-0.8-0.9-1.1-1.6-1.1C38.6,4.5,38,4.9,37.8,5.6z"/>
			<path class="st3" d="M48.6,6.2v2.2c0,0.3-0.2,0.6-0.6,0.6c-0.3,0-0.5-0.2-0.5-0.6V6.2c0-0.9-0.8-1.7-1.7-1.7
				c-0.9,0-1.7,0.8-1.7,1.7v2.2c0,0.3-0.2,0.6-0.6,0.6c-0.3,0-0.5-0.2-0.5-0.6V6.2c0-1.5,1.3-2.8,2.8-2.8S48.6,4.6,48.6,6.2z"/>
			<path class="st3" d="M53.9,3.9V1.2c0-0.3,0.2-0.5,0.5-0.5c0.3,0,0.6,0.2,0.6,0.5v5v0c0,1.5-1.3,2.8-2.8,2.8
				c-1.5,0-2.8-1.3-2.8-2.8c0-1.5,1.2-2.8,2.8-2.8C52.9,3.4,53.4,3.6,53.9,3.9z M53.9,6.1L53.9,6.1c0-0.9-0.8-1.7-1.7-1.7
				s-1.7,0.8-1.7,1.7c0,0.9,0.8,1.7,1.7,1.7S53.9,7.1,53.9,6.1z"/>
		</g>
	</g>
</g>
</svg>
