<?xml version="1.0" encoding="utf-8"?>
<!-- Generator: Adobe Illustrator 23.1.0, SVG Export Plug-In . SVG Version: 6.00 Build 0)  -->
<svg version="1.1" id="Layer_1" xmlns="http://www.w3.org/2000/svg" xmlns:xlink="http://www.w3.org/1999/xlink" x="0px" y="0px"
	 viewBox="0 0 13.99 23.52" style="enable-background:new 0 0 13.99 23.52;" xml:space="preserve">
<style type="text/css">
	.st0{fill:#FFFFFF;}
	.st1{fill:#3C3C3B;}
</style>
<g>
	<path class="st0" d="M13.99,11.64v11.89H7.59V11.64c0-0.46,0.45-0.84,1-0.84h4.4C13.54,10.8,13.99,11.18,13.99,11.64z M5.09,16.47
		H1.17c-0.5,0-0.94-0.23-1.17-0.58v7.35c0,0.15,0.15,0.28,0.33,0.28h5.59c0.18,0,0.33-0.12,0.33-0.28v-7.35
		C6.03,16.24,5.6,16.47,5.09,16.47z M5.93,14.63H0.33c-0.06,0-0.12,0.01-0.17,0.04v0.69c0,0.46,0.45,0.84,1,0.84h3.93
		c0.55,0,1-0.37,1-0.84v-0.69C6.05,14.64,5.99,14.63,5.93,14.63z M5.86,12.85c-0.01,0.3-0.31,0.54-0.67,0.54H1.07
		c-0.36,0-0.65-0.24-0.67-0.54c-0.15,0.15-0.23,0.33-0.23,0.54v0.49c0.05-0.01,0.11-0.02,0.17-0.02h5.59c0.06,0,0.11,0.01,0.17,0.02
		v-0.49C6.09,13.18,6.01,12.99,5.86,12.85z M5.09,12.55H1.17c-0.16,0-0.3,0.03-0.43,0.08v0.2c0,0.15,0.15,0.28,0.33,0.28h4.13
		c0.18,0,0.33-0.12,0.33-0.28v-0.2C5.4,12.58,5.25,12.55,5.09,12.55z M5.03,7.69l0,0.51L1.36,7.65L1.34,7.69H1.07
		c-0.18,0-0.33,0.12-0.33,0.28v3.83c0.14-0.04,0.28-0.06,0.43-0.06h3.93c0.15,0,0.3,0.02,0.43,0.06V7.97c0-0.15-0.15-0.28-0.33-0.28
		H5.03z M1.34,7.69l0.02-0.04l3.68,0.55l0-0.51H1.34z M1.22,2.91l0.11,3.93h3.7l0-3.61C5.12,1.53,3.77-0.1,3.41,0
		C1.31,0.61,1.22,2.91,1.22,2.91z M5.69,12.71c-0.05-0.03-0.11-0.06-0.17-0.08v0.2c0,0.15-0.15,0.28-0.33,0.28H1.07
		c-0.18,0-0.33-0.12-0.33-0.28v-0.2c-0.06,0.02-0.11,0.05-0.17,0.08v0.11c0,0.23,0.22,0.42,0.5,0.42h4.13c0.28,0,0.5-0.19,0.5-0.42
		V12.71z M5.19,13.38c0.36,0,0.65-0.24,0.67-0.54c-0.05-0.05-0.11-0.09-0.17-0.13v0.11c0,0.23-0.22,0.42-0.5,0.42H1.07
		c-0.28,0-0.5-0.19-0.5-0.42v-0.11C0.5,12.75,0.45,12.8,0.4,12.85c0.01,0.3,0.31,0.54,0.67,0.54H5.19z M5.09,16.33
		c0.64,0,1.17-0.44,1.17-0.98v-0.45c0-0.1-0.07-0.19-0.17-0.24v0.69c0,0.46-0.45,0.84-1,0.84H1.17c-0.55,0-1-0.37-1-0.84v-0.69
		C0.07,14.71,0,14.8,0,14.91v0.45c0,0.54,0.52,0.97,1.17,0.97H5.09z M5.09,16.47c0.5,0,0.94-0.23,1.17-0.58v-0.54
		c0,0.54-0.52,0.98-1.17,0.98H1.17C0.52,16.33,0,15.89,0,15.36v0.54c0.23,0.34,0.66,0.58,1.17,0.58H5.09z"/>
</g>
</svg>
