<?xml version="1.0" encoding="utf-8"?>
<!-- Generator: Adobe Illustrator 23.1.0, SVG Export Plug-In . SVG Version: 6.00 Build 0)  -->
<svg version="1.1" id="Layer_1" xmlns="http://www.w3.org/2000/svg" xmlns:xlink="http://www.w3.org/1999/xlink" x="0px" y="0px"
	 viewBox="0 0 24.8 23.48" style="enable-background:new 0 0 24.8 23.48;" xml:space="preserve">
<style type="text/css">
	.st0{fill:#FFFFFF;}
	.st1{fill:#3C3C3B;}
</style>
<g>
	<path class="st0" d="M14.27,12.01c0.08,0.07,0.17,0.1,0.26,0.1c0.11,0,0.22-0.04,0.3-0.13l0.72-0.81c0.36,0.13,0.73,0.2,1.1,0.2
		c0.84,0,1.66-0.32,2.28-0.94l1.12-1.12c0,0,4.64-4.64,4.64-4.64c0.15-0.15,0.15-0.41,0-0.56l0,0c-0.15-0.15-0.41-0.15-0.56,0
		l-4.36,4.36L19,7.69l4.36-4.36c0.15-0.15,0.15-0.41,0-0.56c-0.15-0.15-0.41-0.15-0.56,0l-4.36,4.36l-0.77-0.77L22.03,2
		c0.15-0.15,0.15-0.41,0-0.56c-0.15-0.15-0.41-0.15-0.56,0L17.11,5.8l-0.77-0.77l4.36-4.36c0.15-0.15,0.15-0.41,0-0.56
		c-0.15-0.15-0.41-0.15-0.56,0l-5.76,5.76c-0.89,0.89-1.17,2.21-0.74,3.38l-0.9,0.8c-0.16,0.15-0.18,0.4-0.03,0.56 M24.69,4.1"/>
	<path class="st0" d="M2.64,20.07 M4.73,22.17 M9.25,13.68c-0.15-0.16-0.4-0.18-0.56-0.03l-6.56,5.83
		c-0.05,0.04-0.09,0.08-0.14,0.12c-0.89,0.89-0.89,2.33,0,3.22c0.43,0.43,1,0.67,1.61,0.67c0.61,0,1.18-0.24,1.61-0.67
		c0.04-0.04,0.08-0.09,0.12-0.14l5.72-6.44c0.15-0.16,0.13-0.41-0.03-0.56l0,0 M11.01,15.68"/>
	<path class="st0" d="M21.5,19.48L10.04,9.31c0.89-1.72,0.58-3.82-0.81-5.21C7.41,2.28,5.21,1.19,3.37,1.19
		c-1,0-1.84,0.32-2.44,0.92C0.05,2.99-0.22,4.34,0.18,5.92c0.38,1.52,1.35,3.12,2.74,4.5c0.84,0.84,1.96,1.31,3.16,1.31
		c0.72,0,1.42-0.17,2.05-0.5l10.17,11.45c0.04,0.05,0.08,0.09,0.12,0.14c0.43,0.43,1,0.67,1.61,0.67c0.61,0,1.18-0.24,1.61-0.67
		c0.89-0.89,0.89-2.33,0-3.22C21.59,19.56,21.55,19.52,21.5,19.48L21.5,19.48z M18.89,22.17C18.89,22.16,18.89,22.16,18.89,22.17
		 M21.07,20.16 M21.07,22.26"/>
</g>
</svg>
