<?xml version="1.0" encoding="utf-8"?>
<!-- Generator: Adobe Illustrator 23.1.0, SVG Export Plug-In . SVG Version: 6.00 Build 0)  -->
<svg version="1.1" id="Layer_1" xmlns="http://www.w3.org/2000/svg" xmlns:xlink="http://www.w3.org/1999/xlink" x="0px" y="0px"
	 viewBox="0 0 22.7 19.61" style="enable-background:new 0 0 22.7 19.61;" xml:space="preserve">
<style type="text/css">
	.st0{fill:#FFFFFF;}
	.st1{fill:#3C3C3B;}
</style>
<g>
	<rect x="6" y="4.75" class="st0" width="10.71" height="14.86"/>
	<path class="st0" d="M1.65,4.75C0.74,4.75,0,5.49,0,6.4v11.55c0,0.91,0.74,1.65,1.65,1.65H4.5V4.75H1.65z"/>
	<path class="st0" d="M21.04,4.75H18.2v14.86h2.84c0.91,0,1.65-0.74,1.65-1.65V6.4C22.7,5.49,21.96,4.75,21.04,4.75z"/>
	<path class="st0" d="M7.15,2.44C7.15,1.66,7.59,1,8.12,1h6.46c0.53,0,0.97,0.66,0.97,1.44v2.02h1V2.44C16.55,1.1,15.67,0,14.58,0
		H8.12C7.03,0,6.15,1.1,6.15,2.44v2.02h1V2.44z"/>
</g>
</svg>
