<?xml version="1.0" encoding="utf-8"?>
<!-- Generator: Adobe Illustrator 23.1.0, SVG Export Plug-In . SVG Version: 6.00 Build 0)  -->
<svg version="1.1" id="Layer_1" xmlns="http://www.w3.org/2000/svg" xmlns:xlink="http://www.w3.org/1999/xlink" x="0px" y="0px"
	 viewBox="0 0 25.56 25.39" style="enable-background:new 0 0 25.56 25.39;" xml:space="preserve">
<style type="text/css">
	.st0{fill:#FFFFFF;}
	.st1{fill:#3C3C3B;}
</style>
<path class="st0" d="M10.37,0.79L3.66,3.03l-2.9-2.9C0.58-0.04,0.3-0.04,0.13,0.13s-0.17,0.45-0.01,0.62l2.99,2.99L0.95,10.2
	l15.19,15.19l9.42-9.42L10.37,0.79z M8.22,8.22c-0.81,0.8-2.09,0.87-2.97,0.15C4.37,7.65,4.17,6.38,4.8,5.43l0.65,0.65
	C5.21,6.59,5.31,7.2,5.71,7.59c0.53,0.5,1.36,0.5,1.88,0c0.46-0.46,0.53-1.18,0.15-1.71C7.37,5.35,6.67,5.17,6.08,5.45L5.43,4.8
	c0.95-0.63,2.22-0.43,2.94,0.45C9.09,6.13,9.03,7.42,8.22,8.22z M16.14,23.51L9.23,16.6l1.26-1.26l6.9,6.91L16.14,23.51z
	 M18.02,21.63l-6.91-6.91l0.63-0.63l6.91,6.9L18.02,21.63z M19.28,20.37l-6.91-6.91l1.26-1.26l6.91,6.91L19.28,20.37z M21.16,18.49
	l-6.91-6.91l1.26-1.26l6.91,6.91L21.16,18.49z M16.14,9.7l0.63-0.63l6.91,6.91l-0.63,0.63L16.14,9.7z"/>
<path class="st0" d="M10.01,1.17L4.42,3.04C4.07,3.15,3.69,3.06,3.43,2.81L0.95,0.32C0.78,0.15,0.5,0.16,0.33,0.33
	S0.15,0.78,0.32,0.95l2.57,2.57C3.15,3.77,3.24,4.15,3.12,4.5L1.34,9.84c-0.11,0.34-0.03,0.72,0.23,0.98l14.09,14.09
	c0.37,0.37,0.98,0.37,1.36,0l8.06-8.06c0.37-0.37,0.37-0.98,0-1.36L10.99,1.41C10.73,1.15,10.35,1.06,10.01,1.17z M8.42,8.42
	c-0.81,0.8-2.09,0.87-2.97,0.15C4.57,7.85,4.37,6.58,5,5.63l0.65,0.65C5.41,6.79,5.51,7.4,5.91,7.79c0.53,0.5,1.36,0.5,1.88,0
	c0.46-0.46,0.53-1.18,0.15-1.71C7.57,5.55,6.87,5.37,6.28,5.65L5.63,5c0.95-0.63,2.22-0.43,2.94,0.45C9.29,6.33,9.23,7.62,8.42,8.42
	z M15.81,23.18l-5.84-5.84c-0.29-0.29-0.29-0.77,0-1.06l0.19-0.19c0.29-0.29,0.77-0.29,1.06,0l5.84,5.84c0.29,0.29,0.29,0.77,0,1.06
	l-0.19,0.19C16.58,23.47,16.1,23.47,15.81,23.18z M18.22,21.82l-6.91-6.91l0.63-0.63l6.91,6.9L18.22,21.82z M18.95,20.04l-5.84-5.84
	c-0.29-0.29-0.29-0.77,0-1.06l0.19-0.19c0.29-0.29,0.77-0.29,1.06,0l5.84,5.84c0.29,0.29,0.29,0.77,0,1.06l-0.19,0.19
	C19.72,20.33,19.24,20.33,18.95,20.04z M20.83,18.15l-5.84-5.84c-0.29-0.29-0.29-0.77,0-1.06l0.19-0.19c0.29-0.29,0.77-0.29,1.06,0
	l5.84,5.84c0.29,0.29,0.29,0.77,0,1.06l-0.19,0.19C21.6,18.45,21.12,18.45,20.83,18.15z M16.34,9.9l0.63-0.63l6.91,6.91l-0.63,0.63
	L16.34,9.9z"/>
</svg>
