<?xml version="1.0" encoding="utf-8"?>
<!-- Generator: Adobe Illustrator 23.1.0, SVG Export Plug-In . SVG Version: 6.00 Build 0)  -->
<svg version="1.1" id="Layer_1" xmlns="http://www.w3.org/2000/svg" xmlns:xlink="http://www.w3.org/1999/xlink" x="0px" y="0px"
	 viewBox="0 0 20.6 20.46" style="enable-background:new 0 0 20.6 20.46;" xml:space="preserve">
<style type="text/css">
	.st0{fill:#FFFFFF;}
	.st1{fill:#3C3C3B;}
</style>
<g>
	<path class="st0" d="M20.25,8.32H0.77c-0.2,0-0.35,0.16-0.35,0.35v10.39c0,0.77,0.63,1.4,1.4,1.4h17.39c0.77,0,1.4-0.63,1.4-1.4
		V8.68C20.6,8.48,20.45,8.32,20.25,8.32z M12.61,14.56l-3.76,2.95c-0.14,0.11-0.35,0.01-0.35-0.17v-5.9c0-0.18,0.21-0.28,0.35-0.17
		l3.76,2.95C12.72,14.31,12.72,14.48,12.61,14.56z"/>
	<path class="st0" d="M18.79,0.5 M0.52,5.47 M18.79,0.5L18.79,0.5 M18.54,0.03L0.8,4.33c-0.56,0.14-0.91,0.7-0.77,1.26l0.55,2.25
		l19.78-4.79L19.81,0.8C19.69,0.32,19.26,0,18.79,0"/>
</g>
</svg>
