<?xml version="1.0" encoding="utf-8"?>
<!-- Generator: Adobe Illustrator 23.0.6, SVG Export Plug-In . SVG Version: 6.00 Build 0)  -->
<svg version="1.1" id="레이어_1" xmlns="http://www.w3.org/2000/svg" xmlns:xlink="http://www.w3.org/1999/xlink" x="0px"
	 y="0px" viewBox="0 0 26.4 19.9" style="enable-background:new 0 0 26.4 19.9;" xml:space="preserve">
<style type="text/css">
	.st0{fill:#FCFCFC;}
</style>
<path class="st0" d="M13.3,0C6,0,0.1,4.4,0.1,9.9c0,2,0.8,4,2.1,5.5C1.9,17,1.1,18.6,0,19.9c2-0.2,3.9-0.8,5.6-1.9
	c2.3,1.2,4.9,1.9,7.6,1.9c7.2,0,13.2-4.3,13.2-9.9C26.5,4.6,20.6,0,13.3,0z M5.7,12C4.8,12,4,11.3,4,10.4s0.7-1.6,1.6-1.6
	s1.6,0.7,1.6,1.6S6.6,12,5.7,12z M13.2,12c-0.9,0-1.6-0.7-1.6-1.6s0.7-1.6,1.6-1.6s1.6,0.7,1.6,1.6S14.1,12,13.2,12z M20.7,12
	c-0.9,0-1.6-0.7-1.6-1.6s0.7-1.6,1.6-1.6c0.9,0,1.6,0.7,1.6,1.6S21.6,12,20.7,12z"/>
</svg>
