<svg xmlns="http://www.w3.org/2000/svg" viewBox="0 0 40.79 58.65"><defs><style>.cls-1{fill:none;stroke:#5db0f4;stroke-linecap:round;stroke-linejoin:round;stroke-width:2.7px;}.cls-2{fill:#fff;}.cls-3{fill:#7b869b;}</style></defs><g id="Layer_2" data-name="Layer 2"><g id="레이어_1" data-name="레이어 1"><line class="cls-1" x1="1.35" y1="57.3" x2="39.44" y2="57.3"/><path class="cls-2" d="M20.18,48a1.35,1.35,0,0,1-1.28-.94,67.71,67.71,0,0,1-2.77-12.52c-.2-1.73-.33-3.44-.37-5.08a49.69,49.69,0,0,1,.16-5.35c1.25-14.42,8.75-21.65,9.57-22.4A1.29,1.29,0,0,1,26,1.41a1.4,1.4,0,0,1,.41-.06l.21,0a1.39,1.39,0,0,1,.76.39c.72.66,5.42,5.25,8,14.09a42.65,42.65,0,0,1,1.09,4.78,45.09,45.09,0,0,1,.54,5A60.34,60.34,0,0,1,34,47.09a1.35,1.35,0,0,1-1.28.94Z"/><path class="cls-3" d="M26.44,2.7h0s5,4.4,7.68,13.53a37.51,37.51,0,0,1,1.05,4.62,44.2,44.2,0,0,1,.54,4.87,58.67,58.67,0,0,1-3,21H20.18a66.24,66.24,0,0,1-2.71-12.27c-.2-1.73-.32-3.38-.36-5a48.3,48.3,0,0,1,.16-5.19C18.53,9.64,26.37,2.75,26.43,2.7h0m0-2.7a2.83,2.83,0,0,0-.9.15,2.71,2.71,0,0,0-1,.61c-1.06,1-8.7,8.4-10,23.26a50,50,0,0,0-.17,5.5c0,1.68.17,3.43.38,5.21A69.22,69.22,0,0,0,17.61,47.5a2.7,2.7,0,0,0,2.57,1.88H32.69a2.7,2.7,0,0,0,2.57-1.88A61.68,61.68,0,0,0,38.4,25.58a45.42,45.42,0,0,0-.56-5.17,43.32,43.32,0,0,0-1.13-4.94C34,6.19,29,1.42,28.29.74A2.72,2.72,0,0,0,26.91,0a2.45,2.45,0,0,0-.48,0Z"/><path class="cls-2" d="M17.47,35.76a1.37,1.37,0,0,1-.65-.17,1.35,1.35,0,0,1-.69-1c-.2-1.73-.33-3.44-.37-5.08a1.34,1.34,0,0,1,.77-1.25l18.06-8.61a1.36,1.36,0,0,1,.58-.13,1.34,1.34,0,0,1,1.34,1.13,45.09,45.09,0,0,1,.54,5,1.34,1.34,0,0,1-.76,1.29L18.05,35.63A1.44,1.44,0,0,1,17.47,35.76Z"/><path class="cls-3" d="M35.17,20.85a42,42,0,0,1,.53,4.87L17.47,34.41c-.2-1.73-.32-3.38-.36-5l18.06-8.6m0-2.7a2.8,2.8,0,0,0-1.16.26L16,27a2.7,2.7,0,0,0-1.54,2.5c0,1.68.17,3.43.38,5.21a2.7,2.7,0,0,0,1.38,2,2.6,2.6,0,0,0,1.3.34,2.76,2.76,0,0,0,1.16-.26l18.24-8.69a2.7,2.7,0,0,0,1.53-2.58,45.42,45.42,0,0,0-.56-5.17,2.7,2.7,0,0,0-1.42-1.95,2.63,2.63,0,0,0-1.25-.31Z"/><path class="cls-2" d="M8.1,48a1.35,1.35,0,0,1-1.29-.94A67.31,67.31,0,0,1,4.05,34.57c-.21-1.74-.33-3.45-.37-5.08a47.31,47.31,0,0,1,.16-5.35C5.1,9.55,12.63,2.43,13.41,1.73A1.46,1.46,0,0,1,14,1.41a1.34,1.34,0,0,1,.4-.06l.22,0a1.34,1.34,0,0,1,.76.4c.78.73,5.45,5.35,8,14.08a41,41,0,0,1,1.09,4.78,45.07,45.07,0,0,1,.55,5,60.37,60.37,0,0,1-3.08,21.44A1.35,1.35,0,0,1,20.6,48Z"/><path class="cls-3" d="M14.35,2.7h0c.05,0,5,4.4,7.69,13.53a41.57,41.57,0,0,1,1.05,4.62,44.27,44.27,0,0,1,.53,4.87,58.67,58.67,0,0,1-3,21H8.1A66.24,66.24,0,0,1,5.39,34.41c-.21-1.73-.32-3.38-.36-5a45.92,45.92,0,0,1,.15-5.19C6.44,9.64,14.29,2.75,14.35,2.7h0m0-2.7a2.79,2.79,0,0,0-.9.15,3,3,0,0,0-1,.61c-1.05,1-8.7,8.41-10,23.26a50,50,0,0,0-.16,5.5c0,1.68.17,3.43.38,5.21A68.41,68.41,0,0,0,5.53,47.5,2.69,2.69,0,0,0,8.1,49.38H20.6a2.69,2.69,0,0,0,2.57-1.88,61.7,61.7,0,0,0,3.15-21.92,47.8,47.8,0,0,0-.57-5.17,43.3,43.3,0,0,0-1.12-4.94C21.92,6.2,17,1.43,16.21.74A2.64,2.64,0,0,0,14.84.05h0a2.38,2.38,0,0,0-.46,0Z"/><path class="cls-2" d="M5.39,35.76a1.41,1.41,0,0,1-.66-.17,1.34,1.34,0,0,1-.68-1c-.21-1.74-.33-3.45-.37-5.08a1.34,1.34,0,0,1,.77-1.25l18.06-8.61a1.29,1.29,0,0,1,.58-.13,1.34,1.34,0,0,1,1.33,1.13,45.07,45.07,0,0,1,.55,5,1.33,1.33,0,0,1-.77,1.29L6,35.63A1.52,1.52,0,0,1,5.39,35.76Z"/><path class="cls-3" d="M23.09,20.85a44.27,44.27,0,0,1,.53,4.87L5.39,34.41c-.21-1.73-.32-3.38-.36-5l18.06-8.6m0-2.7a2.76,2.76,0,0,0-1.16.26L3.87,27a2.68,2.68,0,0,0-1.54,2.5c0,1.68.17,3.43.38,5.21a2.7,2.7,0,0,0,2.68,2.38,2.8,2.8,0,0,0,1.16-.26l18.23-8.69a2.7,2.7,0,0,0,1.54-2.58,47.8,47.8,0,0,0-.57-5.17,2.69,2.69,0,0,0-1.41-1.95,2.63,2.63,0,0,0-1.25-.31Z"/></g></g></svg>