<svg xmlns="http://www.w3.org/2000/svg" viewBox="0 0 55.59 51.97"><defs><style>.cls-1{fill:none;stroke:#5db0f4;}.cls-1,.cls-4{stroke-linecap:round;stroke-linejoin:round;stroke-width:2.7px;}.cls-2,.cls-4{fill:#fff;}.cls-3{fill:#7b869b;}.cls-4{stroke:#7b869b;}</style></defs><g id="Layer_2" data-name="Layer 2"><g id="레이어_1" data-name="레이어 1"><line class="cls-1" x1="6.72" y1="44.98" x2="6.72" y2="50.62"/><line class="cls-1" x1="48.87" y1="44.98" x2="48.87" y2="50.62"/><path class="cls-2" d="M10.08,45A3.54,3.54,0,0,1,7,43.24a3.58,3.58,0,0,1,0-3.58L24.7,9a3.57,3.57,0,0,1,6.19,0L48.6,39.66A3.58,3.58,0,0,1,45.51,45Z"/><path class="cls-3" d="M27.79,8.54a2.2,2.2,0,0,1,1.93,1.12L47.43,40.34a2.22,2.22,0,0,1-1.92,3.34H10.08a2.23,2.23,0,0,1-1.93-3.34L25.87,9.66a2.17,2.17,0,0,1,1.92-1.12m0-2.7a4.86,4.86,0,0,0-4.26,2.47L5.81,39a4.93,4.93,0,0,0,4.27,7.39H45.51A4.93,4.93,0,0,0,49.77,39L32.06,8.31a4.87,4.87,0,0,0-4.27-2.47Z"/><line class="cls-1" x1="27.79" y1="1.35" x2="27.79" y2="43.68"/><line class="cls-4" x1="1.35" y1="44.98" x2="54.24" y2="44.98"/></g></g></svg>