<svg xmlns="http://www.w3.org/2000/svg" viewBox="0 0 50.09 48.42"><defs><style>.cls-1{fill:none;stroke:#5db0f4;}.cls-1,.cls-2{stroke-linecap:round;stroke-linejoin:round;stroke-width:2.7px;}.cls-2{fill:#fff;stroke:#7b869b;}</style></defs><g id="Layer_2" data-name="Layer 2"><g id="레이어_1" data-name="레이어 1"><line class="cls-1" x1="1.35" y1="47.07" x2="48.36" y2="47.07"/><path class="cls-2" d="M47.33,13.57a9,9,0,0,0-16.64,4.84l-9.42-3a8.4,8.4,0,0,0-15.5,4.51V38.67h43V18.41A9,9,0,0,0,47.33,13.57Z"/><path class="cls-2" d="M34.09,20.33V10.4A9,9,0,1,0,16,10.4v9.93"/><path class="cls-2" d="M30.81,25.18a6.81,6.81,0,0,0-12.57,3.66v9.83H31.88V28.84A6.82,6.82,0,0,0,30.81,25.18Z"/></g></g></svg>