<svg xmlns="http://www.w3.org/2000/svg" viewBox="0 0 43.78 49.38"><defs><style>.cls-1,.cls-3,.cls-5{fill:#fff;}.cls-1{stroke:#7b869b;}.cls-1,.cls-2,.cls-5{stroke-linecap:round;stroke-linejoin:round;stroke-width:2.7px;}.cls-2{fill:none;}.cls-2,.cls-5{stroke:#5db0f4;}.cls-4{fill:#7b869b;}</style></defs><g id="Layer_2" data-name="Layer 2"><g id="레이어_1" data-name="레이어 1"><line class="cls-1" x1="13.73" y1="19.22" x2="13.73" y2="5.93"/><line class="cls-1" x1="31.83" y1="3.43" x2="31.83" y2="19.22"/><line class="cls-2" x1="1.35" y1="7.93" x2="42.21" y2="1.35"/><path class="cls-3" d="M8.76,48a5.61,5.61,0,0,1-5.51-6.74L5.63,25.43a5.67,5.67,0,0,1,5.53-4.56H34.41a5.64,5.64,0,0,1,5.51,4.5l2.41,16A5.52,5.52,0,0,1,41.16,46,5.6,5.6,0,0,1,36.81,48Z"/><path class="cls-4" d="M34.41,22.22a4.28,4.28,0,0,1,4.19,3.42L41,41.56a4.27,4.27,0,0,1-4.19,5.12H8.76a4.27,4.27,0,0,1-4.19-5.12L7,25.64a4.26,4.26,0,0,1,4.19-3.42H34.41m0-2.7H11.16A7,7,0,0,0,4.32,25.1s0,.09,0,.13L1.91,41.09a7,7,0,0,0,6.85,8.29H36.81a7,7,0,0,0,6.85-8.29L41.27,25.23l0-.13a7,7,0,0,0-6.83-5.58Z"/><path class="cls-5" d="M33.77,31.1a3,3,0,0,0-2.91-2.37H14.71A3,3,0,0,0,11.8,31.1l-.67,8.06h23.3Z"/></g></g></svg>