<svg xmlns="http://www.w3.org/2000/svg" viewBox="0 0 51.27 49.03"><defs><style>.cls-1{fill:none;stroke:#5db0f4;stroke-linecap:round;stroke-linejoin:round;stroke-width:2.7px;}.cls-2{fill:#fff;}.cls-3{fill:#7b869b;}</style></defs><g id="Layer_2" data-name="Layer 2"><g id="레이어_1" data-name="레이어 1"><path class="cls-1" d="M26.33,1.85a.73.73,0,0,0-1.39,0L18.43,13.11,14.11,20.6h23Z"/><rect class="cls-2" x="1.35" y="11.63" width="48.56" height="36.04" rx="4.3"/><path class="cls-3" d="M45.61,13a3,3,0,0,1,3,3V43.38a3,3,0,0,1-3,2.95h-40A3,3,0,0,1,2.7,43.38V15.94a3,3,0,0,1,3-3h40m0-2.7h-40A5.67,5.67,0,0,0,0,15.94V43.38A5.66,5.66,0,0,0,5.65,49h40a5.67,5.67,0,0,0,5.66-5.65V15.94a5.67,5.67,0,0,0-5.66-5.66Z"/><path class="cls-2" d="M10.68,47.68A1.34,1.34,0,0,1,9.51,47a1.36,1.36,0,0,1,0-1.35l8.06-14a1.94,1.94,0,0,1,3.48,0l3.73,6.47a1.31,1.31,0,0,1,0,1.35L20.46,47a1.35,1.35,0,0,1-1.17.68Z"/><path class="cls-3" d="M19.31,32a.68.68,0,0,1,.57.41l3.74,6.47-4.33,7.49H10.68l8.06-14a.67.67,0,0,1,.57-.41m0-2.7A3.36,3.36,0,0,0,16.4,31L8.34,45A2.7,2.7,0,0,0,10.68,49h8.61a2.7,2.7,0,0,0,2.34-1.35L26,40.19a2.66,2.66,0,0,0,0-2.7L22.22,31a3.39,3.39,0,0,0-2.91-1.76Z"/><path class="cls-2" d="M19.29,47.68a1.36,1.36,0,0,1-1.17-2L29,26.9a2.07,2.07,0,0,1,3.73,0L43.51,45.65a1.36,1.36,0,0,1-1.17,2Z"/><path class="cls-3" d="M30.81,27.08a.83.83,0,0,1,.7.49L42.34,46.33H19.29l4.33-7.49,6.5-11.27a.83.83,0,0,1,.69-.49m0-2.7a3.53,3.53,0,0,0-3,1.84l-6.5,11.27L17,45A2.7,2.7,0,0,0,19.29,49H42.34A2.7,2.7,0,0,0,44.68,45L33.85,26.22a3.53,3.53,0,0,0-3-1.84Z"/><circle class="cls-1" cx="12.18" cy="23.56" r="2.96"/></g></g></svg>