<svg xmlns="http://www.w3.org/2000/svg" viewBox="0 0 49.52 39.13"><defs><style>.cls-1,.cls-3{fill:#fff;}.cls-2{fill:#7b869b;}.cls-3{stroke:#5db0f4;stroke-linecap:round;stroke-linejoin:round;stroke-width:2.7px;}</style></defs><g id="Layer_2" data-name="Layer 2"><g id="레이어_1" data-name="레이어 1"><path class="cls-1" d="M10.57,21.24A3.82,3.82,0,0,1,6.76,16.3L9.54,5.61a5.92,5.92,0,0,1,5.51-4.26H34.47A5.93,5.93,0,0,1,40,5.61L42.76,16.3a3.82,3.82,0,0,1-3.82,4.94Z"/><path class="cls-2" d="M34.47,2.7A4.59,4.59,0,0,1,38.67,6l2.78,10.69a2.47,2.47,0,0,1-2.51,3.25H10.57a2.47,2.47,0,0,1-2.5-3.25L10.85,6a4.57,4.57,0,0,1,4.2-3.25H34.47m0-2.7H15.05A7.32,7.32,0,0,0,8.24,5.27L5.45,16a5.17,5.17,0,0,0,5.12,6.63H38.94A5.16,5.16,0,0,0,44.06,16L41.28,5.27A7.32,7.32,0,0,0,34.47,0Z"/><path class="cls-1" d="M10.77,37.78A3.8,3.8,0,0,1,7,34V29.84a1.34,1.34,0,0,1,1.35-1.35h4.9a1.35,1.35,0,0,1,1.35,1.35V34A3.81,3.81,0,0,1,10.77,37.78Z"/><path class="cls-2" d="M13.22,29.84V34a2.45,2.45,0,0,1-4.9,0V29.84h4.9m0-2.7H8.32a2.7,2.7,0,0,0-2.7,2.7V34a5.15,5.15,0,1,0,10.3,0V29.84a2.7,2.7,0,0,0-2.7-2.7Z"/><path class="cls-1" d="M38.75,37.78A3.8,3.8,0,0,1,35,34V29.84a1.34,1.34,0,0,1,1.35-1.35h4.9a1.34,1.34,0,0,1,1.35,1.35V34A3.81,3.81,0,0,1,38.75,37.78Z"/><path class="cls-2" d="M41.2,29.84V34a2.45,2.45,0,0,1-4.9,0V29.84h4.9m0-2.7H36.3a2.7,2.7,0,0,0-2.7,2.7V34a5.15,5.15,0,0,0,10.3,0V29.84a2.7,2.7,0,0,0-2.7-2.7Z"/><path class="cls-1" d="M6.78,31.19a5.44,5.44,0,0,1-5.43-5.44V20a5.44,5.44,0,0,1,5.43-5.43H42.73A5.44,5.44,0,0,1,48.17,20v5.71a5.45,5.45,0,0,1-5.44,5.44Z"/><path class="cls-2" d="M42.73,16A4.09,4.09,0,0,1,46.82,20v5.72a4.09,4.09,0,0,1-4.09,4.08H6.78A4.08,4.08,0,0,1,2.7,25.76V20A4.09,4.09,0,0,1,6.78,16H42.73m0-2.7H6.78A6.8,6.8,0,0,0,0,20v5.72a6.79,6.79,0,0,0,6.78,6.78H42.73a6.79,6.79,0,0,0,6.79-6.78V20a6.8,6.8,0,0,0-6.79-6.79Z"/><path class="cls-3" d="M12.83,22.9A2.86,2.86,0,1,1,10,20,2.86,2.86,0,0,1,12.83,22.9Z"/><path class="cls-3" d="M42.4,22.9A2.86,2.86,0,1,1,39.54,20,2.86,2.86,0,0,1,42.4,22.9Z"/></g></g></svg>