<svg xmlns="http://www.w3.org/2000/svg" viewBox="0 0 58.99 37.35"><defs><style>.cls-1,.cls-2{fill:#fff;stroke-linecap:round;stroke-linejoin:round;stroke-width:2.7px;}.cls-1{stroke:#7b869b;}.cls-2{stroke:#5db0f4;}</style></defs><g id="Layer_2" data-name="Layer 2"><g id="레이어_1" data-name="레이어 1"><path class="cls-1" d="M21,13.66a2,2,0,0,0,2.69,1L35.54,8.74a1.06,1.06,0,0,1,.74-.08l2.14.57a1.07,1.07,0,0,1,.63,1.6l-2,3.05a1.06,1.06,0,0,0,.28,1.44l3.22,2.26a4.76,4.76,0,0,0,4.37.63L49,16.77a1,1,0,0,1,.63,0L54.37,18a1.06,1.06,0,0,0,1.3-.76L57.6,9.79a1.06,1.06,0,0,0-.75-1.29l-6-1.59-.12,0L37.51,1.65a4.21,4.21,0,0,0-4,.47l-11.79,8A2.86,2.86,0,0,0,21,13.66Z"/><path class="cls-1" d="M40.39,17.44l-3.85-2.7-5.47-.91A1.92,1.92,0,0,1,29.61,12h0A2,2,0,0,1,31,9.82L35.9,8.56l4.59,1.22"/><path class="cls-2" d="M38,23.7a2,2,0,0,0-2.68-1L23.45,28.62a1.08,1.08,0,0,1-.75.07l-2.13-.56a1.07,1.07,0,0,1-.63-1.6l2-3.06A1.06,1.06,0,0,0,21.62,22L18.4,19.78A4.74,4.74,0,0,0,14,19.14L10,20.59a1,1,0,0,1-.63,0L4.62,19.36a1.06,1.06,0,0,0-1.3.76L1.38,27.56a1.06,1.06,0,0,0,.76,1.29l6,1.59.12,0,13.23,5.23a4.24,4.24,0,0,0,4-.47l11.79-8A2.85,2.85,0,0,0,38,23.7Z"/><path class="cls-2" d="M18.6,19.92l3.85,2.7,5.47.91a1.92,1.92,0,0,1,1.46,1.83h0A2,2,0,0,1,28,27.53l-4.95,1.26L18.5,27.58"/></g></g></svg>