<svg xmlns="http://www.w3.org/2000/svg" viewBox="0 0 59.31 29.11"><defs><style>.cls-1{fill:none;}.cls-1,.cls-2{stroke:#5db0f4;}.cls-1,.cls-2,.cls-3{stroke-linecap:round;stroke-linejoin:round;stroke-width:2.7px;}.cls-2,.cls-3{fill:#fff;}.cls-3{stroke:#7b869b;}</style></defs><g id="Layer_2" data-name="Layer 2"><g id="레이어_1" data-name="레이어 1"><path class="cls-1" d="M1.35,1.35a85.66,85.66,0,0,0,28.3,4.49A85.77,85.77,0,0,0,58,1.35"/><path class="cls-2" d="M34.61,27.62l-4.46-2.77a.93.93,0,0,0-1,0L24.7,27.62a.94.94,0,0,1-1.44-.8V13.91A.94.94,0,0,1,24.2,13H35.1a.94.94,0,0,1,.94.94V26.82A.94.94,0,0,1,34.61,27.62Z"/><path class="cls-3" d="M13.41,26.6l-4-3.36a.94.94,0,0,0-1-.14L3.6,25.24a.94.94,0,0,1-1.32-1L4.05,11.47a.94.94,0,0,1,1.06-.81L15.9,12.15a.94.94,0,0,1,.81,1.06L14.94,26A.94.94,0,0,1,13.41,26.6Z"/><path class="cls-3" d="M45.9,26.6l4-3.36a1,1,0,0,1,1-.14l4.79,2.14a.94.94,0,0,0,1.32-1L55.26,11.47a.94.94,0,0,0-1.06-.81L43.4,12.15a.94.94,0,0,0-.8,1.06L44.36,26A1,1,0,0,0,45.9,26.6Z"/></g></g></svg>