<svg xmlns="http://www.w3.org/2000/svg" viewBox="0 0 45.44 58.63"><defs><style>.cls-1,.cls-4{fill:#fff;}.cls-2{fill:#7b869b;}.cls-3{fill:none;stroke:#5db0f4;}.cls-3,.cls-4{stroke-linecap:round;stroke-linejoin:round;stroke-width:2.7px;}.cls-4{stroke:#7b869b;}</style></defs><g id="Layer_2" data-name="Layer 2"><g id="레이어_1" data-name="레이어 1"><path class="cls-1" d="M7.57,35.88a1.72,1.72,0,0,1-1.69-1.74V30a1.72,1.72,0,0,1,1.69-1.74H37.86A1.72,1.72,0,0,1,39.56,30v4.16a1.72,1.72,0,0,1-1.7,1.74Z"/><path class="cls-2" d="M37.86,29.59a.38.38,0,0,1,.35.39v4.16a.38.38,0,0,1-.35.39H7.58a.37.37,0,0,1-.35-.39V30a.37.37,0,0,1,.35-.39H37.86m0-2.7H7.58a3.08,3.08,0,0,0-3,3.09v4.16a3.08,3.08,0,0,0,3.05,3.09H37.86a3.08,3.08,0,0,0,3-3.09V30a3.08,3.08,0,0,0-3-3.09Z"/><path class="cls-1" d="M11.38,49.28a1.72,1.72,0,0,1-1.69-1.74V37.92a1.72,1.72,0,0,1,1.69-1.73H34.06a1.72,1.72,0,0,1,1.69,1.73v9.62a1.72,1.72,0,0,1-1.69,1.74Z"/><path class="cls-2" d="M34.06,37.53a.37.37,0,0,1,.34.39v9.62a.37.37,0,0,1-.34.39H11.38a.37.37,0,0,1-.34-.39V37.92a.37.37,0,0,1,.34-.39H34.06m0-2.7H11.38a3.07,3.07,0,0,0-3,3.09v9.62a3.07,3.07,0,0,0,3,3.09H34.06a3.07,3.07,0,0,0,3-3.09V37.92a3.07,3.07,0,0,0-3-3.09Z"/><line class="cls-3" x1="22.68" y1="14.84" x2="22.68" y2="1.35"/><path class="cls-1" d="M15.33,27.94a1.73,1.73,0,0,1-1.4-.73L9.19,20.53A1.84,1.84,0,0,1,8.94,19a1.73,1.73,0,0,1,1-1.12c2-.79,4.85-3.82,6.65-6.17A1.69,1.69,0,0,1,18,11H27.4a1.67,1.67,0,0,1,1.35.67C30.55,14,33.37,17,35.4,17.83a1.7,1.7,0,0,1,1,1.12,1.81,1.81,0,0,1-.26,1.58l-4.73,6.68a1.75,1.75,0,0,1-1.4.73Z"/><path class="cls-2" d="M27.4,12.34a.35.35,0,0,1,.28.14c.67.87,4.27,5.46,7.23,6.61a.44.44,0,0,1,.15.66l-4.73,6.68a.38.38,0,0,1-.3.16H15.33a.37.37,0,0,1-.3-.16L10.3,19.75a.44.44,0,0,1,.15-.66c3-1.15,6.56-5.74,7.23-6.61a.35.35,0,0,1,.28-.14H27.4m0-2.7H18a3,3,0,0,0-2.43,1.2c-1.77,2.31-4.42,5.09-6.06,5.73a3.05,3.05,0,0,0-1.82,2,3.17,3.17,0,0,0,.44,2.74L12.83,28a3.09,3.09,0,0,0,2.5,1.3H30a3.09,3.09,0,0,0,2.5-1.3l4.74-6.68a3.19,3.19,0,0,0,.44-2.75,3.06,3.06,0,0,0-1.82-2c-1.65-.64-4.3-3.42-6.07-5.73a3,3,0,0,0-2.42-1.2Z"/><line class="cls-4" x1="10.29" y1="19.29" x2="36.11" y2="19.29"/><line class="cls-3" x1="1.35" y1="57.28" x2="44.09" y2="57.28"/></g></g></svg>