<svg xmlns="http://www.w3.org/2000/svg" viewBox="0 0 33.43 51.87"><defs><style>.cls-1{fill:#fff;}.cls-2{fill:#565656;}</style></defs><g id="Layer_2" data-name="Layer 2"><g id="레이어_1" data-name="레이어 1"><path class="cls-1" d="M17,18.71a3.24,3.24,0,0,1-1.74-.51A3.23,3.23,0,0,1,17,12.26a3.22,3.22,0,0,1,2.71,5A3.2,3.2,0,0,1,17,18.71Z"/><path class="cls-2" d="M17,13.26a2.2,2.2,0,0,1,1.2.35,2.23,2.23,0,0,1-1.2,4.1,2.23,2.23,0,0,1,0-4.45m0-2h0a4.23,4.23,0,1,0,2.28.67A4.22,4.22,0,0,0,17,11.26Z"/><path class="cls-1" d="M29.2,26.57a3.17,3.17,0,0,1-1.74-.52L15.25,18.2a1,1,0,0,1-.3-1.38l2.4-3.75a1,1,0,0,1,.63-.43.76.76,0,0,1,.21,0,1,1,0,0,1,.54.16L31,20.63a3.23,3.23,0,0,1,1,4.46A3.22,3.22,0,0,1,29.2,26.57Z"/><path class="cls-2" d="M18.19,13.61l12.22,7.86A2.22,2.22,0,1,1,28,25.21L15.79,17.36l2.4-3.75m0-2a2.05,2.05,0,0,0-1.68.92L14.1,16.28A2,2,0,0,0,14.7,19l12.22,7.85a4.2,4.2,0,0,0,2.28.68,4.23,4.23,0,0,0,2.29-7.78L19.27,11.93a2,2,0,0,0-1.08-.32Z"/><path class="cls-1" d="M17,35.08a3.82,3.82,0,0,1-1.26-7.43A3.8,3.8,0,0,1,20.6,30a3.83,3.83,0,0,1-2.35,4.87A3.87,3.87,0,0,1,17,35.08Z"/><path class="cls-2" d="M17,28.43a2.83,2.83,0,0,1,.93,5.49,2.76,2.76,0,0,1-.93.16,2.82,2.82,0,0,1-.93-5.49,3,3,0,0,1,.93-.16m0-2h0a5.1,5.1,0,0,0-1.59.27,4.83,4.83,0,0,0-2.75,2.46,4.75,4.75,0,0,0-.21,3.68A4.82,4.82,0,1,0,17,26.43Z"/><path class="cls-1" d="M11.05,50.87a3.81,3.81,0,0,1-3.57-5.16l5.93-15.8a1,1,0,0,1,.94-.64,1.12,1.12,0,0,1,.35.06l5.28,2a1,1,0,0,1,.56.53,1,1,0,0,1,0,.76L14.63,48.4A3.83,3.83,0,0,1,11.05,50.87Z"/><path class="cls-2" d="M14.35,30.27l5.28,2L13.7,48a2.82,2.82,0,0,1-2.65,1.83,2.66,2.66,0,0,1-1-.18,2.81,2.81,0,0,1-1.65-3.63l5.94-15.79m0-2a2,2,0,0,0-1.87,1.29L6.54,45.36a4.82,4.82,0,0,0,2.82,6.21,4.85,4.85,0,0,0,6.21-2.82L21.5,33a2,2,0,0,0-.05-1.53,2,2,0,0,0-1.12-1l-5.28-2a2.1,2.1,0,0,0-.7-.12Z"/><circle class="cls-1" cx="16.99" cy="5.81" r="4.81"/><path class="cls-2" d="M17,2a3.81,3.81,0,1,1-3.81,3.81A3.82,3.82,0,0,1,17,2m0-2A5.81,5.81,0,1,0,22.8,5.81,5.82,5.82,0,0,0,17,0Z"/><path class="cls-1" d="M27.63,50.83a3.86,3.86,0,0,1-3.74-3l-1.56-7.15-7.09-5.91a5.54,5.54,0,0,1-3.78-5.22v-7L6,26.05a3.17,3.17,0,0,1-1.74.52,3.25,3.25,0,0,1-2.72-1.48,3.2,3.2,0,0,1-.43-2.43,3.17,3.17,0,0,1,1.4-2c4.14-2.69,11-7.14,12.09-7.78l.12-.08a1,1,0,0,1,.37-.14,5.58,5.58,0,0,1,2-.37l.51,0a5.66,5.66,0,0,1,5,5.69V29.55a2.63,2.63,0,0,0,.83,2l4.89,4.07a3.8,3.8,0,0,1,1.23,2,.55.55,0,0,1,.05.17L31.33,46a3.92,3.92,0,0,1-2.68,4.66,4,4,0,0,1-1,.14Z"/><path class="cls-2" d="M17,13.26l.41,0A4.66,4.66,0,0,1,21.51,18V29.57a3.58,3.58,0,0,0,1.19,2.78l4.89,4.07A2.77,2.77,0,0,1,28.53,38h0l1.81,8.27a2.93,2.93,0,0,1-2,3.48,2.83,2.83,0,0,1-3.51-2.12l-1.64-7.48-7.5-6.25a4.52,4.52,0,0,1-3.27-4.33V20.69l-7,4.52a2.2,2.2,0,0,1-3.07-.67h0A2.22,2.22,0,0,1,3,21.47s11.66-7.58,12.09-7.78l.13-.08v0A4.52,4.52,0,0,1,17,13.26m0-2h0a6.38,6.38,0,0,0-2.27.42,2,2,0,0,0-.6.25L14,12h0c-.61.37-2.86,1.78-12.1,7.78a4.22,4.22,0,1,0,4.58,7.1l4-2.54v5.2a6.56,6.56,0,0,0,4.28,6.11l6.68,5.57L22.92,48a4.84,4.84,0,0,0,4.71,3.79,5.06,5.06,0,0,0,1.28-.17,4.91,4.91,0,0,0,3.39-5.84l-1.81-8.27a1.38,1.38,0,0,0-.08-.27,4.74,4.74,0,0,0-1.54-2.4L24,30.81a1.61,1.61,0,0,1-.47-1.23V18a6.68,6.68,0,0,0-5.89-6.69l-.6,0Z"/></g></g></svg>