<svg xmlns="http://www.w3.org/2000/svg" viewBox="0 0 84.28 81.35"><defs><style>.cls-1{fill:#3f9eff;}</style></defs><g id="Layer_2" data-name="Layer 2"><g id="레이어_1" data-name="레이어 1"><path class="cls-1" d="M5.6,59.22c-1.76-3.34,5.89-6.9,7.7-3.76C31.22,86.4,75.73,72.51,75.73,40.89,75.73,11,40.67-3.33,19.65,20.62l7.85,5.67c2.49,1.8,2.54,2.79-.12,3.89-7.72,3.19-15.46,6.35-23.14,9.61-3.5,1.48-4.49.89-4.19-3C.68,28.46,1.31,20.29,1.92,12c.21-2.81.86-3.54,3.31-1.77l7.47,5.41C38.56-15,84.28,2.68,84.28,40.89c0,41.22-58.29,57-78.68,18.33Z"/></g></g></svg>