<svg xmlns="http://www.w3.org/2000/svg" viewBox="0 0 54.95 36.11"><defs><style>.cls-1{fill:#fff;}.cls-2{fill:#6f6f6f;}</style></defs><g id="Layer_2" data-name="Layer 2"><g id="레이어_1" data-name="레이어 1"><path class="cls-1" d="M2,30.11a1,1,0,0,1-1-1V20.63a6.88,6.88,0,0,1,6.87-6.87h2.26L13.34,3.07A2.9,2.9,0,0,1,16.13,1H38.82a2.9,2.9,0,0,1,2.79,2.08l3.2,10.68h2.26a5,5,0,0,1,.67,0A6.83,6.83,0,0,1,54,20.62v8.49a1,1,0,0,1-1,1Z"/><path class="cls-2" d="M38.82,2a1.91,1.91,0,0,1,1.83,1.36l3.42,11.4h3a5.07,5.07,0,0,1,.55,0A5.87,5.87,0,0,1,53,20.62v8.49H2V20.63a5.87,5.87,0,0,1,5.87-5.87h3L14.3,3.36A1.91,1.91,0,0,1,16.13,2H38.82m0-2H16.13a3.9,3.9,0,0,0-3.75,2.79l-3,10H7.87A7.88,7.88,0,0,0,0,20.63v8.48a2,2,0,0,0,2,2H53a2,2,0,0,0,2-2V20.62a7.83,7.83,0,0,0-7.12-7.82,6.23,6.23,0,0,0-.76,0H45.56l-3-10A3.88,3.88,0,0,0,38.82,0Z"/><circle class="cls-1" cx="13.56" cy="29.11" r="6"/><path class="cls-2" d="M13.56,24.1a5,5,0,1,1-5,5,5,5,0,0,1,5-5m0-2a7,7,0,1,0,7,7,7,7,0,0,0-7-7Z"/><circle class="cls-1" cx="41.39" cy="29.11" r="6"/><path class="cls-2" d="M41.39,24.1a5,5,0,1,1-5,5,5,5,0,0,1,5-5m0-2a7,7,0,1,0,7,7,7,7,0,0,0-7-7Z"/><path class="cls-1" d="M17.23,15.33a1,1,0,0,1-1-1.28l1.94-6.77a1,1,0,0,1,1-.73h8.3a1,1,0,0,1,1,1v6.78a1,1,0,0,1-1,1Z"/><path class="cls-2" d="M27.47,7.55v6.78H17.23l1.94-6.78h8.3m0-2h-8.3A2,2,0,0,0,17.25,7l-1.94,6.77a2,2,0,0,0,.32,1.76,2,2,0,0,0,1.6.8H27.47a2,2,0,0,0,2-2V7.55a2,2,0,0,0-2-2Z"/><path class="cls-1" d="M27.47,15.33a1,1,0,0,1-1-1V7.55a1,1,0,0,1,1-1h8.3a1,1,0,0,1,1,.73l1.94,6.77a1,1,0,0,1-.16.88,1,1,0,0,1-.8.4Z"/><path class="cls-2" d="M35.77,7.55l1.95,6.78H27.47V7.55h8.3m0-2h-8.3a2,2,0,0,0-2,2v6.78a2,2,0,0,0,2,2H37.72a2,2,0,0,0,1.6-.8,2,2,0,0,0,.32-1.76L37.7,7a2,2,0,0,0-1.93-1.45Z"/></g></g></svg>