<svg xmlns="http://www.w3.org/2000/svg" viewBox="0 0 49.4 47.76"><defs><style>.cls-1{fill:#fff;}.cls-2{fill:#5db0f4;}.cls-3{fill:#7b869b;}</style></defs><g id="Layer_2" data-name="Layer 2"><g id="레이어_1" data-name="레이어 1"><path class="cls-1" d="M18.78,46.4a1.34,1.34,0,0,1-1.34-1.48l3-30.48a1.35,1.35,0,0,1,1.34-1.21h5.8a1.35,1.35,0,0,1,1.34,1.21l3,30.48a1.34,1.34,0,0,1-1.34,1.48Z"/><path class="cls-2" d="M27.6,14.58l1.2,12.19.94,9.45.88,8.83H18.78l.88-8.83.94-9.45,1.2-12.19h5.8m0-2.7H21.8a2.69,2.69,0,0,0-2.68,2.43L17.91,26.5,17,36l-.87,8.84a2.69,2.69,0,0,0,.68,2.08,2.72,2.72,0,0,0,2,.89H30.62a2.72,2.72,0,0,0,2-.89,2.69,2.69,0,0,0,.68-2.08L32.43,36l-.94-9.45L30.28,14.31a2.69,2.69,0,0,0-2.68-2.43Z"/><path class="cls-1" d="M40,36.2a1.36,1.36,0,0,1-.95-.39L25.24,22A1.08,1.08,0,0,1,25,21.9a1.44,1.44,0,0,0-.3,0,1.63,1.63,0,0,0-.3,0,1.35,1.35,0,0,1-.26.15L10.38,35.81a1.36,1.36,0,0,1-1,.39h-.1a1.39,1.39,0,0,1-1-.54C5.65,32,6.73,26.15,10.84,21.87H2.7a1.33,1.33,0,0,1-1-.47,1.37,1.37,0,0,1-.32-1.08c.68-4.55,5.78-8,11.86-8a15.43,15.43,0,0,1,3.41.38L10.87,4a1.32,1.32,0,0,1-.17-1.11A1.35,1.35,0,0,1,11.42,2a7.53,7.53,0,0,1,3.18-.68c3.67,0,7.51,2.36,10,6.17l.07.1.07-.1c2.52-3.81,6.36-6.17,10-6.17A7.5,7.5,0,0,1,38,2a1.35,1.35,0,0,1,.72.86A1.32,1.32,0,0,1,38.53,4l-5.76,8.71a15.43,15.43,0,0,1,3.41-.38c6.08,0,11.18,3.44,11.85,8a1.35,1.35,0,0,1-1.33,1.55H38.56c4.11,4.28,5.19,10.16,2.5,13.79a1.39,1.39,0,0,1-1,.54Z"/><path class="cls-3" d="M34.8,2.7a6.09,6.09,0,0,1,2.61.56L29.28,15.54a13.15,13.15,0,0,1,6.9-1.86c5.46,0,10,3,10.52,6.84H34.76a14.23,14.23,0,0,1,2.61,2.06c3.86,3.86,4.92,9.15,2.6,12.27L25.85,20.73l-.06.08a2.19,2.19,0,0,0-2.18,0l-.06-.08L9.43,34.85C7.11,31.73,8.17,26.44,12,22.58a14.23,14.23,0,0,1,2.61-2.06H2.7c.57-3.84,5.06-6.84,10.52-6.84a13.15,13.15,0,0,1,6.9,1.86L12,3.26A6.09,6.09,0,0,1,14.6,2.7c3.09,0,6.58,2.05,8.9,5.56a14.54,14.54,0,0,1,1.2,2.22,14.54,14.54,0,0,1,1.2-2.22c2.32-3.51,5.81-5.56,8.9-5.56m0-2.7h0c-3.62,0-7.37,2-10.1,5.34C22,2,18.22,0,14.6,0a8.74,8.74,0,0,0-3.75.81A2.71,2.71,0,0,0,9.74,4.75L13.88,11h-.66C6.48,11,.8,14.91,0,20.12a2.65,2.65,0,0,0,.63,2.16,2.66,2.66,0,0,0,2,.94H8c-3,4.42-3.37,9.72-.76,13.24a2.66,2.66,0,0,0,2,1.08h.2a2.7,2.7,0,0,0,1.91-.79L24.7,23.4,38.06,36.76a2.7,2.7,0,0,0,1.91.79h.2a2.65,2.65,0,0,0,2-1.08c2.61-3.52,2.2-8.82-.76-13.24H46.7a2.7,2.7,0,0,0,2.67-3.1C48.6,14.91,42.92,11,36.18,11h-.66l4.14-6.24A2.71,2.71,0,0,0,38.55.81,8.74,8.74,0,0,0,34.8,0Z"/></g></g></svg>