<svg xmlns="http://www.w3.org/2000/svg" viewBox="0 0 59.31 45.71"><defs><style>.cls-1{fill:none;stroke:#7b869b;stroke-linecap:round;stroke-linejoin:round;stroke-width:2.7px;}.cls-2{fill:#fff;}.cls-3{fill:#7b869b;}.cls-4{fill:#5db0f4;}</style></defs><g id="Layer_2" data-name="Layer 2"><g id="레이어_1" data-name="레이어 1"><path class="cls-1" d="M42.71,2.38c0,9-5.77,16.22-12.89,16.22S16.93,11.34,16.93,2.38"/><rect class="cls-2" x="10.2" y="1.35" width="6.92" height="43.01" rx="1.35"/><path class="cls-3" d="M15.77,2.7V43H11.55V2.7h4.22m0-2.7H11.55a2.7,2.7,0,0,0-2.7,2.7V43a2.7,2.7,0,0,0,2.7,2.7h4.22a2.7,2.7,0,0,0,2.7-2.7V2.7A2.7,2.7,0,0,0,15.77,0Z"/><rect class="cls-2" x="42.19" y="1.35" width="6.92" height="43.01" rx="1.35"/><path class="cls-3" d="M47.76,2.7V43H43.53V2.7h4.23m0-2.7H43.53a2.7,2.7,0,0,0-2.7,2.7V43a2.7,2.7,0,0,0,2.7,2.7h4.23a2.7,2.7,0,0,0,2.7-2.7V2.7A2.7,2.7,0,0,0,47.76,0Z"/><line class="cls-1" x1="33.99" y1="18.6" x2="33.99" y2="25.4"/><line class="cls-1" x1="25.32" y1="17.77" x2="25.32" y2="25.4"/><rect class="cls-2" x="1.35" y="26.01" width="56.6" height="7.08" rx="1.35"/><path class="cls-4" d="M56.61,27.36v4.39H2.7V27.36H56.61m0-2.7H2.7A2.7,2.7,0,0,0,0,27.36v4.39a2.7,2.7,0,0,0,2.7,2.7H56.61a2.7,2.7,0,0,0,2.7-2.7V27.36a2.7,2.7,0,0,0-2.7-2.7Z"/></g></g></svg>