<svg xmlns="http://www.w3.org/2000/svg" viewBox="0 0 64.5 63.66"><defs><style>.cls-1{fill:#fff;stroke:#7b869b;}.cls-1,.cls-2{stroke-linecap:round;stroke-linejoin:round;stroke-width:2.7px;}.cls-2{fill:none;stroke:#5db0f4;}</style></defs><g id="Layer_2" data-name="Layer 2"><g id="레이어_1" data-name="레이어 1"><path class="cls-1" d="M18.8,31.83c0,11.06,3.52,21.08,9.23,28.38a5.5,5.5,0,0,0,8.65,0c5.71-7.3,9.23-17.32,9.23-28.38S42.39,10.75,36.68,3.46a5.49,5.49,0,0,0-8.65,0C22.32,10.75,18.8,20.77,18.8,31.83Z"/><path class="cls-1" d="M26,41.43a16.14,16.14,0,0,0,4.35,11.09,2.94,2.94,0,0,0,4.07,0,16.3,16.3,0,0,0,0-22.17,2.92,2.92,0,0,0-4.07,0A16.09,16.09,0,0,0,26,41.43Z"/><path class="cls-2" d="M10.63,41.43c0,1.58-4.65,2.85-7.2,2.85s-2-1.27-2-2.85-.52-2.85,2-2.85S10.63,39.86,10.63,41.43Z"/><path class="cls-2" d="M53.87,41.43c0,1.58,4.65,2.85,7.21,2.85s2-1.27,2-2.85.52-2.85-2-2.85S53.87,39.86,53.87,41.43Z"/><line class="cls-2" x1="10.63" y1="41.43" x2="53.87" y2="41.43"/></g></g></svg>