<svg xmlns="http://www.w3.org/2000/svg" viewBox="0 0 44.38 48.44"><defs><style>.cls-1,.cls-2{fill:#fff;}.cls-1,.cls-4{stroke:#5db0f4;stroke-linecap:round;stroke-linejoin:round;stroke-width:2.7px;}.cls-3{fill:#7b869b;}.cls-4{fill:none;}</style></defs><g id="Layer_2" data-name="Layer 2"><g id="레이어_1" data-name="레이어 1"><line class="cls-1" x1="6.78" y1="22.28" x2="6.78" y2="9.91"/><line class="cls-1" x1="37.6" y1="9.91" x2="37.6" y2="22.28"/><path class="cls-2" d="M5.31,9.91A1.35,1.35,0,0,1,4.25,7.72l4-5.12a3.2,3.2,0,0,1,2.47-1.25H33.62A3.18,3.18,0,0,1,36.09,2.6l4,5.12a1.36,1.36,0,0,1-1.06,2.19Z"/><path class="cls-3" d="M33.62,2.7A1.83,1.83,0,0,1,35,3.44l4,5.12H5.31l4-5.12a1.84,1.84,0,0,1,1.41-.74H33.62m0-2.7H10.76A4.47,4.47,0,0,0,7.24,1.77L3.19,6.89a2.7,2.7,0,0,0,2.12,4.37H39.08a2.69,2.69,0,0,0,2.11-4.37l-4-5.12A4.5,4.5,0,0,0,33.62,0Z"/><line class="cls-4" x1="11.4" y1="24.44" x2="11.4" y2="47.09"/><line class="cls-4" x1="22.19" y1="24.44" x2="22.19" y2="47.09"/><line class="cls-4" x1="32.98" y1="24.44" x2="32.98" y2="47.09"/><path class="cls-3" d="M41.68,25.4V45.57H2.7V25.4h39m0-2.7H2.7A2.7,2.7,0,0,0,0,25.4V45.57a2.7,2.7,0,0,0,2.7,2.7h39a2.7,2.7,0,0,0,2.7-2.7V25.4a2.7,2.7,0,0,0-2.7-2.7Z"/></g></g></svg>