<svg xmlns="http://www.w3.org/2000/svg" viewBox="0 0 57.69 51.27"><defs><style>.cls-1{fill:#fff;}.cls-2{fill:#5db0f4;}.cls-3{fill:#7b869b;}.cls-4{fill:none;stroke:#7b869b;stroke-linecap:round;stroke-linejoin:round;stroke-width:2.7px;}</style></defs><g id="Layer_2" data-name="Layer 2"><g id="레이어_1" data-name="레이어 1"><path class="cls-1" d="M13.54,36.55c-2.23,0-3.94-.82-4.8-2.33a5.26,5.26,0,0,1,.38-5.32L21,8.34a2.06,2.06,0,0,1,3.7,0L36.57,28.9A5.29,5.29,0,0,1,37,34.22a5.3,5.3,0,0,1-4.81,2.33Z"/><path class="cls-2" d="M22.85,8.53a.84.84,0,0,1,.68.48L35.4,29.58c1.79,3.09.33,5.62-3.25,5.62H13.54c-3.57,0-5-2.53-3.25-5.62L22.17,9a.81.81,0,0,1,.68-.48m0-2.7a3.49,3.49,0,0,0-3,1.83L8,28.23a6.58,6.58,0,0,0-.39,6.67,6.58,6.58,0,0,0,6,3H32.15a6.57,6.57,0,0,0,6-3,6.55,6.55,0,0,0-.38-6.67L25.87,7.66a3.51,3.51,0,0,0-3-1.83Z"/><path class="cls-1" d="M24.12,36.55c-2.31,0-4.07-.85-5-2.4s-.75-3.51.41-5.51l15-26a2.33,2.33,0,0,1,2-1.27,2.31,2.31,0,0,1,2,1.27l15,26c1.15,2,1.29,4,.4,5.51s-2.66,2.4-5,2.4Z"/><path class="cls-3" d="M36.58,2.7a1,1,0,0,1,.83.59l15,26c1.87,3.24.34,5.88-3.4,5.88H24.12c-3.73,0-5.26-2.64-3.39-5.88l15-26a1,1,0,0,1,.83-.59m0-2.7a3.7,3.7,0,0,0-3.17,2l-15,26c-1.39,2.4-1.54,4.9-.41,6.85s3.37,3.08,6.14,3.08H49c2.77,0,5-1.12,6.14-3.08s1-4.45-.4-6.85l-15-26A3.7,3.7,0,0,0,36.58,0Z"/><path class="cls-4" d="M56.34,47.64h0a7.77,7.77,0,0,0-11,0h0a7.76,7.76,0,0,1-11,0h0a7.77,7.77,0,0,0-11,0h0a7.77,7.77,0,0,1-11,0h0a7.77,7.77,0,0,0-11,0h0"/></g></g></svg>