<svg xmlns="http://www.w3.org/2000/svg" viewBox="0 0 48.62 61.56"><defs><style>.cls-1,.cls-3{fill:#fff;}.cls-2{fill:#7b869b;}.cls-3{stroke:#7b869b;}.cls-3,.cls-4{stroke-linecap:round;stroke-linejoin:round;stroke-width:2.7px;}.cls-4{fill:none;stroke:#5db0f4;}</style></defs><g id="Layer_2" data-name="Layer 2"><g id="레이어_1" data-name="레이어 1"><path class="cls-1" d="M27.32,60.18a1.33,1.33,0,0,1-1-.43,1.37,1.37,0,0,1-.36-1L27.82,31a1.35,1.35,0,0,1,1.35-1.26h7.2A1.34,1.34,0,0,1,37.71,31l1.86,27.76a1.34,1.34,0,0,1-.37,1,1.31,1.31,0,0,1-1,.43Z"/><path class="cls-2" d="M36.37,31.07l1.85,27.76H27.32l1.85-27.76h7.2m0-2.7h-7.2a2.71,2.71,0,0,0-2.7,2.52L24.62,58.65a2.7,2.7,0,0,0,2.7,2.88h10.9a2.69,2.69,0,0,0,2.69-2.88L39.06,30.89a2.69,2.69,0,0,0-2.69-2.52Z"/><line class="cls-3" x1="32.77" y1="2.85" x2="32.77" y2="11.84"/><line class="cls-3" x1="29.32" y1="1.35" x2="36.22" y2="1.35"/><path class="cls-1" d="M30.29,20.83A2.33,2.33,0,0,1,28,18.18l1.34-9.49a2.34,2.34,0,0,1,2.31-2H33.9a2.33,2.33,0,0,1,2.3,2l1.35,9.49a2.33,2.33,0,0,1-2.31,2.65Z"/><path class="cls-2" d="M33.9,8a1,1,0,0,1,1,.84l1.34,9.5a1,1,0,0,1-1,1.12H30.3a1,1,0,0,1-1-1.12l1.34-9.5a1,1,0,0,1,1-.84H33.9m0-2.7H31.64A3.69,3.69,0,0,0,28,8.5L26.65,18a3.69,3.69,0,0,0,3.65,4.2h4.94A3.68,3.68,0,0,0,38.88,18L37.54,8.5A3.69,3.69,0,0,0,33.9,5.33Z"/><path class="cls-1" d="M32.77,36.47A11.63,11.63,0,1,1,44.4,24.84,11.64,11.64,0,0,1,32.77,36.47Z"/><path class="cls-2" d="M32.77,14.56A10.28,10.28,0,1,1,22.48,24.84,10.28,10.28,0,0,1,32.77,14.56m0-2.7a13,13,0,1,0,13,13,13,13,0,0,0-13-13Z"/><line class="cls-4" x1="18.44" y1="24.9" x2="47.27" y2="24.9"/><line class="cls-4" x1="25.35" y1="47.32" x2="41.49" y2="47.32"/><path class="cls-1" d="M8.67,60.21a7.32,7.32,0,1,1,0-14.63h2.57a7.8,7.8,0,0,1,5.23-4.24,7.61,7.61,0,0,1,1.76-.2,7.74,7.74,0,0,1,7.66,6.73H26a6.17,6.17,0,1,1,0,12.34Z"/><path class="cls-2" d="M18.23,42.49a6.38,6.38,0,0,1,6.38,6.37c0,.12,0,.24,0,.36H26a4.82,4.82,0,0,1,0,9.64H8.67a6,6,0,1,1,0-11.93h3.48a6.4,6.4,0,0,1,4.63-4.27,6.32,6.32,0,0,1,1.45-.17m0-2.7a9.1,9.1,0,0,0-7.8,4.44H8.67A8.65,8.65,0,0,0,1,48.8,8.66,8.66,0,0,0,8.67,61.56H26a7.52,7.52,0,0,0,1-15,9.09,9.09,0,0,0-8.79-6.8Z"/></g></g></svg>