<svg xmlns="http://www.w3.org/2000/svg" viewBox="0 0 52.99 49.47"><defs><style>.cls-1{fill:none;stroke:#5db0f4;stroke-linecap:round;stroke-linejoin:round;stroke-width:2.7px;}.cls-2{fill:#fff;}.cls-3{fill:#7b869b;}</style></defs><g id="Layer_2" data-name="Layer 2"><g id="레이어_1" data-name="레이어 1"><line class="cls-1" x1="16.62" y1="34.1" x2="16.62" y2="48.12"/><line class="cls-1" x1="36.29" y1="34.1" x2="36.29" y2="48.12"/><path class="cls-2" d="M23.12,37.31a8.88,8.88,0,0,1-5.48-1.89,10.92,10.92,0,0,1-.94-.85,9.73,9.73,0,0,1-.95.85,8.85,8.85,0,0,1-5.47,1.89,9.1,9.1,0,0,1-2.82-.46A8.92,8.92,0,0,1,5.31,21a7.49,7.49,0,0,1-.48-2.65A7.68,7.68,0,0,1,6.9,13.08a7.8,7.8,0,0,1,2.45-1.76A7.69,7.69,0,1,1,24.39,9a8,8,0,0,1-.34,2.28,7.65,7.65,0,0,1,4,9.65,8.92,8.92,0,0,1-5,16.34Z"/><path class="cls-3" d="M16.7,2.7a6.35,6.35,0,0,1,5.54,9.43,6.36,6.36,0,0,1,5,6.19,6.28,6.28,0,0,1-.88,3.21,7.57,7.57,0,1,1-7.87,12.82,7.7,7.7,0,0,1-1.77-2,7.4,7.4,0,0,1-1.78,2A7.57,7.57,0,1,1,7.06,21.53a6.34,6.34,0,0,1,4.1-9.4A6.35,6.35,0,0,1,16.7,2.7m0-2.7a9,9,0,0,0-9,9,8.36,8.36,0,0,0,.14,1.58,8.63,8.63,0,0,0-1.88,1.54,9,9,0,0,0-2.18,8.3,10.28,10.28,0,0,0,6.54,18.2,10.16,10.16,0,0,0,6.3-2.18l.12-.09.11.09a10.27,10.27,0,0,0,16.59-8.1,10.35,10.35,0,0,0-3.74-7.92,9,9,0,0,0-4.06-9.83A9.49,9.49,0,0,0,25.74,9a9.06,9.06,0,0,0-9-9Z"/><path class="cls-2" d="M42.71,37.31a8.85,8.85,0,0,1-5.47-1.89,11.06,11.06,0,0,1-1-.85,10.92,10.92,0,0,1-.94.85,8.88,8.88,0,0,1-5.48,1.89A8.93,8.93,0,0,1,24.9,21a7.68,7.68,0,0,1,1.6-7.89A7.57,7.57,0,0,1,29,11.32a7.7,7.7,0,1,1,14.69,0,7.75,7.75,0,0,1,4.52,7A7.66,7.66,0,0,1,47.69,21a8.93,8.93,0,0,1-5,16.34Z"/><path class="cls-3" d="M36.29,2.7a6.33,6.33,0,0,1,5.54,9.43,6.34,6.34,0,0,1,4.11,9.4A7.57,7.57,0,1,1,36.3,32.39a7.76,7.76,0,0,1-1.78,2,7.57,7.57,0,1,1-7.87-12.82,6.38,6.38,0,0,1-.87-3.21,6.36,6.36,0,0,1,5-6.19A6.33,6.33,0,0,1,36.29,2.7m0-2.7a9.06,9.06,0,0,0-9,9,9.28,9.28,0,0,0,.14,1.58,9.12,9.12,0,0,0-1.88,1.54,9,9,0,0,0-2.43,6.16,8.53,8.53,0,0,0,.26,2.14,10.27,10.27,0,0,0,12.84,16l.11-.09.12.09a10.16,10.16,0,0,0,6.3,2.18,10.27,10.27,0,0,0,6.54-18.2,9,9,0,0,0-4-9.83A9.49,9.49,0,0,0,45.34,9a9.06,9.06,0,0,0-9.05-9Z"/></g></g></svg>