<svg xmlns="http://www.w3.org/2000/svg" viewBox="0 0 43.13 47.3"><defs><style>.cls-1{fill:#fff;}.cls-2{fill:#7b869b;}.cls-3{fill:#5db0f4;}</style></defs><g id="Layer_2" data-name="Layer 2"><g id="레이어_1" data-name="레이어 1"><path class="cls-1" d="M2.7,46A1.35,1.35,0,0,1,1.35,44.6V20a1.33,1.33,0,0,1,.77-1.21C9.36,15.34,6.79,3.11,6.76,3A1.41,1.41,0,0,1,7,1.85a1.39,1.39,0,0,1,1-.5h5.29A1.37,1.37,0,0,1,14.55,2l8.19,14.75a1.38,1.38,0,0,1,.17.66V44.6A1.34,1.34,0,0,1,21.56,46Z"/><path class="cls-2" d="M13.37,2.7l8.19,14.75V44.6H2.7V20C11,16,8.08,2.7,8.08,2.7h5.29m0-2.7H8.08A2.7,2.7,0,0,0,5.45,3.28c0,.11,2.35,11.31-3.92,14.31A2.7,2.7,0,0,0,0,20V44.6a2.7,2.7,0,0,0,2.7,2.7H21.56a2.7,2.7,0,0,0,2.7-2.7V17.45a2.61,2.61,0,0,0-.34-1.31L15.73,1.39A2.7,2.7,0,0,0,13.37,0Z"/><path class="cls-1" d="M21.56,46a1.35,1.35,0,0,1-1.35-1.35V17.45a1.38,1.38,0,0,1,.17-.66L28.58,2a1.35,1.35,0,0,1,1.18-.69H35a1.36,1.36,0,0,1,1.05.5A1.34,1.34,0,0,1,36.36,3c0,.12-2.59,12.35,4.65,15.82A1.33,1.33,0,0,1,41.78,20V44.6A1.35,1.35,0,0,1,40.43,46Z"/><path class="cls-2" d="M35,2.7h0m0,0S32.12,16,40.43,20V44.6H21.56V17.45L29.76,2.7H35m0-2.7H29.76A2.69,2.69,0,0,0,27.4,1.39L19.2,16.14a2.72,2.72,0,0,0-.34,1.31V44.6a2.7,2.7,0,0,0,2.7,2.7H40.43a2.7,2.7,0,0,0,2.7-2.7V20a2.69,2.69,0,0,0-1.54-2.43c-6-2.86-4.14-13.16-3.93-14.23a2.39,2.39,0,0,0,.08-.66A2.69,2.69,0,0,0,35.05,0Zm0,5.4h0Z"/><rect class="cls-1" x="1.35" y="27.13" width="40.43" height="6.74" rx="1.35"/><path class="cls-2" d="M40.43,28.48v4H2.7v-4H40.43m0-2.7H2.7A2.7,2.7,0,0,0,0,28.48v4a2.7,2.7,0,0,0,2.7,2.7H40.43a2.7,2.7,0,0,0,2.7-2.7v-4a2.7,2.7,0,0,0-2.7-2.7Z"/><rect class="cls-1" x="16.01" y="27.13" width="10.13" height="6.74"/><path class="cls-3" d="M24.79,28.48v4H17.36v-4h7.43m2.7-2.7H14.66v9.43H27.49V25.78Z"/></g></g></svg>