<svg xmlns="http://www.w3.org/2000/svg" viewBox="0 0 33.77 60.34"><defs><style>.cls-1{fill:none;stroke:#5db0f4;stroke-linecap:round;stroke-linejoin:round;stroke-width:2.7px;}.cls-2{fill:#fff;}.cls-3{fill:#7b869b;}.cls-4{fill:#5db0f4;}</style></defs><g id="Layer_2" data-name="Layer 2"><g id="레이어_1" data-name="레이어 1"><line class="cls-1" x1="16.88" y1="11.85" x2="16.88" y2="1.35"/><line class="cls-1" x1="13.61" y1="4.72" x2="20.16" y2="4.72"/><path class="cls-2" d="M12.11,26.81a1.34,1.34,0,0,1-1.34-1.35v-8.8a4.93,4.93,0,0,1,4.92-4.93h2.39A4.93,4.93,0,0,1,23,16.66v8.8a1.34,1.34,0,0,1-1.35,1.35Z"/><path class="cls-3" d="M18.08,13.08a3.59,3.59,0,0,1,3.58,3.58v8.8H12.11v-8.8a3.59,3.59,0,0,1,3.58-3.58h2.39m0-2.7H15.69a6.29,6.29,0,0,0-6.28,6.28v8.8a2.7,2.7,0,0,0,2.7,2.7h9.55a2.7,2.7,0,0,0,2.7-2.7v-8.8a6.29,6.29,0,0,0-6.28-6.28Z"/><path class="cls-2" d="M4.87,59a3.43,3.43,0,0,1-3.52-3.31V29.38a1.36,1.36,0,0,1,.77-1.22l14.18-6.8a1.38,1.38,0,0,1,.59-.14,1.24,1.24,0,0,1,.56.13l14.19,6.57a1.36,1.36,0,0,1,.78,1.23V55.68A3.43,3.43,0,0,1,28.9,59Z"/><path class="cls-3" d="M16.88,22.57l14.19,6.58V55.68a2.09,2.09,0,0,1-2.17,2h-24a2.09,2.09,0,0,1-2.17-2V29.38l14.18-6.81m0-2.7a2.66,2.66,0,0,0-1.16.27L1.53,26.94A2.72,2.72,0,0,0,0,29.38v26.3a4.77,4.77,0,0,0,4.87,4.66h24a4.78,4.78,0,0,0,4.87-4.66V29.15A2.69,2.69,0,0,0,32.2,26.7L18,20.12a2.82,2.82,0,0,0-1.14-.25Z"/><path class="cls-2" d="M12.11,51.51a1.34,1.34,0,0,1-1.34-1.35v-8.8a4.93,4.93,0,0,1,4.92-4.93h2.39A4.93,4.93,0,0,1,23,41.36v8.8a1.34,1.34,0,0,1-1.35,1.35Z"/><path class="cls-4" d="M18.08,37.78a3.59,3.59,0,0,1,3.58,3.58v8.8H12.11v-8.8a3.59,3.59,0,0,1,3.58-3.58h2.39m0-2.7H15.69a6.29,6.29,0,0,0-6.28,6.28v8.8a2.7,2.7,0,0,0,2.7,2.7h9.55a2.7,2.7,0,0,0,2.7-2.7v-8.8a6.29,6.29,0,0,0-6.28-6.28Z"/></g></g></svg>