<svg xmlns="http://www.w3.org/2000/svg" viewBox="0 0 47.54 45.21"><defs><style>.cls-1,.cls-2{fill:#fff;}.cls-1,.cls-5{stroke:#7b869b;}.cls-1,.cls-4,.cls-5{stroke-linecap:round;stroke-linejoin:round;stroke-width:2.7px;}.cls-3{fill:#7b869b;}.cls-4,.cls-5{fill:none;}.cls-4{stroke:#5db0f4;}</style></defs><g id="Layer_2" data-name="Layer 2"><g id="레이어_1" data-name="레이어 1"><path class="cls-1" d="M9.51,1.35H35a4.2,4.2,0,0,1,4.2,4.2V43.86a0,0,0,0,1,0,0H5.31a0,0,0,0,1,0,0V5.55a4.2,4.2,0,0,1,4.2-4.2Z"/><rect class="cls-2" x="17.03" y="33.62" width="9.14" height="10.21" rx="1.35"/><path class="cls-3" d="M24.82,35v7.51H18.38V35h6.44m0-2.7H18.38a2.69,2.69,0,0,0-2.7,2.7v7.51a2.7,2.7,0,0,0,2.7,2.7h6.44a2.7,2.7,0,0,0,2.7-2.7V35a2.7,2.7,0,0,0-2.7-2.7Z"/><line class="cls-4" x1="13.2" y1="11.24" x2="14.3" y2="11.24"/><line class="cls-4" x1="21.05" y1="11.24" x2="22.15" y2="11.24"/><line class="cls-4" x1="28.89" y1="11.24" x2="29.99" y2="11.24"/><line class="cls-4" x1="13.2" y1="18.86" x2="14.3" y2="18.86"/><line class="cls-4" x1="21.05" y1="18.86" x2="22.15" y2="18.86"/><line class="cls-4" x1="13.2" y1="26.47" x2="14.3" y2="26.47"/><line class="cls-4" x1="39.2" y1="25.41" x2="39.2" y2="43.09"/><path class="cls-2" d="M39.2,34.71a6.89,6.89,0,0,1-6.89-6.88v-8a6.89,6.89,0,1,1,13.77,0v8a6.87,6.87,0,0,1-6.88,6.88Z"/><path class="cls-3" d="M39.2,14.33a5.53,5.53,0,0,1,5.53,5.54v8a5.54,5.54,0,0,1-11.07,0v-8a5.54,5.54,0,0,1,5.54-5.54m0-2.7A8.25,8.25,0,0,0,31,19.87v8a8.24,8.24,0,1,0,16.47,0v-8a8.23,8.23,0,0,0-8.23-8.24Z"/><line class="cls-5" x1="1.35" y1="43.86" x2="46.19" y2="43.86"/></g></g></svg>