<svg xmlns="http://www.w3.org/2000/svg" viewBox="0 0 57.69 44.43"><defs><style>.cls-1,.cls-2{fill:none;stroke-linecap:round;stroke-linejoin:round;stroke-width:2.7px;}.cls-1{stroke:#7b869b;}.cls-2{stroke:#5db0f4;}.cls-3{fill:#fff;}.cls-4{fill:#7b869b;}</style></defs><g id="Layer_2" data-name="Layer 2"><g id="레이어_1" data-name="레이어 1"><path class="cls-1" d="M56.34,40.8h0a7.77,7.77,0,0,0-11,0h0a7.76,7.76,0,0,1-11,0h0a7.77,7.77,0,0,0-11,0h0a7.77,7.77,0,0,1-11,0h0a7.77,7.77,0,0,0-11,0h0"/><line class="cls-2" x1="13.91" y1="31.45" x2="13.91" y2="13.77"/><path class="cls-3" d="M13.91,23.08A6.89,6.89,0,0,1,7,16.2v-8a6.89,6.89,0,0,1,13.78,0v8a6.89,6.89,0,0,1-6.89,6.88Z"/><path class="cls-4" d="M13.91,2.7a5.55,5.55,0,0,1,5.54,5.54v8a5.55,5.55,0,0,1-5.54,5.53A5.54,5.54,0,0,1,8.37,16.2v-8A5.54,5.54,0,0,1,13.91,2.7m0-2.7A8.25,8.25,0,0,0,5.67,8.24v8a8.24,8.24,0,0,0,16.48,0v-8A8.25,8.25,0,0,0,13.91,0Z"/><line class="cls-2" x1="43.79" y1="31.45" x2="43.79" y2="13.77"/><path class="cls-3" d="M43.79,23.08A6.89,6.89,0,0,1,36.9,16.2v-8a6.89,6.89,0,1,1,13.77,0v8a6.87,6.87,0,0,1-6.88,6.88Z"/><path class="cls-4" d="M43.79,2.7a5.53,5.53,0,0,1,5.53,5.54v8a5.54,5.54,0,0,1-11.07,0v-8A5.54,5.54,0,0,1,43.79,2.7m0-2.7a8.25,8.25,0,0,0-8.24,8.24v8A8.24,8.24,0,1,0,52,16.2v-8A8.25,8.25,0,0,0,43.79,0Z"/></g></g></svg>