<svg xmlns="http://www.w3.org/2000/svg" viewBox="0 0 36.41 55.41"><defs><style>.cls-1{fill:none;stroke:#5db0f4;stroke-linecap:round;stroke-linejoin:round;stroke-width:2.7px;}.cls-2{fill:#fff;}.cls-3{fill:#7b869b;}</style></defs><g id="Layer_2" data-name="Layer 2"><g id="레이어_1" data-name="레이어 1"><line class="cls-1" x1="17.68" y1="1.35" x2="17.68" y2="54.06"/><path class="cls-2" d="M10.93,43.89a1.82,1.82,0,0,1-1.74-1,1.85,1.85,0,0,1,.37-2l3.92-4.6L9.56,31.67a1.85,1.85,0,0,1-.37-2,1.82,1.82,0,0,1,1.74-1H27.75a3.91,3.91,0,0,1,2.72,1.26l4,4.69a2.61,2.61,0,0,1,0,3.33l-4,4.69a3.91,3.91,0,0,1-2.72,1.26Z"/><path class="cls-3" d="M27.75,30a2.51,2.51,0,0,1,1.69.79l4,4.68a1.28,1.28,0,0,1,0,1.59l-4,4.68a2.51,2.51,0,0,1-1.69.79H10.93c-.56,0-.71-.35-.34-.79l4-4.68a1.25,1.25,0,0,0,0-1.59l-4-4.68c-.37-.44-.22-.79.34-.79H27.75m0-2.7H10.93a3.1,3.1,0,0,0-2.4,5.24l3.17,3.73L8.53,40a3.1,3.1,0,0,0,2.4,5.24H27.75A5.21,5.21,0,0,0,31.5,43.5l4-4.68a4,4,0,0,0,0-5.09l-4-4.68a5.22,5.22,0,0,0-3.75-1.74Z"/><path class="cls-2" d="M8.65,23.28A3.86,3.86,0,0,1,5.94,22L2,17.33A2.65,2.65,0,0,1,2,14l4-4.68A3.88,3.88,0,0,1,8.65,8H25.48a1.83,1.83,0,0,1,1.74,1,1.89,1.89,0,0,1-.37,2l-3.92,4.6,3.92,4.6a1.89,1.89,0,0,1,.37,2,1.83,1.83,0,0,1-1.74,1Z"/><path class="cls-3" d="M25.48,9.39c.56,0,.71.36.34.79l-4,4.69a1.26,1.26,0,0,0,0,1.58l4,4.69c.37.43.22.79-.34.79H8.65A2.55,2.55,0,0,1,7,21.14L3,16.45a1.26,1.26,0,0,1,0-1.58l4-4.69a2.55,2.55,0,0,1,1.68-.79H25.48m0-2.7H8.65A5.17,5.17,0,0,0,4.91,8.44l-4,4.68a3.93,3.93,0,0,0,0,5.08l4,4.69a5.2,5.2,0,0,0,3.74,1.74H25.48a3.1,3.1,0,0,0,2.39-5.24L24.7,15.66l3.17-3.73a3.1,3.1,0,0,0-2.39-5.24Z"/><line class="cls-1" x1="1.66" y1="54.06" x2="33.76" y2="54.06"/></g></g></svg>