<svg xmlns="http://www.w3.org/2000/svg" viewBox="0 0 62.2 40.65"><defs><style>.cls-1{fill:#fff;}.cls-1,.cls-2{stroke:#5db0f4;}.cls-1,.cls-2,.cls-3{stroke-linecap:round;stroke-linejoin:round;stroke-width:2.7px;}.cls-2,.cls-3{fill:none;}.cls-3{stroke:#7b869b;}</style></defs><g id="Layer_2" data-name="Layer 2"><g id="레이어_1" data-name="레이어 1"><path class="cls-1" d="M53.28,21A10.1,10.1,0,0,0,54,17.09a10.23,10.23,0,1,0-20.46,0A10.1,10.1,0,0,0,34.34,21"/><line class="cls-2" x1="57.28" y1="13.7" x2="59.6" y2="13.7"/><line class="cls-2" x1="28.02" y1="13.7" x2="30.34" y2="13.7"/><line class="cls-2" x1="32.9" y1="5.34" x2="34.79" y2="6.67"/><line class="cls-2" x1="44.21" y1="1.35" x2="44.21" y2="3.67"/><line class="cls-2" x1="54.89" y1="5.34" x2="53" y2="6.67"/><path class="cls-3" d="M60.85,23.61h0a8,8,0,0,0-11.9,0h0a8,8,0,0,1-11.9,0h0a8,8,0,0,0-11.9,0h0a8,8,0,0,1-11.9,0h0a8,8,0,0,0-11.9,0h0"/><path class="cls-3" d="M60.85,36.64h0a8,8,0,0,0-11.9,0h0a8,8,0,0,1-11.9,0h0a8,8,0,0,0-11.9,0h0a8,8,0,0,1-11.9,0h0a8,8,0,0,0-11.9,0h0"/><path class="cls-3" d="M2,3.6c3.9,0,7.07,2.69,7.07,6"/><path class="cls-3" d="M9.08,9.6c0-3.31,3.16-6,7.07-6"/></g></g></svg>