<svg xmlns="http://www.w3.org/2000/svg" viewBox="0 0 44.24 50.22"><defs><style>.cls-1{fill:#fff;}.cls-1,.cls-2{stroke:#7b869b;}.cls-1,.cls-2,.cls-3{stroke-linecap:round;stroke-linejoin:round;stroke-width:2.7px;}.cls-2,.cls-3{fill:none;}.cls-3{stroke:#5db0f4;}</style></defs><g id="Layer_2" data-name="Layer 2"><g id="레이어_1" data-name="레이어 1"><path class="cls-1" d="M35.91,11.72H37a2.81,2.81,0,0,1,2.8,2.54l3.09,32.07a2.31,2.31,0,0,1-2.31,2.54H3.67a2.32,2.32,0,0,1-2.31-2.54l3.1-32.07a2.81,2.81,0,0,1,2.8-2.54H35.18"/><path class="cls-2" d="M12.87,18.18V10.6a9.25,9.25,0,0,1,9.25-9.25h0a9.25,9.25,0,0,1,9.25,9.25v7.58"/><path class="cls-1" d="M13.9,18.18a1,1,0,1,1-1-1A1,1,0,0,1,13.9,18.18Z"/><path class="cls-1" d="M32.4,18.18a1,1,0,1,1-1-1A1,1,0,0,1,32.4,18.18Z"/><polygon class="cls-3" points="33 42.95 22.12 42.95 11.23 42.95 33 42.95"/></g></g></svg>