<svg xmlns="http://www.w3.org/2000/svg" viewBox="0 0 57.6 37.01"><defs><style>.cls-1,.cls-2,.cls-3{fill:#fff;}.cls-1{stroke:#7b869b;}.cls-1,.cls-2{stroke-linecap:round;stroke-linejoin:round;stroke-width:2.7px;}.cls-2{stroke:#5db0f4;}.cls-4{fill:#7b869b;}</style></defs><g id="Layer_2" data-name="Layer 2"><g id="레이어_1" data-name="레이어 1"><circle class="cls-1" cx="28.33" cy="21.17" r="14.11"/><circle class="cls-2" cx="28.33" cy="21.17" r="8.47"/><path class="cls-1" d="M56.25,2.7v7.38a2.31,2.31,0,0,1-2.31,2.31H50.16a2.32,2.32,0,0,1-2.31-2.31V2.7"/><polyline class="cls-1" points="52.05 2.7 52.05 12.39 52.05 35.66"/><polyline class="cls-1" points="1.35 35.66 1.35 12.39 1.35 2.7"/><path class="cls-3" d="M2.76,17.47a1.35,1.35,0,0,1-1.35-1.35V2.7A1.36,1.36,0,0,1,2.76,1.35H4.13A4.61,4.61,0,0,1,8.73,6V16.12a1.34,1.34,0,0,1-1.35,1.35Z"/><path class="cls-4" d="M4.13,2.7A3.25,3.25,0,0,1,7.38,6V16.12H2.76V2.7H4.13m0-2.7H2.76A2.7,2.7,0,0,0,.06,2.7V16.12a2.7,2.7,0,0,0,2.7,2.7H7.38a2.7,2.7,0,0,0,2.7-2.7V6A6,6,0,0,0,4.13,0Z"/></g></g></svg>