<svg xmlns="http://www.w3.org/2000/svg" viewBox="0 0 53.81 57.18"><defs><style>.cls-1{fill:none;}.cls-1,.cls-3{stroke:#5db0f4;}.cls-1,.cls-3,.cls-4{stroke-linecap:round;stroke-linejoin:round;stroke-width:2.7px;}.cls-2{fill:#7b869b;}.cls-3,.cls-4{fill:#fff;}.cls-4{stroke:#7b869b;}</style></defs><g id="Layer_2" data-name="Layer 2"><g id="레이어_1" data-name="레이어 1"><line class="cls-1" x1="8.41" y1="55.83" x2="44.87" y2="55.83"/><path class="cls-1" d="M41.23,55.12l-13.11-29a1.49,1.49,0,0,0-2.85,0l-13.1,29"/><path class="cls-2" d="M26.7,4.59A19.47,19.47,0,1,1,7.23,24.06,19.47,19.47,0,0,1,26.7,4.59m0-2.7A22.17,22.17,0,1,0,48.87,24.06,22.19,22.19,0,0,0,26.7,1.89Z"/><circle class="cls-3" cx="26.7" cy="24.06" r="6.23"/><circle class="cls-4" cx="5.8" cy="24.06" r="4.45"/><circle class="cls-4" cx="16.07" cy="42.32" r="4.45"/><circle class="cls-4" cx="37.38" cy="42.32" r="4.45"/><circle class="cls-4" cx="48.01" cy="24.06" r="4.45"/><circle class="cls-4" cx="37.74" cy="5.8" r="4.45"/><circle class="cls-4" cx="16.43" cy="5.8" r="4.45"/></g></g></svg>