<svg xmlns="http://www.w3.org/2000/svg" viewBox="0 0 51.71 45.82"><defs><style>.cls-1,.cls-3{fill:#fff;}.cls-1,.cls-2{stroke:#7b869b;}.cls-1,.cls-2,.cls-3{stroke-linecap:round;stroke-linejoin:round;stroke-width:2.7px;}.cls-2{fill:none;}.cls-3{stroke:#5db0f4;}</style></defs><g id="Layer_2" data-name="Layer 2"><g id="레이어_1" data-name="레이어 1"><polygon class="cls-1" points="41.12 6.23 26.12 6.34 17.69 4.61 1.35 8.59 1.35 44.47 17.69 40.49 34.02 43.84 50.36 39.86 50.36 3.98 41.12 6.23"/><line class="cls-2" x1="14.47" y1="28.11" x2="17.42" y2="28.11"/><line class="cls-2" x1="33.08" y1="36.79" x2="36.04" y2="36.79"/><line class="cls-2" x1="33.08" y1="15.26" x2="36.04" y2="15.26"/><path class="cls-3" d="M10.92,19.15a5,5,0,1,1,10,0c0,2.78-5,7.9-5,7.9S10.92,21.93,10.92,19.15Z"/><path class="cls-3" d="M29.53,27.72a5,5,0,0,1,10.06,0c0,2.77-5,7.9-5,7.9S29.53,30.49,29.53,27.72Z"/><path class="cls-3" d="M29.53,6.38a5,5,0,0,1,10.06,0c0,2.78-5,7.9-5,7.9S29.53,9.16,29.53,6.38Z"/></g></g></svg>