<svg xmlns="http://www.w3.org/2000/svg" viewBox="0 0 62.58 42.02"><defs><style>.cls-1,.cls-3{fill:none;}.cls-1{stroke:#5db0f4;}.cls-1,.cls-2,.cls-3{stroke-linecap:round;stroke-linejoin:round;stroke-width:2.7px;}.cls-2{fill:#fff;}.cls-2,.cls-3{stroke:#7b869b;}</style></defs><g id="Layer_2" data-name="Layer 2"><g id="레이어_1" data-name="레이어 1"><line class="cls-1" x1="1.35" y1="40.67" x2="47.79" y2="40.67"/><rect class="cls-2" x="13.1" y="22.54" width="6.44" height="8.84"/><rect class="cls-2" x="34.91" y="22.54" width="6.44" height="8.84"/><path class="cls-3" d="M6.45,11.8v16a3.61,3.61,0,0,0,3.61,3.61H30.68"/><line class="cls-1" x1="47.22" y1="16.82" x2="49.21" y2="16.82"/><path class="cls-3" d="M1.35,15,18.82,1.87a2.58,2.58,0,0,1,3.1,0l9.37,7"/><path class="cls-3" d="M28.28,11.8v16a3.62,3.62,0,0,0,3.62,3.61H52.52a3.62,3.62,0,0,0,3.62-3.61v-16"/><path class="cls-3" d="M23.19,15,40.66,1.87a2.58,2.58,0,0,1,3.1,0L61.23,15"/></g></g></svg>