<svg xmlns="http://www.w3.org/2000/svg" viewBox="0 0 58.47 48.96"><defs><style>.cls-1,.cls-4{fill:#fff;}.cls-2{fill:#7b869b;}.cls-3,.cls-5{fill:none;}.cls-3{stroke:#5db0f4;}.cls-3,.cls-4,.cls-5{stroke-linecap:round;stroke-linejoin:round;stroke-width:2.7px;}.cls-4,.cls-5{stroke:#7b869b;}</style></defs><g id="Layer_2" data-name="Layer 2"><g id="레이어_1" data-name="레이어 1"><rect class="cls-1" x="7.22" y="11.81" width="44.03" height="28.16" rx="4.69"/><path class="cls-2" d="M46.56,13.16A3.35,3.35,0,0,1,49.9,16.5V35.28a3.35,3.35,0,0,1-3.34,3.34H11.91a3.35,3.35,0,0,1-3.34-3.34V16.5a3.36,3.36,0,0,1,3.34-3.34H46.56m0-2.7H11.91a6,6,0,0,0-6,6V35.28a6,6,0,0,0,6,6H46.56a6,6,0,0,0,6-6V16.5a6,6,0,0,0-6-6Z"/><rect class="cls-3" x="17.88" y="27.96" width="22.71" height="6.28" rx="1.4"/><line class="cls-3" x1="7.27" y1="47.61" x2="52.6" y2="47.61"/><polygon class="cls-4" points="50.17 11.37 8.3 11.37 13.38 1.35 45.1 1.35 50.17 11.37"/><path class="cls-1" d="M10.32,22.4a9,9,0,0,1-9-9V12.6A1.34,1.34,0,0,1,2.7,11.25H55.77a1.34,1.34,0,0,1,1.35,1.35v.83a9,9,0,0,1-9,9Z"/><path class="cls-2" d="M55.78,12.6v.83a7.62,7.62,0,0,1-7.62,7.62H10.32A7.62,7.62,0,0,1,2.7,13.43V12.6H55.78m0-2.7H2.7A2.7,2.7,0,0,0,0,12.6v.83A10.33,10.33,0,0,0,10.32,23.75H48.16A10.32,10.32,0,0,0,58.47,13.43V12.6a2.69,2.69,0,0,0-2.69-2.7Z"/><line class="cls-5" x1="17.41" y1="11.37" x2="14.47" y2="21.72"/><line class="cls-5" x1="41.07" y1="11.42" x2="44.01" y2="21.77"/><line class="cls-5" x1="29.24" y1="11.42" x2="29.24" y2="21.77"/><line class="cls-3" x1="29.24" y1="27.96" x2="29.24" y2="34.24"/></g></g></svg>