<svg xmlns="http://www.w3.org/2000/svg" viewBox="0 0 58.58 57.71"><defs><style>.cls-1,.cls-6{fill:none;}.cls-1{stroke:#5db0f4;}.cls-1,.cls-5,.cls-6{stroke-linecap:round;stroke-linejoin:round;stroke-width:2.7px;}.cls-2,.cls-5{fill:#fff;}.cls-3{fill:#5db0f4;}.cls-4{fill:#7b869b;}.cls-5,.cls-6{stroke:#7b869b;}</style></defs><g id="Layer_2" data-name="Layer 2"><g id="레이어_1" data-name="레이어 1"><line class="cls-1" x1="36.59" y1="8.06" x2="36.59" y2="20.13"/><path class="cls-2" d="M6.61,56.36A5.19,5.19,0,0,1,1.9,54.07a5.19,5.19,0,0,1,.37-5.23l.07-.1L16.33,29a2.14,2.14,0,0,1,3.81,0l14,19.75a.61.61,0,0,1,.07.1,5.19,5.19,0,0,1,.37,5.23,5.19,5.19,0,0,1-4.71,2.29Z"/><path class="cls-3" d="M18.24,29.18a.93.93,0,0,1,.77.55L33,49.52c1.74,3,.32,5.49-3.17,5.49H6.61c-3.49,0-4.91-2.47-3.17-5.49l14-19.79a.94.94,0,0,1,.78-.55m0-2.7a3.61,3.61,0,0,0-3,1.77L1.24,48l-.14.21a6.48,6.48,0,0,0-.37,6.57,6.47,6.47,0,0,0,5.88,3H29.86a6.48,6.48,0,0,0,5.88-3,6.5,6.5,0,0,0-.37-6.58L35.23,48l-14-19.71a3.6,3.6,0,0,0-3-1.77Z"/><path class="cls-2" d="M22.16,56.36c-2.59,0-4.57-1-5.57-2.68s-.83-3.91.47-6.16l.07-.11L34.5,22.89a2.34,2.34,0,0,1,4.19,0L56.06,47.41l.07.11c1.3,2.25,1.47,4.43.47,6.16s-3,2.68-5.57,2.68Z"/><path class="cls-4" d="M36.6,22.94a1.18,1.18,0,0,1,1,.69L55,48.19C57.13,51.94,55.36,55,51,55H22.16c-4.33,0-6.1-3.07-3.93-6.82l17.4-24.56a1.18,1.18,0,0,1,1-.69m0-2.7a3.83,3.83,0,0,0-3.23,1.91L16,46.63l-.13.21c-1.53,2.65-1.7,5.39-.47,7.52s3.69,3.35,6.74,3.35H51c3,0,5.51-1.22,6.74-3.35s1.06-4.87-.47-7.52l-.13-.21L39.82,22.15a3.83,3.83,0,0,0-3.22-1.91Z"/><rect class="cls-5" x="36.59" y="1.35" width="14.38" height="9.21" rx="0.81"/><polyline class="cls-6" points="28.43 31.76 33.7 34.11 37.9 31.76 46.67 34.11"/></g></g></svg>