<svg xmlns="http://www.w3.org/2000/svg" viewBox="0 0 49.67 41.99"><defs><style>.cls-1{fill:none;stroke:#5db0f4;stroke-linecap:round;stroke-linejoin:round;stroke-width:2.7px;}.cls-2{fill:#fff;}.cls-3{fill:#7b869b;}</style></defs><g id="Layer_2" data-name="Layer 2"><g id="레이어_1" data-name="레이어 1"><line class="cls-1" x1="26.25" y1="25.33" x2="22.8" y2="40.64"/><line class="cls-1" x1="37.24" y1="40.64" x2="33.8" y2="25.33"/><path class="cls-2" d="M2.7,23.74A1.31,1.31,0,0,1,2,23.52a1.33,1.33,0,0,1-.61-1.13V5.64A1.35,1.35,0,0,1,2,4.51a1.31,1.31,0,0,1,.74-.22,1.27,1.27,0,0,1,.54.11L13.62,9a1.36,1.36,0,0,1,.81,1.24v7.65a1.36,1.36,0,0,1-.81,1.24L3.24,23.63A1.27,1.27,0,0,1,2.7,23.74Z"/><path class="cls-3" d="M2.7,5.64l10.38,4.55v7.65L2.7,22.39V5.64m0-2.7A2.7,2.7,0,0,0,0,5.64V22.39a2.68,2.68,0,0,0,1.22,2.26,2.64,2.64,0,0,0,1.48.44,2.68,2.68,0,0,0,1.08-.22l10.38-4.55a2.73,2.73,0,0,0,1.62-2.48V10.19a2.7,2.7,0,0,0-1.62-2.47L3.78,3.16A2.68,2.68,0,0,0,2.7,2.94Z"/><rect class="cls-2" x="11.73" y="1.35" width="36.59" height="25.33" rx="5.55"/><path class="cls-3" d="M42.77,2.7A4.2,4.2,0,0,1,47,6.9V21.13a4.2,4.2,0,0,1-4.2,4.2H17.28a4.2,4.2,0,0,1-4.2-4.2V6.9a4.2,4.2,0,0,1,4.2-4.2H42.77m0-2.7H17.28a6.9,6.9,0,0,0-6.9,6.9V21.13a6.9,6.9,0,0,0,6.9,6.9H42.77a6.9,6.9,0,0,0,6.9-6.9V6.9A6.9,6.9,0,0,0,42.77,0Z"/><circle class="cls-1" cx="37.56" cy="14.02" r="2.62"/><circle class="cls-1" cx="22.49" cy="14.02" r="2.62"/><line class="cls-1" x1="36.66" y1="16.64" x2="23.39" y2="16.64"/></g></g></svg>