<svg xmlns="http://www.w3.org/2000/svg" viewBox="0 0 57.69 36.65"><defs><style>.cls-1{fill:#fff;}.cls-1,.cls-2{stroke:#5db0f4;}.cls-1,.cls-2,.cls-3{stroke-linecap:round;stroke-linejoin:round;stroke-width:2.7px;}.cls-2,.cls-3{fill:none;}.cls-3{stroke:#7b869b;}</style></defs><g id="Layer_2" data-name="Layer 2"><g id="레이어_1" data-name="레이어 1"><path class="cls-1" d="M43.91,32.52a16.27,16.27,0,1,0-31.33-6.14,16.08,16.08,0,0,0,1.21,6.14"/><line class="cls-2" x1="50.27" y1="20.99" x2="53.95" y2="20.99"/><line class="cls-2" x1="3.74" y1="20.99" x2="7.42" y2="20.99"/><line class="cls-2" x1="11.49" y1="7.69" x2="14.5" y2="9.82"/><line class="cls-2" x1="29.49" y1="1.35" x2="29.49" y2="5.03"/><line class="cls-2" x1="46.46" y1="7.69" x2="43.46" y2="9.82"/><path class="cls-3" d="M56.34,33h0a7.79,7.79,0,0,0-11,0h0a7.76,7.76,0,0,1-11,0h0a7.79,7.79,0,0,0-11,0h0a7.77,7.77,0,0,1-11,0h0a7.79,7.79,0,0,0-11,0h0"/></g></g></svg>