<svg xmlns="http://www.w3.org/2000/svg" viewBox="0 0 51.12 37.75"><defs><style>.cls-1{fill:#fff;stroke:#7b869b;}.cls-1,.cls-2{stroke-linecap:round;stroke-linejoin:round;stroke-width:2.7px;}.cls-2{fill:none;stroke:#5db0f4;}</style></defs><g id="Layer_2" data-name="Layer 2"><g id="레이어_1" data-name="레이어 1"><rect class="cls-1" x="17.96" y="5.26" width="15.43" height="20.15"/><path class="cls-1" d="M2.65,21.67l9.07-19.2S18.79-1.42,22.44,5.3C22.32,7.18,21,26.86,21,26.86Z"/><path class="cls-1" d="M48.47,21.67,39.4,2.47S32.33-1.42,28.68,5.3c.12,1.88,1.41,21.56,1.41,21.56Z"/><path class="cls-1" d="M11.25,16.61a9.9,9.9,0,1,0,9.89,9.89A9.89,9.89,0,0,0,11.25,16.61Z"/><circle class="cls-1" cx="39.87" cy="26.5" r="9.9"/><path class="cls-2" d="M39.49,31.39A6.52,6.52,0,0,1,36,27.94a6.45,6.45,0,0,1-.51-2.52"/><path class="cls-2" d="M10.9,31a6.35,6.35,0,0,1-2.06-1.39,6.2,6.2,0,0,1-1.39-2.06A6.41,6.41,0,0,1,6.94,25"/></g></g></svg>