<?xml version="1.0" encoding="utf-8"?>
<!-- Generator: Adobe Illustrator 23.0.6, SVG Export Plug-In . SVG Version: 6.00 Build 0)  -->
<svg version="1.1" id="레이어_1" xmlns="http://www.w3.org/2000/svg" xmlns:xlink="http://www.w3.org/1999/xlink" x="0px"
	 y="0px" viewBox="0 0 23.4 33.7" style="enable-background:new 0 0 23.4 33.7;" xml:space="preserve">
<style type="text/css">
	.st0{enable-background:new    ;}
	.st1{fill:#FFFFFF;}
</style>
<title>자산 21</title>
<g>
	<g id="레이어_1-2">
		<g class="st0">
			<path class="st1" d="M21.7,24.4c-0.4,0.8-1,1.4-1.7,2s-1.7,0.9-2.7,1.2C16.2,27.8,15,28,13.7,28H2.8v-23h10.7
				c2.4,0,4.2,0.5,5.6,1.6c1.3,1.1,2,2.5,2,4.3V11c0,0.7-0.1,1.2-0.2,1.7c-0.2,0.5-0.4,1-0.7,1.4c-0.3,0.4-0.6,0.8-0.9,1.1
				c-0.4,0.3-0.7,0.6-1.2,0.8c1.3,0.5,2.4,1.2,3.1,2.1c0.8,0.9,1.1,2.1,1.1,3.6v0.1C22.3,22.7,22.1,23.6,21.7,24.4z M16,11.8
				c0-0.8-0.3-1.4-0.9-1.8c-0.6-0.4-1.4-0.6-2.5-0.6h-5v4.9h4.7c1.1,0,2-0.2,2.7-0.6S16,12.7,16,11.8L16,11.8z M17.3,21
				c0-0.8-0.3-1.4-0.9-1.8c-0.6-0.4-1.5-0.7-2.9-0.7H7.7v5.1h6c1.1,0,2-0.2,2.6-0.6C17,22.5,17.3,21.9,17.3,21L17.3,21z"/>
		</g>
	</g>
</g>
</svg>
