<?xml version="1.0" encoding="utf-8"?>
<!-- Generator: Adobe Illustrator 23.0.6, SVG Export Plug-In . SVG Version: 6.00 Build 0)  -->
<svg version="1.1" id="레이어_1" xmlns="http://www.w3.org/2000/svg" xmlns:xlink="http://www.w3.org/1999/xlink" x="0px"
	 y="0px" viewBox="0 0 21.6 33.7" style="enable-background:new 0 0 21.6 33.7;" xml:space="preserve">
<style type="text/css">
	.st0{enable-background:new    ;}
	.st1{fill:#FFFFFF;}
</style>
<title>자산 23</title>
<g>
	<g id="레이어_1-2">
		<g class="st0">
			<path class="st1" d="M20.3,16.5c-0.5,1-1.1,1.9-2,2.5c-0.8,0.7-1.8,1.2-3,1.5c-1.1,0.3-2.3,0.5-3.6,0.5H7.8V28H2.8v-23h9.4
				c1.4,0,2.6,0.2,3.7,0.6c1.1,0.4,2,0.9,2.8,1.6c0.8,0.7,1.3,1.5,1.7,2.5c0.4,1,0.6,2.1,0.6,3.2V13C21,14.3,20.7,15.5,20.3,16.5z
				 M15.9,13c0-1.1-0.4-2-1.1-2.6c-0.7-0.6-1.7-0.9-3-0.9H7.8v7h4c1.3,0,2.3-0.3,3-1C15.5,14.9,15.9,14.1,15.9,13L15.9,13z"/>
		</g>
	</g>
</g>
</svg>
