<?xml version="1.0" encoding="utf-8"?>
<!-- Generator: Adobe Illustrator 23.0.6, SVG Export Plug-In . SVG Version: 6.00 Build 0)  -->
<svg version="1.1" id="레이어_1" xmlns="http://www.w3.org/2000/svg" xmlns:xlink="http://www.w3.org/1999/xlink" x="0px"
	 y="0px" viewBox="0 0 20.7 33.7" style="enable-background:new 0 0 20.7 33.7;" xml:space="preserve">
<style type="text/css">
	.st0{enable-background:new    ;}
	.st1{fill:#FFFFFF;}
</style>
<title>자산 22</title>
<g>
	<g id="레이어_1-2">
		<g class="st0">
			<path class="st1" d="M18.8,24.2c-0.4,0.9-1,1.6-1.7,2.2c-0.7,0.6-1.6,1.1-2.7,1.4c-1,0.3-2.2,0.5-3.4,0.5c-1.8,0-3.5-0.3-5.2-0.9
				c-1.7-0.6-3.2-1.5-4.6-2.8l3-3.6c1.1,0.9,2.1,1.5,3.2,2c1.1,0.5,2.3,0.8,3.6,0.8c1.1,0,1.9-0.2,2.5-0.6c0.6-0.4,0.9-0.9,0.9-1.6
				v-0.1c0-0.3-0.1-0.6-0.2-0.9c-0.1-0.3-0.4-0.5-0.7-0.7c-0.3-0.2-0.8-0.4-1.4-0.7c-0.6-0.2-1.4-0.4-2.4-0.7
				c-1.2-0.3-2.2-0.6-3.2-1s-1.7-0.8-2.4-1.3c-0.7-0.5-1.2-1.2-1.5-1.9c-0.4-0.8-0.5-1.7-0.5-2.9v-0.1c0-1.1,0.2-2,0.6-2.8
				c0.4-0.8,0.9-1.6,1.7-2.2c0.7-0.6,1.6-1.1,2.5-1.4c1-0.3,2.1-0.5,3.3-0.5c1.7,0,3.2,0.3,4.7,0.8c1.4,0.5,2.7,1.2,3.9,2.2
				l-2.6,3.8c-1-0.7-2-1.3-3-1.7c-1-0.4-2-0.6-3-0.6c-1,0-1.7,0.2-2.2,0.6s-0.7,0.9-0.7,1.4v0.1c0,0.4,0.1,0.7,0.2,1
				c0.1,0.3,0.4,0.5,0.8,0.7c0.4,0.2,0.9,0.4,1.5,0.6c0.6,0.2,1.5,0.4,2.5,0.7c1.2,0.3,2.2,0.7,3.1,1c0.9,0.4,1.7,0.8,2.3,1.4
				c0.6,0.5,1.1,1.2,1.4,1.9c0.3,0.7,0.5,1.6,0.5,2.6v0.1C19.4,22.3,19.2,23.3,18.8,24.2z"/>
		</g>
	</g>
</g>
</svg>
