<svg xmlns="http://www.w3.org/2000/svg" xmlns:xlink="http://www.w3.org/1999/xlink" viewBox="0 0 1980 553.81"><defs><style>.cls-1,.cls-3{opacity:0.2;}.cls-2,.cls-4{fill:#fff;}.cls-2{stroke:#5a96ff;stroke-miterlimit:10;stroke-width:2.97px;}.cls-3{fill:url(#무제_그라디언트_18);}.cls-5{fill:#5a96ff;}</style><linearGradient id="무제_그라디언트_18" x1="989.86" y1="6.19" x2="989.86" y2="553.81" gradientUnits="userSpaceOnUse"><stop offset="0.01" stop-color="#5a96ff"/><stop offset="0.1" stop-color="#5a96ff" stop-opacity="0.98"/><stop offset="0.23" stop-color="#5a96ff" stop-opacity="0.91"/><stop offset="0.37" stop-color="#5a96ff" stop-opacity="0.8"/><stop offset="0.53" stop-color="#5a96ff" stop-opacity="0.64"/><stop offset="0.7" stop-color="#5a96ff" stop-opacity="0.44"/><stop offset="0.87" stop-color="#5a96ff" stop-opacity="0.2"/><stop offset="1" stop-color="#5a96ff" stop-opacity="0"/></linearGradient></defs><g id="Layer_2" data-name="Layer 2"><g id="레이어_1" data-name="레이어 1"><g class="cls-1"><polyline class="cls-2" points="7.09 211.57 60.5 317.21 103.23 263.8 156.64 231.75 199.37 105.15 252.78 222.66 295.51 265.39 348.92 247.93 391.65 173.15 445.06 215.88 487.79 141.7 541.2 6.19 594.62 87.7 637.34 145.74 690.75 113.7 733.48 173.15 782.89 224.29 834.62 209.43 883.03 234.62 925.76 305.16 979.17 343.21 1021.9 243.88 1075.32 190.47 1118.04 266.98 1171.45 320.39 1214.18 160.15 1267.6 170.84 1321.01 128.11 1363.73 21.29 1414.46 79.47 1459.88 202.88 1513.29 160.15 1556.02 202.88 1609.43 128.11 1652.15 87.28 1705.57 55.24 1748.3 153.11 1801.71 202.88 1844.43 309.7 1897.85 318.8 1971.43 289.13"/><polygon class="cls-3" points="1971.43 289.13 1897.85 318.8 1844.43 309.7 1801.71 202.88 1748.3 153.11 1705.57 55.24 1652.15 87.28 1609.43 128.11 1556.02 202.88 1513.29 160.15 1459.88 202.88 1414.46 79.47 1363.73 21.29 1321.01 128.11 1267.6 170.84 1214.18 160.15 1171.45 320.39 1118.04 266.98 1075.32 190.47 1021.9 243.88 979.17 341.21 925.76 305.16 883.03 234.62 834.62 209.43 782.89 224.29 733.48 173.15 690.75 113.7 637.34 145.74 594.62 87.7 541.2 6.19 487.79 141.7 445.06 215.88 391.65 173.15 348.92 247.93 295.51 265.39 252.78 222.66 199.37 105.15 156.64 231.75 103.23 263.8 60.5 317.21 7.09 211.57 7.09 553.81 1972.62 553.81 1971.43 289.13"/><g id="circle_01"><path class="cls-4" d="M8.57,216.14a7.08,7.08,0,1,1,7.08-7.08A7.1,7.1,0,0,1,8.57,216.14Z"/><path class="cls-5" d="M8.57,203.46a5.6,5.6,0,1,1-5.6,5.6,5.6,5.6,0,0,1,5.6-5.6m0-3a8.57,8.57,0,1,0,8.56,8.57,8.57,8.57,0,0,0-8.56-8.57Z"/></g><g id="circle_02"><path class="cls-4" d="M60.5,321.92a7.09,7.09,0,1,1,7.09-7.08A7.09,7.09,0,0,1,60.5,321.92Z"/><path class="cls-5" d="M60.5,309.24a5.6,5.6,0,1,1-5.59,5.6,5.6,5.6,0,0,1,5.59-5.6m0-3a8.57,8.57,0,1,0,8.57,8.57,8.56,8.56,0,0,0-8.57-8.57Z"/></g><g id="circle_03"><circle class="cls-4" cx="105.39" cy="264.99" r="7.08"/><path class="cls-5" d="M105.39,259.39a5.6,5.6,0,1,1-5.6,5.6,5.6,5.6,0,0,1,5.6-5.6m0-3A8.57,8.57,0,1,0,114,265a8.56,8.56,0,0,0-8.57-8.57Z"/></g><g id="circle_04"><path class="cls-4" d="M153.8,239.33a7.09,7.09,0,1,1,7.09-7.09A7.1,7.1,0,0,1,153.8,239.33Z"/><path class="cls-5" d="M153.8,226.64a5.6,5.6,0,1,1-5.6,5.6,5.61,5.61,0,0,1,5.6-5.6m0-3a8.57,8.57,0,1,0,8.57,8.56,8.56,8.56,0,0,0-8.57-8.56Z"/></g><g id="circle_05"><path class="cls-4" d="M200.56,114.61a7.08,7.08,0,1,1,7.08-7.08A7.09,7.09,0,0,1,200.56,114.61Z"/><path class="cls-5" d="M200.56,101.93a5.6,5.6,0,1,1-5.6,5.6,5.6,5.6,0,0,1,5.6-5.6m0-3a8.57,8.57,0,1,0,8.57,8.57A8.57,8.57,0,0,0,200.56,99Z"/></g><g id="circle_06"><path class="cls-4" d="M250.63,230.37a7.08,7.08,0,1,1,7.08-7.08A7.08,7.08,0,0,1,250.63,230.37Z"/><path class="cls-5" d="M250.63,217.69a5.6,5.6,0,1,1-5.6,5.6,5.61,5.61,0,0,1,5.6-5.6m0-3a8.57,8.57,0,1,0,8.56,8.56,8.57,8.57,0,0,0-8.56-8.56Z"/></g><g id="circle_07"><path class="cls-4" d="M295.51,270.1A7.09,7.09,0,1,1,302.6,263,7.1,7.1,0,0,1,295.51,270.1Z"/><path class="cls-5" d="M295.51,257.42a5.6,5.6,0,1,1-5.6,5.59,5.6,5.6,0,0,1,5.6-5.59m0-3a8.57,8.57,0,1,0,8.57,8.56,8.56,8.56,0,0,0-8.57-8.56Z"/></g><g id="circle_08"><path class="cls-4" d="M347.45,256.29a7.09,7.09,0,1,1,7.09-7.09A7.1,7.1,0,0,1,347.45,256.29Z"/><path class="cls-5" d="M347.45,243.61a5.6,5.6,0,1,1-5.6,5.59,5.6,5.6,0,0,1,5.6-5.59m0-3A8.57,8.57,0,1,0,356,249.2a8.56,8.56,0,0,0-8.57-8.56Z"/></g><g id="circle_09"><path class="cls-4" d="M392.84,181.42a7.08,7.08,0,1,1,7.08-7.08A7.08,7.08,0,0,1,392.84,181.42Z"/><path class="cls-5" d="M392.84,168.74a5.6,5.6,0,1,1-5.6,5.6,5.6,5.6,0,0,1,5.6-5.6m0-3a8.57,8.57,0,1,0,8.57,8.56,8.57,8.57,0,0,0-8.57-8.56Z"/></g><g id="circle_10"><path class="cls-4" d="M444.28,218.64a7.08,7.08,0,1,1,7.08-7.08A7.09,7.09,0,0,1,444.28,218.64Z"/><path class="cls-5" d="M444.28,206a5.6,5.6,0,1,1-5.6,5.6,5.61,5.61,0,0,1,5.6-5.6m0-3a8.57,8.57,0,1,0,8.56,8.57,8.57,8.57,0,0,0-8.56-8.57Z"/></g><g id="circle_11"><path class="cls-4" d="M487.79,152a7.09,7.09,0,1,1,7.09-7.09A7.1,7.1,0,0,1,487.79,152Z"/><path class="cls-5" d="M487.79,139.28a5.6,5.6,0,1,1-5.6,5.59,5.6,5.6,0,0,1,5.6-5.59m0-3a8.57,8.57,0,1,0,8.57,8.56,8.56,8.56,0,0,0-8.57-8.56Z"/></g><g id="circle_12"><path class="cls-4" d="M542.39,15.65a7.09,7.09,0,1,1,7.08-7.08A7.09,7.09,0,0,1,542.39,15.65Z"/><path class="cls-5" d="M542.39,3a5.6,5.6,0,1,1-5.6,5.6,5.6,5.6,0,0,1,5.6-5.6m0-3A8.57,8.57,0,1,0,551,8.57,8.56,8.56,0,0,0,542.39,0Z"/></g><g id="circle_13"><path class="cls-4" d="M637.93,151.64a7.09,7.09,0,1,1,7.08-7.08A7.09,7.09,0,0,1,637.93,151.64Z"/><path class="cls-5" d="M637.93,139a5.6,5.6,0,1,1-5.6,5.6,5.61,5.61,0,0,1,5.6-5.6m0-3a8.57,8.57,0,1,0,8.56,8.57,8.57,8.57,0,0,0-8.56-8.57Z"/></g><g id="circle_14"><path class="cls-4" d="M734.75,184.18a7.08,7.08,0,1,1,7.08-7.08A7.09,7.09,0,0,1,734.75,184.18Z"/><path class="cls-5" d="M734.75,171.5a5.6,5.6,0,1,1-5.6,5.6,5.6,5.6,0,0,1,5.6-5.6m0-3a8.57,8.57,0,1,0,8.57,8.56,8.56,8.56,0,0,0-8.57-8.56Z"/></g><g id="circle_15"><path class="cls-4" d="M834,214.24a7.09,7.09,0,1,1,7.08-7.08A7.09,7.09,0,0,1,834,214.24Z"/><path class="cls-5" d="M834,201.56a5.6,5.6,0,1,1-5.6,5.6,5.6,5.6,0,0,1,5.6-5.6m0-3a8.57,8.57,0,1,0,8.57,8.57,8.57,8.57,0,0,0-8.57-8.57Z"/></g><g id="circle_16"><path class="cls-4" d="M928.4,313a7.08,7.08,0,1,1,7.09-7.08A7.09,7.09,0,0,1,928.4,313Z"/><path class="cls-5" d="M928.4,300.36a5.6,5.6,0,1,1-5.6,5.6,5.6,5.6,0,0,1,5.6-5.6m0-3A8.57,8.57,0,1,0,937,306a8.57,8.57,0,0,0-8.57-8.57Z"/></g><g id="circle_17"><path class="cls-4" d="M1025.23,247a7.08,7.08,0,1,1,7.08-7.08A7.08,7.08,0,0,1,1025.23,247Z"/><path class="cls-5" d="M1025.23,234.33a5.6,5.6,0,1,1-5.6,5.6,5.61,5.61,0,0,1,5.6-5.6m0-3a8.57,8.57,0,1,0,8.56,8.56,8.57,8.57,0,0,0-8.56-8.56Z"/></g><g id="circle_18"><path class="cls-4" d="M1122.05,279.12a7.09,7.09,0,1,1,7.08-7.09A7.1,7.1,0,0,1,1122.05,279.12Z"/><path class="cls-5" d="M1122.05,266.44a5.6,5.6,0,1,1-5.6,5.6,5.6,5.6,0,0,1,5.6-5.6m0-3a8.57,8.57,0,1,0,8.57,8.57,8.56,8.56,0,0,0-8.57-8.57Z"/></g><g id="circle_19"><path class="cls-4" d="M1215.37,169.61a7.08,7.08,0,1,1,7.08-7.08A7.09,7.09,0,0,1,1215.37,169.61Z"/><path class="cls-5" d="M1215.37,156.93a5.6,5.6,0,1,1-5.6,5.6,5.6,5.6,0,0,1,5.6-5.6m0-3a8.57,8.57,0,1,0,8.57,8.57,8.57,8.57,0,0,0-8.57-8.57Z"/></g><g id="circle_20"><path class="cls-4" d="M594.62,94.78a7.09,7.09,0,1,1,7.08-7.08A7.1,7.1,0,0,1,594.62,94.78Z"/><path class="cls-5" d="M594.62,82.1a5.6,5.6,0,1,1-5.6,5.6,5.6,5.6,0,0,1,5.6-5.6m0-3a8.57,8.57,0,1,0,8.56,8.57,8.57,8.57,0,0,0-8.56-8.57Z"/></g><g id="circle_01-2" data-name="circle_01"><path class="cls-4" d="M1315.7,136.43a7.09,7.09,0,1,1,7.09-7.08A7.09,7.09,0,0,1,1315.7,136.43Z"/><path class="cls-5" d="M1315.7,123.75a5.6,5.6,0,1,1-5.6,5.6,5.6,5.6,0,0,1,5.6-5.6m0-3a8.57,8.57,0,1,0,8.57,8.57,8.56,8.56,0,0,0-8.57-8.57Z"/></g><g id="circle_02-2" data-name="circle_02"><path class="cls-4" d="M690.75,121.42a7.09,7.09,0,1,1,7.09-7.09A7.1,7.1,0,0,1,690.75,121.42Z"/><path class="cls-5" d="M690.75,108.74a5.6,5.6,0,1,1-5.59,5.59,5.6,5.6,0,0,1,5.59-5.59m0-3a8.57,8.57,0,1,0,8.57,8.56,8.56,8.56,0,0,0-8.57-8.56Z"/></g><g id="circle_03-2" data-name="circle_03"><path class="cls-4" d="M881.85,240.52a7.09,7.09,0,1,1,7.08-7.09A7.09,7.09,0,0,1,881.85,240.52Z"/><path class="cls-5" d="M881.85,227.84a5.6,5.6,0,1,1-5.6,5.59,5.6,5.6,0,0,1,5.6-5.59m0-3a8.57,8.57,0,1,0,8.56,8.56,8.57,8.57,0,0,0-8.56-8.56Z"/></g><g id="circle_04-2" data-name="circle_04"><path class="cls-4" d="M979.17,349.1a7.08,7.08,0,1,1,7.09-7.08A7.09,7.09,0,0,1,979.17,349.1Z"/><path class="cls-5" d="M979.17,336.42a5.6,5.6,0,1,1-5.59,5.6,5.61,5.61,0,0,1,5.59-5.6m0-3a8.57,8.57,0,1,0,8.57,8.56,8.56,8.56,0,0,0-8.57-8.56Z"/></g><g id="circle_05-2" data-name="circle_05"><path class="cls-4" d="M1073.64,195.73a7.09,7.09,0,1,1,7.08-7.08A7.09,7.09,0,0,1,1073.64,195.73Z"/><path class="cls-5" d="M1073.64,183.05a5.6,5.6,0,1,1-5.6,5.6,5.6,5.6,0,0,1,5.6-5.6m0-3a8.57,8.57,0,1,0,8.57,8.57,8.57,8.57,0,0,0-8.57-8.57Z"/></g><g id="circle_06-2" data-name="circle_06"><path class="cls-4" d="M1171.46,325.1a7.09,7.09,0,1,1,7.08-7.09A7.1,7.1,0,0,1,1171.46,325.1Z"/><path class="cls-5" d="M1171.45,312.42a5.6,5.6,0,1,1-5.59,5.59,5.6,5.6,0,0,1,5.59-5.59m0-3A8.57,8.57,0,1,0,1180,318a8.56,8.56,0,0,0-8.57-8.56Z"/></g><g id="circle_07-2" data-name="circle_07"><circle class="cls-4" cx="1267.29" cy="169.65" r="7.08"/><path class="cls-5" d="M1267.29,164.05a5.6,5.6,0,1,1-5.6,5.6,5.6,5.6,0,0,1,5.6-5.6m0-3a8.57,8.57,0,1,0,8.57,8.57,8.57,8.57,0,0,0-8.57-8.57Z"/></g><g id="circle_08-2" data-name="circle_08"><path class="cls-4" d="M1363.73,31.93a7.09,7.09,0,1,1,7.09-7.08A7.09,7.09,0,0,1,1363.73,31.93Z"/><path class="cls-5" d="M1363.73,19.25a5.6,5.6,0,1,1-5.59,5.6,5.6,5.6,0,0,1,5.59-5.6m0-3a8.57,8.57,0,1,0,8.57,8.57,8.57,8.57,0,0,0-8.57-8.57Z"/></g><g id="circle_09-2" data-name="circle_09"><path class="cls-4" d="M1413.28,87.74a7.08,7.08,0,1,1,7.08-7.08A7.1,7.1,0,0,1,1413.28,87.74Z"/><path class="cls-5" d="M1413.28,75.06a5.6,5.6,0,1,1-5.6,5.6,5.61,5.61,0,0,1,5.6-5.6m0-3a8.57,8.57,0,1,0,8.56,8.57,8.57,8.57,0,0,0-8.56-8.57Z"/></g><g id="circle_10-2" data-name="circle_10"><path class="cls-4" d="M1460.94,205.64a7.08,7.08,0,1,1,7.08-7.08A7.09,7.09,0,0,1,1460.94,205.64Z"/><path class="cls-5" d="M1460.94,193a5.6,5.6,0,1,1-5.6,5.6,5.6,5.6,0,0,1,5.6-5.6m0-3a8.57,8.57,0,1,0,8.57,8.57,8.57,8.57,0,0,0-8.57-8.57Z"/></g><g id="circle_11-2" data-name="circle_11"><path class="cls-4" d="M1509.35,171.45a7.09,7.09,0,1,1,7.08-7.09A7.1,7.1,0,0,1,1509.35,171.45Z"/><path class="cls-5" d="M1509.35,158.77a5.6,5.6,0,1,1-5.6,5.59,5.6,5.6,0,0,1,5.6-5.59m0-3a8.57,8.57,0,1,0,8.57,8.56,8.56,8.56,0,0,0-8.57-8.56Z"/></g><g id="circle_12-2" data-name="circle_12"><path class="cls-4" d="M1557.76,208.71a7.08,7.08,0,1,1,7.09-7.08A7.09,7.09,0,0,1,1557.76,208.71Z"/><path class="cls-5" d="M1557.77,196a5.6,5.6,0,1,1-5.6,5.6,5.6,5.6,0,0,1,5.6-5.6m0-3a8.57,8.57,0,1,0,8.56,8.57,8.57,8.57,0,0,0-8.56-8.57Z"/></g><g id="circle_13-2" data-name="circle_13"><path class="cls-4" d="M1654.59,95.23a7.09,7.09,0,1,1,7.08-7.08A7.09,7.09,0,0,1,1654.59,95.23Z"/><path class="cls-5" d="M1654.59,82.55a5.6,5.6,0,1,1-5.6,5.6,5.6,5.6,0,0,1,5.6-5.6m0-3a8.57,8.57,0,1,0,8.57,8.57,8.57,8.57,0,0,0-8.57-8.57Z"/></g><g id="circle_14-2" data-name="circle_14"><path class="cls-4" d="M1751.42,160.8a7.08,7.08,0,1,1,7.08-7.08A7.1,7.1,0,0,1,1751.42,160.8Z"/><path class="cls-5" d="M1751.42,148.12a5.6,5.6,0,1,1-5.6,5.6,5.6,5.6,0,0,1,5.6-5.6m0-3a8.57,8.57,0,1,0,8.56,8.57,8.57,8.57,0,0,0-8.56-8.57Z"/></g><g id="circle_15-2" data-name="circle_15"><path class="cls-4" d="M1606.18,136.26a7.09,7.09,0,1,1,7.08-7.09A7.1,7.1,0,0,1,1606.18,136.26Z"/><path class="cls-5" d="M1606.18,123.57a5.6,5.6,0,1,1-5.6,5.6,5.62,5.62,0,0,1,5.6-5.6m0-3a8.57,8.57,0,1,0,8.56,8.56,8.57,8.57,0,0,0-8.56-8.56Z"/></g><g id="circle_16-2" data-name="circle_16"><path class="cls-4" d="M1705.57,63.51a7.09,7.09,0,1,1,7.08-7.08A7.1,7.1,0,0,1,1705.57,63.51Z"/><path class="cls-5" d="M1705.57,50.83a5.6,5.6,0,1,1-5.6,5.6,5.6,5.6,0,0,1,5.6-5.6m0-3a8.57,8.57,0,1,0,8.56,8.57,8.56,8.56,0,0,0-8.56-8.57Z"/></g><g id="circle_17-2" data-name="circle_17"><path class="cls-4" d="M1799.83,208a7.08,7.08,0,1,1,7.08-7.08A7.09,7.09,0,0,1,1799.83,208Z"/><path class="cls-5" d="M1799.83,195.3a5.6,5.6,0,1,1-5.6,5.6,5.61,5.61,0,0,1,5.6-5.6m0-3a8.57,8.57,0,1,0,8.56,8.57,8.57,8.57,0,0,0-8.56-8.57Z"/></g><g id="circle_18-2" data-name="circle_18"><path class="cls-4" d="M1843.25,314.5a7.08,7.08,0,1,1,7.08-7.08A7.09,7.09,0,0,1,1843.25,314.5Z"/><path class="cls-5" d="M1843.25,301.82a5.6,5.6,0,1,1-5.6,5.6,5.61,5.61,0,0,1,5.6-5.6m0-3a8.57,8.57,0,1,0,8.56,8.57,8.57,8.57,0,0,0-8.56-8.57Z"/></g><g id="circle_19-2" data-name="circle_19"><path class="cls-4" d="M1896.65,327.81a7.08,7.08,0,1,1,7.08-7.08A7.09,7.09,0,0,1,1896.65,327.81Z"/><path class="cls-5" d="M1896.65,315.13a5.6,5.6,0,1,1-5.6,5.6,5.6,5.6,0,0,1,5.6-5.6m0-3a8.57,8.57,0,1,0,8.57,8.57,8.57,8.57,0,0,0-8.57-8.57Z"/></g><g id="circle_20-2" data-name="circle_20"><path class="cls-4" d="M1971.43,296.26a7.08,7.08,0,1,1,7.09-7.08A7.09,7.09,0,0,1,1971.43,296.26Z"/><path class="cls-5" d="M1971.43,283.58a5.6,5.6,0,1,1-5.59,5.6,5.6,5.6,0,0,1,5.59-5.6m0-3a8.57,8.57,0,1,0,8.57,8.57,8.57,8.57,0,0,0-8.57-8.57Z"/></g><g id="circle_21"><path class="cls-4" d="M783.17,231.62a7.08,7.08,0,1,1,7.08-7.08A7.09,7.09,0,0,1,783.17,231.62Z"/><path class="cls-5" d="M783.17,218.94a5.6,5.6,0,1,1-5.6,5.6,5.6,5.6,0,0,1,5.6-5.6m0-3a8.57,8.57,0,1,0,8.56,8.56,8.56,8.56,0,0,0-8.56-8.56Z"/></g></g></g></g></svg>