<?xml version="1.0" encoding="utf-8"?>
<!-- Generator: Adobe Illustrator 23.0.2, SVG Export Plug-In . SVG Version: 6.00 Build 0)  -->
<svg version="1.1" id="Layer_1" xmlns="http://www.w3.org/2000/svg" xmlns:xlink="http://www.w3.org/1999/xlink" x="0px" y="0px"
	 viewBox="0 0 33 25" style="enable-background:new 0 0 33 25;" xml:space="preserve">
<style type="text/css">
	.st0{fill:#747474;}
</style>
<g>
	<g>
		<path class="st0" d="M26.6,2.5L26.6,2.5 M26.6,2.5c0,0.1-0.1,0.1-0.1,0.2c-3,3-4.9,5.9-7.9,8.9c-0.1,0.1-0.2,0.2-0.2,0.4
			c0,4,0,6,0,10c0,0.1,0,0.2,0,0.2c0,0,0,0,0,0c-0.1,0-0.1-0.1-0.1-0.1c-1-0.7-2-1.5-3-2.2c-0.1-0.1-0.1-0.2-0.1-0.3
			c0-1.1,0-2.3,0-3.4c0-2.1,0-2.1,0-4.2c0-0.2,0-0.3-0.2-0.4C12,8.6,10,5.7,7,2.7c0,0-0.1-0.1-0.2-0.1c0,0,0,0,0-0.1
			C14.1,2.5,19.3,2.5,26.6,2.5 M26.6,1.4L26.6,1.4H6.9C6.5,1.4,6.2,1.6,6,2l0,0.1C5.6,2.5,5.8,3.1,6.2,3.5l0.1,0.1
			C7.7,5,8.9,6.4,10.1,7.8c1.2,1.4,2.4,2.9,3.9,4.4c0,1.6,0,1.9,0,3.2l0,0.8l0,1.3l0,2.2c0,0.5,0.2,0.9,0.5,1.1
			c0.6,0.5,1.3,0.9,1.9,1.4l1.1,0.8c0.3,0.2,0.5,0.4,0.8,0.4c0.2,0,0.4,0,0.5-0.1c0.4-0.2,0.7-0.6,0.6-1.2c0-3.9,0-5.9,0-9.8
			c1.5-1.5,2.7-2.9,3.9-4.4c1.2-1.4,2.4-2.9,3.9-4.4c0.1,0,0.3-0.2,0.4-0.5c0-0.1,0.1-0.3,0.1-0.4C27.7,1.9,27.2,1.4,26.6,1.4
			L26.6,1.4z M26.6,3.6L26.6,3.6L26.6,3.6L26.6,3.6z"/>
	</g>
</g>
</svg>
