<?xml version="1.0" encoding="utf-8"?>
<!-- Generator: Adobe Illustrator 23.0.6, SVG Export Plug-In . SVG Version: 6.00 Build 0)  -->
<svg version="1.1" id="Layer_1" xmlns="http://www.w3.org/2000/svg" xmlns:xlink="http://www.w3.org/1999/xlink" x="0px" y="0px"
	 viewBox="0 0 33 25" style="enable-background:new 0 0 33 25;" xml:space="preserve">
<style type="text/css">
	.st0{fill:#FFFFFF;}
	.st1{fill:none;stroke:#747474;stroke-width:0.8354;stroke-miterlimit:10;}
	.st2{fill:none;stroke:#747474;stroke-width:0.8354;stroke-linejoin:round;stroke-miterlimit:10;}
	.st3{fill:none;stroke:#747474;stroke-width:0.8354;stroke-linecap:round;stroke-linejoin:round;stroke-miterlimit:10;}
	.st4{fill:#2C8AFF;}
	.st5{fill:none;stroke:#FFFFFF;stroke-width:1.0422;stroke-linecap:round;stroke-linejoin:round;stroke-miterlimit:10;}
	.st6{fill:none;stroke:#747474;stroke-width:0.9627;stroke-miterlimit:10;}
	.st7{fill:none;stroke:#747474;stroke-width:0.9627;stroke-linejoin:round;stroke-miterlimit:10;}
	.st8{fill:none;stroke:#747474;stroke-width:0.9627;stroke-linecap:round;stroke-linejoin:round;stroke-miterlimit:10;}
	.st9{fill:none;stroke:#747474;stroke-width:1.0777;stroke-miterlimit:10;}
	.st10{fill:none;stroke:#747474;stroke-width:1.1125;stroke-linejoin:round;stroke-miterlimit:10;}
	.st11{fill:none;stroke:#747474;stroke-width:1.1602;stroke-linejoin:round;stroke-miterlimit:10;}
	.st12{fill:none;stroke:#747474;stroke-width:1.0975;stroke-miterlimit:10;}
	.st13{fill:none;stroke:#FFFFFF;stroke-width:1.0511;stroke-linecap:round;stroke-linejoin:round;stroke-miterlimit:10;}
	.st14{fill:none;stroke:#747474;stroke-width:1.1192;stroke-linejoin:round;stroke-miterlimit:10;}
	.st15{fill:none;stroke:#747474;stroke-width:1.011;stroke-linejoin:round;stroke-miterlimit:10;}
	.st16{fill:none;}
</style>
<image style="overflow:visible;" width="1337" height="977" xlink:href="F593F43A.jpg"  transform="matrix(1.1953 0 0 1.1953 -1470.4788 -596.0403)">
</image>
<rect x="-68.6" y="-3.4" class="st0" width="101" height="29.4"/>
<circle class="st9" cx="9" cy="7.4" r="2.5"/>
<polyline class="st11" points="1.3,17.1 6.8,12 10.6,15.3 17.3,9.4 25.8,18.6 "/>
<path class="st12" d="M24.6,20.1H1.9c-0.4,0-0.8-0.3-0.8-0.8l0-17.7c0-0.4,0.3-0.8,0.8-0.8h22.8c0.4,0,0.8,0.3,0.8,0.8v17.7
	C25.4,19.8,25.1,20.1,24.6,20.1z"/>
<g>
	<path class="st4" d="M25.5,25c-4.1,0-7.4-3.3-7.4-7.4s3.3-7.4,7.4-7.4s7.4,3.3,7.4,7.4S29.6,25,25.5,25z"/>
	<path class="st0" d="M25.5,10.6c3.8,0,7,3.1,7,7c0,3.8-3.1,7-7,7c-3.8,0-7-3.1-7-7C18.5,13.7,21.6,10.6,25.5,10.6 M25.5,9.7
		c-4.3,0-7.9,3.5-7.9,7.9s3.5,7.9,7.9,7.9s7.9-3.5,7.9-7.9S29.8,9.7,25.5,9.7L25.5,9.7z"/>
</g>
<line class="st13" x1="25.5" y1="21" x2="25.5" y2="14.3"/>
<polyline class="st13" points="23,18.9 25.5,21.2 27.9,18.9 "/>
<rect id="_x3C_분할_영역_x3E_" class="st16" width="33" height="25"/>
</svg>
