<?xml version="1.0" encoding="utf-8"?>
<!-- Generator: Adobe Illustrator 23.0.2, SVG Export Plug-In . SVG Version: 6.00 Build 0)  -->
<svg version="1.1" id="레이어_1" xmlns="http://www.w3.org/2000/svg" xmlns:xlink="http://www.w3.org/1999/xlink" x="0px"
	 y="0px" viewBox="0 0 98 23" style="enable-background:new 0 0 98 23;" xml:space="preserve">
<style type="text/css">
	.st0{fill:#00B1FF;}
	.st1{fill:#768089;}
</style>
<g>
	<path class="st0" d="M80.8,11.4c0.4-0.3,0.8-0.6,1-1c0.3-0.5,0.5-1,0.5-1.7c0-0.7-0.2-1.4-0.5-2c-0.4-0.6-0.9-1-1.5-1.4
		c-0.6-0.3-1.4-0.5-2.2-0.5h-4.2c-0.3,0-0.6,0.1-0.8,0.3c-0.2,0.2-0.3,0.5-0.3,0.8v12c0,0.3,0.1,0.6,0.3,0.8
		c0.2,0.2,0.5,0.3,0.8,0.3h4.6c0.9,0,1.7-0.2,2.4-0.6c0.7-0.4,1.3-0.9,1.7-1.5c0.4-0.6,0.6-1.4,0.6-2.2c0-0.9-0.3-1.7-0.7-2.3
		C82,11.9,81.4,11.6,80.8,11.4z M74.9,10.6V6.9h3.2c0.6,0,1.2,0.2,1.6,0.5c0.4,0.3,0.6,0.7,0.6,1.4c0,0.6-0.2,1.1-0.6,1.4
		c-0.4,0.3-0.9,0.5-1.6,0.5H74.9z M79.8,16.8c-0.4,0.2-0.9,0.3-1.4,0.3h-3.5v-4.5h3.5c0.5,0,1,0.1,1.4,0.2c0.4,0.2,0.7,0.4,0.9,0.7
		c0.2,0.3,0.3,0.7,0.3,1.2c0,0.5-0.1,0.9-0.3,1.3C80.5,16.3,80.2,16.6,79.8,16.8z"/>
	<path class="st0" d="M86.5,5.1c-0.4,0-0.7,0.1-0.9,0.4c-0.3,0.3-0.4,0.6-0.4,0.9s0.1,0.7,0.4,0.9c0.3,0.3,0.6,0.4,0.9,0.4
		c0.4,0,0.7-0.1,0.9-0.4c0.3-0.3,0.4-0.6,0.4-0.9s-0.1-0.7-0.4-0.9C87.1,5.2,86.8,5.1,86.5,5.1z"/>
	<path class="st0" d="M86.5,9c-0.3,0-0.6,0.1-0.8,0.3c-0.2,0.2-0.3,0.5-0.3,0.8V18c0,0.3,0.1,0.6,0.3,0.8c0.2,0.2,0.5,0.3,0.8,0.3
		c0.3,0,0.6-0.1,0.8-0.3c0.2-0.2,0.3-0.5,0.3-0.8v-7.9c0-0.3-0.1-0.6-0.3-0.8C87,9.1,86.8,9,86.5,9z"/>
	<path class="st0" d="M97,17.1h-4.2l4.9-6.5l0,0c0.1-0.1,0.1-0.3,0.1-0.5c0-0.6-0.4-1-1-1h-6.1c-0.6,0-1,0.4-1,1c0,0.6,0.4,1,1,1H95
		l-4.9,6.5l0,0C90,17.7,90,17.9,90,18.1c0,0.6,0.4,1,1,1H97c0.6,0,1-0.4,1-1C98,17.4,97.6,17.1,97,17.1z"/>
</g>
<g>
	<path class="st1" d="M11.7,9.4C9.7,9.4,8.2,11,8.2,13c0,2,1.6,3.6,3.5,3.6s3.5-1.6,3.5-3.6C15.2,11,13.6,9.4,11.7,9.4z M11.7,15.3
		c-1.2,0-2.2-1-2.2-2.3c0-1.3,1-2.3,2.2-2.3c1.2,0,2.2,1,2.2,2.3C13.9,14.2,12.9,15.3,11.7,15.3z"/>
	<path class="st1" d="M56.3,9.4c-1.8,0-3.3,1.5-3.3,3.3v3.2c0,0.4,0.3,0.7,0.7,0.7c0.4,0,0.7-0.3,0.7-0.7v-3.2c0-1.1,0.9-2,2-2
		s2,0.9,2,2v3.2c0,0.4,0.3,0.7,0.7,0.7c0.4,0,0.7-0.3,0.7-0.7v-3.2C59.6,10.9,58.1,9.4,56.3,9.4z"/>
	<path class="st1" d="M23.4,9.4c-0.8,0-1.6,0.4-2.1,1c-0.5-0.6-1.3-1-2.1-1c-1.5,0-2.8,1.3-2.8,2.8v3.7c0,0.4,0.3,0.7,0.7,0.7
		s0.7-0.3,0.7-0.7v-3.7c0-0.8,0.7-1.5,1.5-1.5c0.8,0,1.5,0.7,1.5,1.5v3.6v0.1c0,0.4,0.3,0.7,0.7,0.7c0.4,0,0.7-0.3,0.7-0.7v-0.1
		v-3.6c0-0.8,0.7-1.5,1.5-1.5c0.8,0,1.5,0.7,1.5,1.5v3.7c0,0.4,0.3,0.7,0.7,0.7c0.4,0,0.7-0.3,0.7-0.7v-3.7
		C26.2,10.6,24.9,9.4,23.4,9.4z"/>
	<path class="st1" d="M67.8,8c0-0.4-0.3-0.7-0.7-0.7S66.5,7.6,66.5,8v2.2c-0.6-0.5-1.3-0.8-2.1-0.8c-1.9,0-3.4,1.6-3.4,3.6
		c0,2,1.5,3.6,3.4,3.6c1.9,0,3.4-1.6,3.4-3.6c0-0.1,0-0.1,0-0.2c0,0,0,0,0-0.1V8z M64.3,15.3c-1.2,0-2.1-1-2.1-2.3s1-2.3,2.1-2.3
		c1.2,0,2.1,1,2.1,2.3S65.5,15.3,64.3,15.3z"/>
	<path class="st1" d="M38.2,10.9c0.3,0,0.6-0.3,0.6-0.6s-0.3-0.6-0.6-0.6h-1.5V8c0-0.4-0.3-0.7-0.7-0.7c-0.4,0-0.7,0.3-0.7,0.7v4.5
		c0,1.3,0,4.1,2.7,4.1c0.4,0,0.7-0.3,0.7-0.7c0-0.4-0.3-0.7-0.7-0.7c-1.1,0-1.4-0.7-1.4-2.8v-1.6H38.2z"/>
	<path class="st1" d="M30.8,9.4c-2,0-3.3,1.5-3.3,3.5h0c0,0,0,0,0,0c0,0.6,0.2,1.3,0.4,1.9c0.5,0.9,1.3,1.5,2.4,1.7
		c0.2,0,0.5,0.1,0.7,0.1c0.9,0,1.7-0.2,2.4-0.8c0.3-0.2,0.3-0.6,0.1-0.9c-0.2-0.3-0.6-0.3-0.9-0.1c-0.5,0.5-1.3,0.6-2,0.4
		c-0.7-0.1-1.2-0.5-1.5-1c-0.1-0.2-0.2-0.4-0.2-0.7h4.6c0.3,0,0.6-0.3,0.6-0.6h0C34.1,10.8,32.8,9.4,30.8,9.4z M30.8,10.7
		c0.8,0,1.7,0.4,1.9,1.7h-3.9C29.1,11.3,29.8,10.7,30.8,10.7z"/>
	<path class="st1" d="M48.5,9.4c-2,0-3.3,1.5-3.3,3.5h0c0,0,0,0,0,0c0,0.6,0.2,1.3,0.4,1.9c0.5,0.9,1.3,1.5,2.4,1.7
		c0.2,0,0.5,0.1,0.7,0.1c0.9,0,1.7-0.2,2.4-0.8c0.3-0.2,0.3-0.6,0.1-0.9c-0.2-0.3-0.6-0.3-0.9-0.1c-0.5,0.5-1.3,0.6-2,0.4
		c-0.7-0.1-1.2-0.5-1.5-1c-0.1-0.2-0.2-0.4-0.2-0.7h4.6c0.3,0,0.6-0.3,0.6-0.6h0C51.8,10.8,50.4,9.4,48.5,9.4z M48.5,10.7
		c0.8,0,1.7,0.4,1.9,1.7h-3.9C46.7,11.3,47.5,10.7,48.5,10.7z"/>
	<path class="st1" d="M44,9.4c-0.1,0-1.6-0.2-2.7,0.8c-0.7,0.6-1.1,1.5-1.1,2.7v3c0,0.4,0.3,0.7,0.7,0.7s0.7-0.3,0.7-0.7l0-3
		c0-0.8,0.2-1.4,0.6-1.7c0.7-0.6,1.7-0.5,1.7-0.5c0.4,0,0.7-0.2,0.7-0.6C44.6,9.8,44.4,9.4,44,9.4z"/>
	<path class="st1" d="M3.5,11.4c-0.1,0-0.2,0-0.3-0.1c-0.7-0.2-1.4-0.4-1.6-0.9C1.5,10.1,1.8,9.8,2,9.6c0.4-0.4,1.1-0.4,1.6-0.4
		c0.8,0,1.5,0.3,2.1,1c0.2,0.3,0.6,0.3,0.9,0.1C6.8,10,6.8,9.6,6.6,9.3c-0.8-0.9-1.9-1.4-3-1.4c-1,0-1.8,0.3-2.4,0.7
		c-0.7,0.6-1,1.4-0.8,2.2c0.3,1.4,1.9,1.7,2.5,1.8c0.1,0,0.2,0,0.3,0.1c1.5,0.3,2.3,0.6,2.3,1.4c0,0.2-0.1,0.4-0.2,0.6
		c-0.7,0.9-2.4,0.7-3.4,0.2c-0.3-0.2-0.6-0.3-0.8-0.6c-0.3-0.3-0.7-0.2-0.9,0c-0.3,0.3-0.2,0.7,0,0.9c0.3,0.3,0.7,0.6,1.2,0.8
		c0.7,0.3,1.6,0.5,2.4,0.5c0,0,0.1,0,0.1,0c1,0,1.9-0.4,2.4-1c0,0,0,0,0,0c0.3-0.4,0.5-0.9,0.5-1.4C6.9,12.1,4.8,11.7,3.5,11.4z"/>
</g>
</svg>
