<?xml version="1.0" encoding="utf-8"?>
<!-- Generator: Adobe Illustrator 23.0.6, SVG Export Plug-In . SVG Version: 6.00 Build 0)  -->
<svg version="1.1" id="Layer_1" xmlns="http://www.w3.org/2000/svg" xmlns:xlink="http://www.w3.org/1999/xlink" x="0px" y="0px"
	 viewBox="0 0 13 14" style="enable-background:new 0 0 13 14;" xml:space="preserve">
<style type="text/css">
	.st0{clip-path:url(#SVGID_2_);fill:#3E82F1;}
	.st1{clip-path:url(#SVGID_4_);fill:#32A753;}
	.st2{clip-path:url(#SVGID_6_);fill:#F9BB00;}
	.st3{clip-path:url(#SVGID_8_);fill:#E74133;}
</style>
<g>
	<g>
		<defs>
			<path id="SVGID_1_" d="M12.8,7.1c0-0.5,0-0.9-0.1-1.3H6.6v2.5h3.5c-0.1,0.8-0.6,1.5-1.3,2v1.6h2.1C12.1,10.7,12.8,9.1,12.8,7.1
				L12.8,7.1L12.8,7.1z M12.8,7.1"/>
		</defs>
		<clipPath id="SVGID_2_">
			<use xlink:href="#SVGID_1_"  style="overflow:visible;"/>
		</clipPath>
		<rect id="XMLID_10_" x="3" y="2.2" class="st0" width="13.4" height="13.3"/>
	</g>
	<g>
		<defs>
			<path id="SVGID_3_" d="M6.6,13.4c1.7,0,3.2-0.6,4.3-1.6l-2.1-1.6c-0.6,0.4-1.3,0.6-2.2,0.6c-1.7,0-3.1-1.1-3.6-2.7H0.8v1.7
				C1.9,12,4.1,13.4,6.6,13.4L6.6,13.4L6.6,13.4z M6.6,13.4"/>
		</defs>
		<clipPath id="SVGID_4_">
			<use xlink:href="#SVGID_3_"  style="overflow:visible;"/>
		</clipPath>
		<rect id="XMLID_7_" x="-2.8" y="4.6" class="st1" width="17.2" height="12.4"/>
	</g>
	<g>
		<defs>
			<path id="SVGID_5_" d="M3,8.2C2.9,7.8,2.8,7.4,2.8,7c0-0.4,0.1-0.8,0.2-1.2V4.1H0.8C0.4,4.9,0.1,5.9,0.1,7s0.2,2,0.7,2.9L3,8.2
				L3,8.2L3,8.2z M3,8.2"/>
		</defs>
		<clipPath id="SVGID_6_">
			<use xlink:href="#SVGID_5_"  style="overflow:visible;"/>
		</clipPath>
		<rect id="XMLID_4_" x="-3.5" y="0.5" class="st2" width="10" height="13"/>
	</g>
	<g>
		<defs>
			<path id="SVGID_7_" d="M6.6,3.1c0.9,0,1.8,0.3,2.5,1l1.9-1.9c-1.1-1-2.6-1.7-4.3-1.7c-2.5,0-4.7,1.4-5.8,3.6L3,5.7
				C3.5,4.2,4.9,3.1,6.6,3.1L6.6,3.1L6.6,3.1z M6.6,3.1"/>
		</defs>
		<clipPath id="SVGID_8_">
			<use xlink:href="#SVGID_7_"  style="overflow:visible;"/>
		</clipPath>
		<rect id="XMLID_1_" x="-2.8" y="-3.1" class="st3" width="17.3" height="12.4"/>
	</g>
</g>
</svg>
