<svg xmlns="http://www.w3.org/2000/svg" viewBox="0 0 56.78 50.58"><defs><style>.cls-1{fill:none;}.cls-1,.cls-2{stroke:#a0a0a0;stroke-linecap:round;stroke-linejoin:round;stroke-width:2px;}.cls-2{fill:#fff;}</style></defs><g id="Layer_2" data-name="Layer 2"><g id="Layer_1-2" data-name="Layer 1"><ellipse class="cls-1" cx="24" cy="11.5" rx="23" ry="10.5"/><path class="cls-1" d="M10.22,28.18A43.26,43.26,0,0,0,24,30.27a43.28,43.28,0,0,0,13.79-2.09M1,28.18a6.18,6.18,0,0,0,1.9,4.19c3.56,3.68,11.65,6.27,21.1,6.27s17.55-2.59,21.1-6.27A6.15,6.15,0,0,0,47,28.18"/><path class="cls-1" d="M37.79,28.18A18.22,18.22,0,0,0,45.1,24,6.15,6.15,0,0,0,47,19.82"/><path class="cls-1" d="M47,11V36.55C47,42.32,36.72,47,24,47S1,42.32,1,36.55V20"/><path class="cls-1" d="M1,11v8.82A6.15,6.15,0,0,0,2.91,24a18.19,18.19,0,0,0,7.32,4.18"/><circle class="cls-2" cx="46.01" cy="39.81" r="9.77"/><polyline class="cls-2" points="43.03 40.66 45.58 42.78 50.68 37.68"/></g></g></svg>