<svg xmlns="http://www.w3.org/2000/svg" viewBox="0 0 404.84 404.84"><defs><style>.cls-1,.cls-2{fill:#545454;stroke:#545454;stroke-miterlimit:10;}.cls-1{stroke-width:4px;}.cls-2{stroke-width:7px;}</style></defs><g id="Layer_2" data-name="Layer 2"><g id="Layer_1-2" data-name="Layer 1"><g id="Layer_2-2" data-name="Layer 2"><g id="Layer_1-2-2" data-name="Layer 1-2"><path class="cls-1" d="M202.43,402.84C91.73,402.84,2,313.11,2,202.41A200.47,200.47,0,0,1,60.7,60.68c78.25-78.24,205.21-78.24,283.46,0s78.24,205.21,0,283.45A198.92,198.92,0,0,1,202.43,402.84Zm0-389.12C98.36,13.72,13.74,98.34,13.74,202.41S98.36,391.1,202.43,391.1s188.69-84.62,188.69-188.69S306.5,13.72,202.43,13.72Z"/><path class="cls-2" d="M202.41,278a7.17,7.17,0,0,1-7.17-7.1h0v-4.85a69.09,69.09,0,0,1,35.19-60.53,57.77,57.77,0,0,0,29.76-53.36c-1.38-29.46-25.56-53.65-55-55a57.76,57.76,0,0,0-60.45,55c-.08.94-.08,1.88-.08,2.75a7.17,7.17,0,0,1-14.33.54,4.86,4.86,0,0,1,0-.54h0a72.13,72.13,0,0,1,72.11-72.11c1.16,0,2.24,0,3.4.07,36.78,1.67,66.9,31.86,68.64,68.64a71.78,71.78,0,0,1-37.07,66.46,54.77,54.77,0,0,0-27.8,48v4.85a7.17,7.17,0,0,1-7.08,7.24h-.12Z"/><path class="cls-2" d="M202.41,322.1a11.8,11.8,0,1,1,11.8-11.8h0A11.8,11.8,0,0,1,202.41,322.1Z"/></g></g></g></g></svg>