<?xml version="1.0" encoding="utf-8"?>
<!-- Generator: Adobe Illustrator 24.2.1, SVG Export Plug-In . SVG Version: 6.00 Build 0)  -->
<svg version="1.1" id="Layer_1" xmlns="http://www.w3.org/2000/svg" xmlns:xlink="http://www.w3.org/1999/xlink" x="0px" y="0px"
	 viewBox="0 0 46 46" style="enable-background:new 0 0 46 46;" xml:space="preserve">
<style type="text/css">
	.st0{fill:#FFFFFF;}
	.st1{fill:#4E4E4E;stroke:#FFFFFF;stroke-width:2;stroke-miterlimit:10;}
</style>
<g>
	<circle class="st0" cx="23" cy="22.3" r="11.8"/>
	<g id="Layer_2_1_">
		<g id="Layer_1-2">
			<path class="st1" d="M43.6,27.5v-9h-4.5c-0.4-1.3-1-2.5-1.8-3.6l3.6-3.6L34.7,5l-3.6,3.6c-1.1-0.8-2.3-1.4-3.6-1.8V2.4h-9v4.5
				c-1.3,0.4-2.5,1-3.6,1.8L11.3,5L5,11.3l3.6,3.6c-0.8,1.1-1.4,2.3-1.8,3.6H2.4v9h4.5c0.4,1.3,1,2.5,1.8,3.6L5,34.7l6.3,6.3
				l3.6-3.6c1.1,0.8,2.3,1.4,3.6,1.8v4.5h9v-4.5c1.3-0.4,2.5-1,3.6-1.8l3.6,3.6l6.3-6.3l-3.6-3.6c0.8-1.1,1.4-2.3,1.8-3.6H43.6z
				 M23,32c-5,0-9-4-9-9s4-9,9-9s9,4,9,9S28,32,23,32z"/>
		</g>
	</g>
</g>
</svg>
