<svg xmlns="http://www.w3.org/2000/svg" viewBox="0 0 46.07 46.07"><defs><style>.cls-1{fill:none;stroke:#747474;stroke-linecap:round;stroke-linejoin:round;stroke-width:3px;}</style></defs><g id="Layer_2" data-name="Layer 2"><g id="Layer_1-2" data-name="Layer 1"><path class="cls-1" d="M23,30.63c-3.57,0-7.72-4-9.38-9.51-1.35,0-2.5-1.6-2.65-3.61s.72-3.6,1.95-3.9C13.28,6,15.38,1.5,23,1.5S32.79,6,33.12,13.61c1.23.3,2.07,2,2,3.9s-1.31,3.59-2.65,3.61C30.76,26.67,26.61,30.63,23,30.63Z"/><path class="cls-1" d="M30.63,26.2c8.17,1.9,13.94,6.05,13.94,14.57-5.7,2.6-14.09,3.8-21.54,3.8S7.2,43.37,1.5,40.77c0-8.52,5.77-12.67,13.93-14.57"/></g></g></svg>