<svg xmlns="http://www.w3.org/2000/svg" viewBox="0 0 55.31 43"><defs><style>.cls-1{fill:none;stroke:#303030;stroke-linecap:round;stroke-linejoin:round;stroke-width:3px;}.cls-2{fill:#303030;}</style></defs><g id="Layer_2" data-name="Layer 2"><g id="Layer_1-2" data-name="Layer 1"><rect class="cls-1" x="7.65" y="-4.65" width="40" height="52.31" rx="4" transform="translate(49.16 -6.15) rotate(90)"/><line class="cls-1" x1="53" y1="15.81" x2="2.58" y2="15.81"/><path class="cls-2" d="M18.74,25.6a1.35,1.35,0,0,1-1.36-1.35V22.57a1.36,1.36,0,1,1,2.71,0v1.68A1.35,1.35,0,0,1,18.74,25.6Z"/><path class="cls-2" d="M38.14,25.6a1.35,1.35,0,0,1-1.36-1.35V22.57a1.36,1.36,0,1,1,2.71,0v1.68A1.34,1.34,0,0,1,38.14,25.6Z"/><rect class="cls-2" x="18.09" y="32.8" width="20.05" height="2.71" rx="1.36"/></g></g></svg>