<?xml version="1.0" encoding="utf-8"?>
<!-- Generator: Adobe Illustrator 23.1.0, SVG Export Plug-In . SVG Version: 6.00 Build 0)  -->
<svg version="1.1" id="Layer_1" xmlns="http://www.w3.org/2000/svg" xmlns:xlink="http://www.w3.org/1999/xlink" x="0px" y="0px"
	 viewBox="0 0 37.6 36.2" style="enable-background:new 0 0 37.6 36.2;" xml:space="preserve">
<style type="text/css">
	.st0{fill:none;stroke:#747474;stroke-width:2;stroke-linejoin:round;stroke-miterlimit:10;}
	.st1{fill:#747474;stroke:#747474;stroke-miterlimit:10;}
</style>
<g>
	<path class="st0" d="M26.94,32.58c1.36,1.55,3.36,2.52,5.59,2.52c1.49,0,2.88-0.44,4.04-1.19c-2.31-1.31-3.97-3.62-4.42-6.34
		c1.82-2.7,2.88-5.96,2.88-9.47c0-9.39-7.61-17-17-17s-17,7.61-17,17s7.61,17,17,17C21.3,35.1,24.35,34.18,26.94,32.58z"/>
	<g>
		<path class="st1" d="M10.81,18.1c0-0.81,0.55-1.39,1.32-1.39s1.3,0.57,1.3,1.39c0,0.79-0.51,1.39-1.32,1.39
			C11.34,19.48,10.81,18.89,10.81,18.1z"/>
		<path class="st1" d="M17.12,18.1c0-0.81,0.55-1.39,1.32-1.39c0.77,0,1.3,0.57,1.3,1.39c0,0.79-0.51,1.39-1.32,1.39
			C17.65,19.48,17.12,18.89,17.12,18.1z"/>
		<path class="st1" d="M23.44,18.1c0-0.81,0.55-1.39,1.32-1.39s1.3,0.57,1.3,1.39c0,0.79-0.51,1.39-1.32,1.39
			C23.96,19.48,23.44,18.89,23.44,18.1z"/>
	</g>
</g>
</svg>
