<?xml version="1.0" encoding="utf-8"?>
<!-- Generator: Adobe Illustrator 23.1.0, SVG Export Plug-In . SVG Version: 6.00 Build 0)  -->
<svg version="1.1" id="Layer_1" xmlns="http://www.w3.org/2000/svg" xmlns:xlink="http://www.w3.org/1999/xlink" x="0px" y="0px"
	 viewBox="0 0 47.39 28.68" style="enable-background:new 0 0 47.39 28.68;" xml:space="preserve">
<style type="text/css">
	.st0{fill:#747474;}
</style>
<g>
	<g>
		<path class="st0" d="M23.69,2c4,0,7.64,0.73,10.83,2.16c3.53,1.59,6.5,4.01,8.82,7.2c0.89,1.23,1.49,2.32,1.84,3.02
			c-0.62,1.3-1.85,3.47-3.97,5.63c-1.9,1.93-4.13,3.47-6.63,4.57c-3.18,1.4-6.85,2.11-10.89,2.11c-4.1,0-7.81-0.73-11.02-2.17
			c-3.54-1.58-6.48-3.99-8.72-7.16c-0.85-1.2-1.42-2.27-1.75-2.98c0.65-1.31,1.94-3.51,4.12-5.69C8.25,6.75,10.5,5.21,13,4.1
			C16.15,2.71,19.75,2,23.69,2 M23.69,0c-4.65,0-8.43,0.91-11.51,2.27s-5.46,3.17-7.28,5c-2.94,2.95-4.42,5.96-4.9,7.08
			c0.09,0.22,0.2,0.49,0.37,0.84c0.39,0.84,1.03,2.01,1.95,3.32c1.85,2.62,4.86,5.74,9.54,7.83c3.12,1.39,7,2.34,11.84,2.34
			c4.76,0,8.6-0.92,11.69-2.27c3.1-1.36,5.46-3.17,7.26-5c2.89-2.94,4.29-5.93,4.74-7.05c-0.09-0.22-0.22-0.49-0.39-0.85
			c-0.42-0.84-1.08-2.02-2.03-3.33C43.06,7.56,40,4.42,35.35,2.33C32.24,0.95,28.42,0,23.69,0L23.69,0z M-0.17,13.91L-0.17,13.91
			L-0.17,13.91L-0.17,13.91z"/>
	</g>
	<g>
		<path class="st0" d="M23.7,8.77c1.49,0,2.89,0.58,3.94,1.63c1.05,1.05,1.63,2.46,1.64,3.94c0,1.49-0.58,2.89-1.63,3.94
			c-1.06,1.05-2.46,1.63-3.94,1.64c-1.49,0-2.89-0.58-3.94-1.63c-1.05-1.05-1.63-2.46-1.63-3.94c0-1.49,0.58-2.89,1.63-3.94
			C20.81,9.35,22.21,8.77,23.7,8.77 M23.7,6.77c-2.1,0-3.98,0.85-5.36,2.22c-1.37,1.38-2.22,3.26-2.22,5.36s0.85,3.98,2.22,5.36
			c1.38,1.37,3.26,2.22,5.36,2.22s3.98-0.85,5.36-2.22c1.37-1.38,2.22-3.26,2.22-5.36c0-2.1-0.85-3.98-2.22-5.36
			C27.68,7.61,25.79,6.77,23.7,6.77L23.7,6.77z"/>
	</g>
</g>
</svg>
