<?xml version="1.0" encoding="utf-8"?>
<!-- Generator: Adobe Illustrator 23.1.0, SVG Export Plug-In . SVG Version: 6.00 Build 0)  -->
<svg version="1.1" id="Layer_1" xmlns="http://www.w3.org/2000/svg" xmlns:xlink="http://www.w3.org/1999/xlink" x="0px" y="0px"
	 viewBox="0 0 34.09 38.3" style="enable-background:new 0 0 34.09 38.3;" xml:space="preserve">
<style type="text/css">
	.st0{fill:#747474;}
</style>
<g>
	<g>
		<rect x="0.05" y="36.3" class="st0" width="32" height="2"/>
	</g>
	<g>
		<g>
			<path class="st0" d="M3.03,32.31c-0.26,0-0.52-0.1-0.71-0.29c-0.26-0.26-0.35-0.63-0.25-0.98l2.83-9.9
				c0.05-0.16,0.13-0.31,0.25-0.43L24.24,1.61c0.85-0.85,1.98-1.32,3.18-1.32c1.2,0,2.33,0.47,3.18,1.32l2.12,2.12
				c1.75,1.75,1.75,4.61,0,6.36L13.64,29.18c-0.12,0.12-0.27,0.21-0.43,0.25l-9.9,2.83C3.21,32.29,3.12,32.31,3.03,32.31z
				 M6.75,21.93l-2.26,7.92l7.92-2.26L31.31,8.68c0.97-0.98,0.97-2.56,0-3.54l-2.12-2.12c-0.97-0.97-2.56-0.98-3.54,0L6.75,21.93z"
				/>
		</g>
		<g>
			<rect x="24.65" y="3.68" transform="matrix(0.7071 -0.7071 0.7071 0.7071 1.3746 20.6843)" class="st0" width="2" height="10"/>
		</g>
	</g>
</g>
</svg>
