<?xml version="1.0" encoding="utf-8"?>
<!-- Generator: Adobe Illustrator 23.1.0, SVG Export Plug-In . SVG Version: 6.00 Build 0)  -->
<svg version="1.1" id="Layer_1" xmlns="http://www.w3.org/2000/svg" xmlns:xlink="http://www.w3.org/1999/xlink" x="0px" y="0px"
	 viewBox="0 0 36 36" style="enable-background:new 0 0 36 36;" xml:space="preserve">
<style type="text/css">
	.st0{fill:#747474;}
</style>
<g>
	<g>
		<path class="st0" d="M27,36H9c-2.76,0-5-2.24-5-5V6h2v25c0,1.65,1.35,3,3,3h18c1.65,0,3-1.35,3-3V6h2v25C32,33.76,29.76,36,27,36z
			"/>
	</g>
	<g>
		<rect y="5" class="st0" width="36" height="2"/>
	</g>
	<g>
		<path class="st0" d="M24,7H12c-0.55,0-1-0.45-1-1V3c0-1.65,1.35-3,3-3h8c1.65,0,3,1.35,3,3v3C25,6.55,24.55,7,24,7z M13,5h10V3
			c0-0.55-0.45-1-1-1h-8c-0.55,0-1,0.45-1,1V5z"/>
	</g>
	<g>
		<rect x="17" y="11" class="st0" width="2" height="19"/>
	</g>
	<g>
		<rect x="23" y="11" class="st0" width="2" height="19"/>
	</g>
	<g>
		<rect x="11" y="11" class="st0" width="2" height="19"/>
	</g>
</g>
</svg>
